JetBrainsMoro-Light.ufo
<glyph name="exclam" format="2">
  <advance width="600.0"/>
  <unicode hex="0021"/>
  <outline>
    <contour>
      <point x="272.53333333333336" y="212.33333333333334" type="line"/>
      <point x="327.46666666666664" y="212.33333333333334" type="line"/>
      <point x="347.1333333333333" y="599.3333333333334" type="line"/>
      <point x="347.1333333333333" y="730.0" type="line"/>
      <point x="252.86666666666667" y="730.0" type="line"/>
      <point x="252.86666666666667" y="599.3333333333334" type="line"/>
    </contour>
    <contour>
      <point x="289.26666666666665" y="-5.0" type="curve" smooth="yes"/>
      <point x="312.6" y="-5.0" type="line" smooth="yes"/>
      <point x="347.06666666666666" y="-5.0"/>
      <point x="371.26666666666665" y="19.933333333333334"/>
      <point x="371.26666666666665" y="54.4" type="curve" smooth="yes"/>
      <point x="371.26666666666665" y="88.13333333333334"/>
      <point x="349.26666666666665" y="112.33333333333333"/>
      <point x="312.6" y="112.33333333333333" type="curve" smooth="yes"/>
      <point x="289.26666666666665" y="112.33333333333333" type="line" smooth="yes"/>
      <point x="254.8" y="112.33333333333333"/>
      <point x="230.6" y="88.13333333333334"/>
      <point x="230.6" y="53.666666666666664" type="curve" smooth="yes"/>
      <point x="230.6" y="19.2"/>
      <point x="254.8" y="-5.0"/>
    </contour>
  </outline>
</glyph>
<glyph name="quotedbl" format="2">
  <advance width="600.0"/>
  <unicode hex="0022"/>
  <outline>
    <contour>
      <point x="368.2" y="430.0" type="line"/>
      <point x="435.0" y="430.0" type="line"/>
      <point x="445.46666666666664" y="640.0" type="line"/>
      <point x="445.46666666666664" y="730.0" type="line"/>
      <point x="356.73333333333335" y="730.0" type="line"/>
      <point x="356.73333333333335" y="640.0" type="line"/>
    </contour>
    <contour>
      <point x="166.0" y="430.0" type="line"/>
      <point x="232.8" y="430.0" type="line"/>
      <point x="243.26666666666668" y="640.0" type="line"/>
      <point x="243.26666666666668" y="730.0" type="line"/>
      <point x="154.53333333333333" y="730.0" type="line"/>
      <point x="154.53333333333333" y="640.0" type="line"/>
    </contour>
  </outline>
</glyph>
<glyph name="dollar" format="2">
  <advance width="600.0"/>
  <unicode hex="0024"/>
  <outline>
    <contour>
      <point x="277.6666666666667" y="-140.0" type="line"/>
      <point x="332.3333333333333" y="-140.0" type="line"/>
      <point x="332.3333333333333" y="-9.0" type="line"/>
      <point x="449.06666666666666" y="1.6666666666666667"/>
      <point x="524.5333333333333" y="77.06666666666666"/>
      <point x="524.5333333333333" y="186.53333333333333" type="curve" smooth="yes"/>
      <point x="524.5333333333333" y="285.26666666666665"/>
      <point x="467.2" y="362.8"/>
      <point x="369.4" y="393.8" type="curve" smooth="yes"/>
      <point x="332.3333333333333" y="405.73333333333335" type="line"/>
      <point x="332.3333333333333" y="667.6" type="line"/>
      <point x="397.6666666666667" y="658.1333333333333"/>
      <point x="435.93333333333334" y="613.1333333333333"/>
      <point x="435.93333333333334" y="545.8" type="curve"/>
      <point x="515.2666666666667" y="545.8" type="line"/>
      <point x="513.8" y="655.6"/>
      <point x="443.3333333333333" y="729.0666666666667"/>
      <point x="332.3333333333333" y="739.0" type="curve"/>
      <point x="332.3333333333333" y="870.0" type="line"/>
      <point x="277.6666666666667" y="870.0" type="line"/>
      <point x="277.6666666666667" y="738.2666666666667" type="line"/>
      <point x="165.93333333333334" y="728.3333333333334"/>
      <point x="95.46666666666667" y="655.9333333333333"/>
      <point x="95.46666666666667" y="549.4666666666667" type="curve" smooth="yes"/>
      <point x="95.46666666666667" y="452.26666666666665"/>
      <point x="151.73333333333332" y="378.06666666666666"/>
      <point x="250.66666666666666" y="347.6" type="curve" smooth="yes"/>
      <point x="277.6666666666667" y="339.6" type="line"/>
      <point x="277.6666666666667" y="62.4" type="line"/>
      <point x="200.33333333333334" y="70.86666666666667"/>
      <point x="154.8" y="117.6"/>
      <point x="154.8" y="188.66666666666666" type="curve"/>
      <point x="75.46666666666667" y="188.66666666666666" type="line"/>
      <point x="76.93333333333334" y="74.2"/>
      <point x="152.46666666666667" y="0.19999999999999996"/>
      <point x="277.6666666666667" y="-9.0" type="curve"/>
    </contour>
    <contour>
      <point x="332.3333333333333" y="62.4" type="curve"/>
      <point x="332.3333333333333" y="322.46666666666664" type="line"/>
      <point x="345.6666666666667" y="318.2" type="line" smooth="yes"/>
      <point x="408.46666666666664" y="298.8666666666667"/>
      <point x="445.2" y="248.13333333333333"/>
      <point x="445.2" y="185.06666666666666" type="curve" smooth="yes"/>
      <point x="445.2" y="116.0"/>
      <point x="403.46666666666664" y="71.33333333333333"/>
    </contour>
    <contour>
      <point x="277.6666666666667" y="393.53333333333336" type="line"/>
      <point x="296.4" y="419.06666666666666" type="line"/>
      <point x="218.8" y="433.73333333333335"/>
      <point x="174.8" y="485.8666666666667"/>
      <point x="174.8" y="556.4" type="curve" smooth="yes"/>
      <point x="174.8" y="618.2"/>
      <point x="213.06666666666666" y="659.1333333333333"/>
      <point x="277.6666666666667" y="667.6" type="curve"/>
    </contour>
  </outline>
</glyph>
<glyph name="percent" format="2">
  <advance width="600.0"/>
  <unicode hex="0025"/>
  <outline>
    <contour>
      <point x="15.6" y="0.0" type="line"/>
      <point x="81.86666666666667" y="0.0" type="line"/>
      <point x="584.4" y="730.0" type="line"/>
      <point x="518.1333333333333" y="730.0" type="line"/>
    </contour>
    <contour>
      <point x="443.6666666666667" y="-5.0" type="curve" smooth="yes"/>
      <point x="526.0666666666667" y="-5.0"/>
      <point x="579.2" y="45.733333333333334"/>
      <point x="579.2" y="128.66666666666666" type="curve" smooth="yes"/>
      <point x="579.2" y="196.33333333333334" type="line" smooth="yes"/>
      <point x="579.2" y="279.26666666666665"/>
      <point x="526.0666666666667" y="330.0"/>
      <point x="443.6666666666667" y="330.0" type="curve" smooth="yes"/>
      <point x="361.26666666666665" y="330.0"/>
      <point x="308.1333333333333" y="279.26666666666665"/>
      <point x="308.1333333333333" y="196.33333333333334" type="curve" smooth="yes"/>
      <point x="308.1333333333333" y="128.66666666666666" type="line" smooth="yes"/>
      <point x="308.1333333333333" y="45.733333333333334"/>
      <point x="361.26666666666665" y="-5.0"/>
    </contour>
    <contour>
      <point x="443.6666666666667" y="56.8" type="curve" smooth="yes"/>
      <point x="397.26666666666665" y="56.8"/>
      <point x="374.1333333333333" y="80.46666666666667"/>
      <point x="374.1333333333333" y="128.66666666666666" type="curve" smooth="yes"/>
      <point x="374.1333333333333" y="196.33333333333334" type="line" smooth="yes"/>
      <point x="374.1333333333333" y="244.53333333333333"/>
      <point x="397.26666666666665" y="268.93333333333334"/>
      <point x="443.6666666666667" y="268.93333333333334" type="curve" smooth="yes"/>
      <point x="490.06666666666666" y="268.93333333333334"/>
      <point x="513.2" y="244.53333333333333"/>
      <point x="513.2" y="196.33333333333334" type="curve" smooth="yes"/>
      <point x="513.2" y="128.66666666666666" type="line" smooth="yes"/>
      <point x="513.2" y="80.46666666666667"/>
      <point x="490.06666666666666" y="56.8"/>
    </contour>
    <contour>
      <point x="156.33333333333334" y="400.0" type="curve" smooth="yes"/>
      <point x="238.73333333333332" y="400.0"/>
      <point x="291.8666666666667" y="450.73333333333335"/>
      <point x="291.8666666666667" y="533.6666666666666" type="curve" smooth="yes"/>
      <point x="291.8666666666667" y="601.3333333333334" type="line" smooth="yes"/>
      <point x="291.8666666666667" y="684.2666666666667"/>
      <point x="238.73333333333332" y="735.0"/>
      <point x="156.33333333333334" y="735.0" type="curve" smooth="yes"/>
      <point x="74.2" y="735.0"/>
      <point x="20.8" y="684.2666666666667"/>
      <point x="20.8" y="601.3333333333334" type="curve" smooth="yes"/>
      <point x="20.8" y="533.6666666666666" type="line" smooth="yes"/>
      <point x="20.8" y="450.73333333333335"/>
      <point x="74.2" y="400.0"/>
    </contour>
    <contour>
      <point x="156.33333333333334" y="461.06666666666666" type="curve" smooth="yes"/>
      <point x="110.93333333333334" y="461.06666666666666"/>
      <point x="86.8" y="485.46666666666664"/>
      <point x="86.8" y="533.6666666666666" type="curve" smooth="yes"/>
      <point x="86.8" y="601.3333333333334" type="line" smooth="yes"/>
      <point x="86.8" y="649.5333333333333"/>
      <point x="110.93333333333334" y="673.9333333333333"/>
      <point x="156.33333333333334" y="673.9333333333333" type="curve" smooth="yes"/>
      <point x="202.0" y="673.9333333333333"/>
      <point x="225.86666666666667" y="649.5333333333333"/>
      <point x="225.86666666666667" y="601.3333333333334" type="curve" smooth="yes"/>
      <point x="225.86666666666667" y="533.6666666666666" type="line" smooth="yes"/>
      <point x="225.86666666666667" y="485.46666666666664"/>
      <point x="202.0" y="461.06666666666666"/>
    </contour>
  </outline>
</glyph>
<glyph name="ampersand" format="2">
  <advance width="600.0"/>
  <unicode hex="0026"/>
  <outline>
    <contour>
      <point x="227.33333333333334" y="-10.0" type="curve" smooth="yes"/>
      <point x="296.3333333333333" y="-10.0"/>
      <point x="358.93333333333334" y="26.4"/>
      <point x="407.46666666666664" y="95.26666666666667" type="curve"/>
      <point x="477.93333333333334" y="0.0" type="line"/>
      <point x="564.6666666666666" y="0.0" type="line"/>
      <point x="446.8666666666667" y="161.0" type="line"/>
      <point x="558.0" y="360.0" type="line"/>
      <point x="475.73333333333335" y="360.0" type="line"/>
      <point x="400.73333333333335" y="224.46666666666667" type="line"/>
      <point x="226.6" y="462.8" type="line" smooth="yes"/>
      <point x="198.13333333333333" y="501.3333333333333"/>
      <point x="181.0" y="544.1333333333333"/>
      <point x="181.0" y="579.2666666666667" type="curve" smooth="yes"/>
      <point x="181.0" y="632.9333333333333"/>
      <point x="219.46666666666667" y="670.8"/>
      <point x="277.6666666666667" y="670.8" type="curve" smooth="yes"/>
      <point x="341.06666666666666" y="670.8"/>
      <point x="382.26666666666665" y="629.6666666666666"/>
      <point x="382.26666666666665" y="569.2666666666667" type="curve"/>
      <point x="461.6" y="569.2666666666667" type="line"/>
      <point x="461.6" y="672.1333333333333"/>
      <point x="390.2" y="740.0"/>
      <point x="277.6666666666667" y="740.0" type="curve" smooth="yes"/>
      <point x="172.06666666666666" y="740.0"/>
      <point x="101.66666666666667" y="675.1333333333333"/>
      <point x="101.66666666666667" y="580.7333333333333" type="curve" smooth="yes"/>
      <point x="101.66666666666667" y="532.4666666666667"/>
      <point x="120.2" y="484.6"/>
      <point x="164.4" y="425.6666666666667" type="curve" smooth="yes"/>
      <point x="170.6" y="423.1333333333333" type="line"/>
      <point x="98.6" y="406.06666666666666"/>
      <point x="57.666666666666664" y="352.6666666666667"/>
      <point x="57.666666666666664" y="276.26666666666665" type="curve" smooth="yes"/>
      <point x="57.666666666666664" y="155.0" type="line" smooth="yes"/>
      <point x="57.666666666666664" y="52.0"/>
      <point x="121.8" y="-10.0"/>
    </contour>
    <contour>
      <point x="232.33333333333334" y="60.666666666666664" type="curve" smooth="yes"/>
      <point x="173.2" y="60.666666666666664"/>
      <point x="137.0" y="96.46666666666667"/>
      <point x="137.0" y="155.0" type="curve" smooth="yes"/>
      <point x="137.0" y="276.26666666666665" type="line" smooth="yes"/>
      <point x="137.0" y="327.2"/>
      <point x="162.53333333333333" y="359.26666666666665"/>
      <point x="208.6" y="365.46666666666664" type="curve"/>
      <point x="362.8" y="155.8" type="line"/>
      <point x="329.8" y="95.33333333333333"/>
      <point x="281.6" y="60.666666666666664"/>
    </contour>
  </outline>
</glyph>
<glyph name="quotesingle" format="2">
  <advance width="600.0"/>
  <unicode hex="0027"/>
  <outline>
    <contour>
      <point x="263.06666666666666" y="430.0" type="line"/>
      <point x="329.8666666666667" y="430.0" type="line"/>
      <point x="340.3333333333333" y="574.6666666666666" type="line"/>
      <point x="340.3333333333333" y="730.0" type="line"/>
      <point x="251.6" y="730.0" type="line"/>
      <point x="251.6" y="574.6666666666666" type="line"/>
    </contour>
  </outline>
</glyph>
<glyph name="parenleft" format="2">
  <advance width="600.0"/>
  <unicode hex="0028"/>
  <outline>
    <contour>
      <point x="485.0" y="-120.0" type="curve"/>
      <point x="485.0" y="-42.46666666666667" type="line"/>
      <point x="352.26666666666665" y="-10.866666666666667"/>
      <point x="271.0" y="106.73333333333333"/>
      <point x="271.0" y="267.3333333333333" type="curve" smooth="yes"/>
      <point x="271.0" y="452.6666666666667" type="line" smooth="yes"/>
      <point x="271.0" y="614.7333333333333"/>
      <point x="353.0" y="733.8"/>
      <point x="485.0" y="765.4" type="curve"/>
      <point x="485.0" y="840.0" type="line"/>
      <point x="302.6666666666667" y="794.8"/>
      <point x="191.66666666666666" y="648.4666666666667"/>
      <point x="191.66666666666666" y="452.6666666666667" type="curve" smooth="yes"/>
      <point x="191.66666666666666" y="267.3333333333333" type="line" smooth="yes"/>
      <point x="191.66666666666666" y="68.6"/>
      <point x="299.73333333333335" y="-73.8"/>
    </contour>
  </outline>
</glyph>
<glyph name="parenright" format="2">
  <advance width="600.0"/>
  <unicode hex="0029"/>
  <outline>
    <contour>
      <point x="115.0" y="-120.0" type="line"/>
      <point x="300.26666666666665" y="-73.8"/>
      <point x="408.3333333333333" y="68.6"/>
      <point x="408.3333333333333" y="267.3333333333333" type="curve" smooth="yes"/>
      <point x="408.3333333333333" y="452.6666666666667" type="line" smooth="yes"/>
      <point x="408.3333333333333" y="648.4666666666667"/>
      <point x="297.3333333333333" y="794.8"/>
      <point x="115.0" y="840.0" type="curve"/>
      <point x="115.0" y="765.4" type="line"/>
      <point x="247.0" y="733.8"/>
      <point x="329.0" y="614.7333333333333"/>
      <point x="329.0" y="452.6666666666667" type="curve" smooth="yes"/>
      <point x="329.0" y="267.3333333333333" type="line" smooth="yes"/>
      <point x="329.0" y="106.73333333333333"/>
      <point x="247.73333333333332" y="-10.866666666666667"/>
      <point x="115.0" y="-42.46666666666667" type="curve"/>
    </contour>
  </outline>
</glyph>
<glyph name="asterisk" format="2">
  <advance width="600.0"/>
  <unicode hex="002A"/>
  <outline>
    <contour>
      <point x="177.26666666666668" y="96.66666666666667" type="line"/>
      <point x="236.06666666666666" y="181.33333333333334" type="line" smooth="yes"/>
      <point x="265.0" y="221.86666666666667"/>
      <point x="282.73333333333335" y="270.1333333333333"/>
      <point x="295.46666666666664" y="302.6666666666667" type="curve"/>
      <point x="303.53333333333336" y="302.6666666666667" type="line"/>
      <point x="315.53333333333336" y="269.8666666666667"/>
      <point x="334.26666666666665" y="221.86666666666667"/>
      <point x="362.2" y="181.33333333333334" type="curve" smooth="yes"/>
      <point x="422.0" y="96.4" type="line"/>
      <point x="486.53333333333336" y="141.33333333333334" type="line"/>
      <point x="426.73333333333335" y="226.26666666666668" type="line" smooth="yes"/>
      <point x="398.8" y="266.26666666666665"/>
      <point x="360.4" y="299.8666666666667"/>
      <point x="333.6" y="322.26666666666665" type="curve"/>
      <point x="337.8666666666667" y="331.8666666666667" type="line"/>
      <point x="371.8666666666667" y="335.1333333333333"/>
      <point x="421.1333333333333" y="340.53333333333336"/>
      <point x="465.6" y="356.8666666666667" type="curve" smooth="yes"/>
      <point x="563.1333333333333" y="392.06666666666666" type="line"/>
      <point x="536.3333333333334" y="466.26666666666665" type="line"/>
      <point x="438.53333333333336" y="431.3333333333333" type="line" smooth="yes"/>
      <point x="393.6" y="415.53333333333336"/>
      <point x="351.06666666666666" y="386.53333333333336"/>
      <point x="323.0" y="366.2" type="curve"/>
      <point x="316.93333333333334" y="371.0" type="line"/>
      <point x="326.3333333333333" y="404.53333333333336"/>
      <point x="339.46666666666664" y="456.2"/>
      <point x="339.46666666666664" y="505.6666666666667" type="curve" smooth="yes"/>
      <point x="339.46666666666664" y="610.0" type="line"/>
      <point x="260.53333333333336" y="610.0" type="line"/>
      <point x="260.53333333333336" y="505.6666666666667" type="line" smooth="yes"/>
      <point x="260.53333333333336" y="456.2"/>
      <point x="273.93333333333334" y="404.53333333333336"/>
      <point x="282.3333333333333" y="371.0" type="curve"/>
      <point x="276.26666666666665" y="366.46666666666664" type="line"/>
      <point x="248.2" y="386.8"/>
      <point x="205.66666666666666" y="415.26666666666665"/>
      <point x="160.2" y="431.6" type="curve" smooth="yes"/>
      <point x="63.93333333333333" y="466.53333333333336" type="line"/>
      <point x="36.86666666666667" y="392.3333333333333" type="line"/>
      <point x="133.4" y="357.1333333333333" type="line" smooth="yes"/>
      <point x="177.86666666666667" y="340.8"/>
      <point x="227.86666666666667" y="335.4"/>
      <point x="261.8666666666667" y="332.4" type="curve"/>
      <point x="265.4" y="323.26666666666665" type="line"/>
      <point x="239.33333333333334" y="300.8666666666667"/>
      <point x="200.46666666666667" y="267.26666666666665"/>
      <point x="171.53333333333333" y="226.26666666666668" type="curve" smooth="yes"/>
      <point x="112.46666666666667" y="141.6" type="line"/>
    </contour>
  </outline>
</glyph>
<glyph name="plus" format="2">
  <advance width="600.0"/>
  <unicode hex="002B"/>
  <outline>
    <contour>
      <point x="261.06666666666666" y="96.33333333333333" type="line"/>
      <point x="338.93333333333334" y="96.33333333333333" type="line"/>
      <point x="338.93333333333334" y="295.3333333333333" type="line"/>
      <point x="532.3333333333334" y="295.3333333333333" type="line"/>
      <point x="532.3333333333334" y="366.0" type="line"/>
      <point x="338.93333333333334" y="366.0" type="line"/>
      <point x="338.93333333333334" y="565.0" type="line"/>
      <point x="261.06666666666666" y="565.0" type="line"/>
      <point x="261.06666666666666" y="366.0" type="line"/>
      <point x="67.66666666666667" y="366.0" type="line"/>
      <point x="67.66666666666667" y="295.3333333333333" type="line"/>
      <point x="261.06666666666666" y="295.3333333333333" type="line"/>
    </contour>
  </outline>
</glyph>
<glyph name="comma" format="2">
  <advance width="600.0"/>
  <unicode hex="002C"/>
  <outline>
    <contour>
      <point x="212.66666666666666" y="-160.0" type="line"/>
      <point x="294.1333333333333" y="-160.0" type="line"/>
      <point x="364.4" y="151.0" type="line"/>
      <point x="268.73333333333335" y="151.0" type="line"/>
    </contour>
  </outline>
</glyph>
<glyph name="period" format="2">
  <advance width="600.0"/>
  <unicode hex="002E"/>
  <outline>
    <contour>
      <point x="300.0" y="-10.0" type="curve" smooth="yes"/>
      <point x="349.4" y="-10.0"/>
      <point x="380.3333333333333" y="20.466666666666665"/>
      <point x="380.3333333333333" y="69.4" type="curve" smooth="yes"/>
      <point x="380.3333333333333" y="119.53333333333333"/>
      <point x="349.4" y="151.2"/>
      <point x="300.0" y="151.2" type="curve" smooth="yes"/>
      <point x="250.6" y="151.2"/>
      <point x="219.66666666666666" y="119.53333333333333"/>
      <point x="219.66666666666666" y="69.4" type="curve" smooth="yes"/>
      <point x="219.66666666666666" y="20.466666666666665"/>
      <point x="250.6" y="-10.0"/>
    </contour>
  </outline>
</glyph>
<glyph name="slash" format="2">
  <advance width="600.0"/>
  <unicode hex="002F"/>
  <outline>
    <contour>
      <point x="80.33333333333333" y="-110.0" type="line"/>
      <point x="164.4" y="-110.0" type="line"/>
      <point x="519.6666666666666" y="830.0" type="line"/>
      <point x="435.6" y="830.0" type="line"/>
    </contour>
  </outline>
</glyph>
<glyph name="zero" format="2">
  <advance width="600.0"/>
  <unicode hex="0030"/>
  <outline>
    <contour>
      <point x="300.26666666666665" y="-10.0" type="curve" smooth="yes"/>
      <point x="432.6666666666667" y="-10.0"/>
      <point x="516.5333333333333" y="73.93333333333334"/>
      <point x="516.5333333333333" y="205.0" type="curve" smooth="yes"/>
      <point x="516.5333333333333" y="525.0" type="line" smooth="yes"/>
      <point x="516.5333333333333" y="656.8"/>
      <point x="433.4" y="740.0"/>
      <point x="300.26666666666665" y="740.0" type="curve" smooth="yes"/>
      <point x="166.86666666666667" y="740.0"/>
      <point x="83.46666666666667" y="656.5333333333333"/>
      <point x="83.46666666666667" y="525.0" type="curve" smooth="yes"/>
      <point x="83.46666666666667" y="205.0" type="line" smooth="yes"/>
      <point x="83.46666666666667" y="73.46666666666667"/>
      <point x="166.86666666666667" y="-10.0"/>
    </contour>
    <contour>
      <point x="300.26666666666665" y="59.8" type="curve" smooth="yes"/>
      <point x="216.26666666666668" y="59.8"/>
      <point x="161.93333333333334" y="118.4"/>
      <point x="161.93333333333334" y="205.0" type="curve" smooth="yes"/>
      <point x="161.93333333333334" y="525.0" type="line" smooth="yes"/>
      <point x="161.93333333333334" y="611.6"/>
      <point x="216.26666666666668" y="670.2"/>
      <point x="300.26666666666665" y="670.2" type="curve" smooth="yes"/>
      <point x="384.0" y="670.2"/>
      <point x="438.06666666666666" y="611.6"/>
      <point x="438.06666666666666" y="525.0" type="curve" smooth="yes"/>
      <point x="438.06666666666666" y="205.0" type="line" smooth="yes"/>
      <point x="438.06666666666666" y="118.13333333333334"/>
      <point x="384.0" y="59.8"/>
    </contour>
    <contour>
      <point x="300.0" y="309.2" type="curve" smooth="yes"/>
      <point x="334.4" y="309.2"/>
      <point x="357.3333333333333" y="332.8666666666667"/>
      <point x="357.3333333333333" y="368.0" type="curve" smooth="yes"/>
      <point x="357.3333333333333" y="402.4"/>
      <point x="334.4" y="425.3333333333333"/>
      <point x="300.0" y="425.3333333333333" type="curve" smooth="yes"/>
      <point x="265.6" y="425.3333333333333"/>
      <point x="242.66666666666666" y="402.4"/>
      <point x="242.66666666666666" y="368.0" type="curve" smooth="yes"/>
      <point x="242.66666666666666" y="332.8666666666667"/>
      <point x="265.6" y="309.2"/>
    </contour>
  </outline>
</glyph>
<glyph name="one" format="2">
  <advance width="600.0"/>
  <unicode hex="0031"/>
  <outline>
    <contour>
      <point x="92.66666666666667" y="0.0" type="line"/>
      <point x="537.3333333333334" y="0.0" type="line"/>
      <point x="537.3333333333334" y="72.13333333333333" type="line"/>
      <point x="372.4" y="72.13333333333333" type="line"/>
      <point x="372.4" y="730.0" type="line"/>
      <point x="264.6" y="730.0" type="line"/>
      <point x="94.8" y="603.8" type="line"/>
      <point x="94.8" y="515.5333333333333" type="line"/>
      <point x="293.06666666666666" y="663.0" type="line"/>
      <point x="293.06666666666666" y="72.13333333333333" type="line"/>
      <point x="92.66666666666667" y="72.13333333333333" type="line"/>
    </contour>
  </outline>
</glyph>
<glyph name="two" format="2">
  <advance width="600.0"/>
  <unicode hex="0032"/>
  <outline>
    <contour>
      <point x="93.06666666666666" y="0.0" type="line"/>
      <point x="527.0666666666667" y="0.0" type="line"/>
      <point x="527.0666666666667" y="72.13333333333333" type="line"/>
      <point x="183.26666666666668" y="72.13333333333333" type="line"/>
      <point x="378.3333333333333" y="280.0" type="line" smooth="yes"/>
      <point x="471.0" y="379.06666666666666"/>
      <point x="512.9333333333333" y="455.6"/>
      <point x="512.9333333333333" y="530.9333333333333" type="curve" smooth="yes"/>
      <point x="512.9333333333333" y="659.0666666666667"/>
      <point x="428.46666666666664" y="740.0"/>
      <point x="294.8" y="740.0" type="curve" smooth="yes"/>
      <point x="163.6" y="740.0"/>
      <point x="78.13333333333334" y="657.8"/>
      <point x="75.2" y="527.6666666666666" type="curve"/>
      <point x="154.53333333333333" y="527.6666666666666" type="line"/>
      <point x="154.53333333333333" y="614.9333333333333"/>
      <point x="208.73333333333332" y="669.6"/>
      <point x="294.8" y="669.6" type="curve" smooth="yes"/>
      <point x="380.1333333333333" y="669.6"/>
      <point x="433.6" y="615.6666666666666"/>
      <point x="433.6" y="530.8666666666667" type="curve" smooth="yes"/>
      <point x="433.6" y="468.73333333333335"/>
      <point x="400.4" y="408.4"/>
      <point x="325.8" y="328.6" type="curve" smooth="yes"/>
      <point x="93.06666666666666" y="78.6" type="line"/>
    </contour>
  </outline>
</glyph>
<glyph name="three" format="2">
  <advance width="600.0"/>
  <unicode hex="0033"/>
  <outline>
    <contour>
      <point x="289.26666666666665" y="-10.0" type="curve" smooth="yes"/>
      <point x="418.6" y="-10.0"/>
      <point x="504.6666666666667" y="72.4"/>
      <point x="504.6666666666667" y="197.33333333333334" type="curve" smooth="yes"/>
      <point x="504.6666666666667" y="252.93333333333334" type="line" smooth="yes"/>
      <point x="504.6666666666667" y="378.8"/>
      <point x="421.53333333333336" y="458.93333333333334"/>
      <point x="290.6666666666667" y="458.93333333333334" type="curve"/>
      <point x="290.6666666666667" y="436.46666666666664" type="line"/>
      <point x="484.8666666666667" y="655.6" type="line"/>
      <point x="484.8666666666667" y="730.0" type="line"/>
      <point x="104.0" y="730.0" type="line"/>
      <point x="104.0" y="657.8666666666667" type="line"/>
      <point x="395.6666666666667" y="657.8666666666667" type="line"/>
      <point x="218.46666666666667" y="456.93333333333334" type="line"/>
      <point x="218.46666666666667" y="388.26666666666665" type="line"/>
      <point x="290.0" y="388.26666666666665" type="line" smooth="yes"/>
      <point x="375.46666666666664" y="388.26666666666665"/>
      <point x="425.3333333333333" y="338.4"/>
      <point x="425.3333333333333" y="252.93333333333334" type="curve" smooth="yes"/>
      <point x="425.3333333333333" y="197.33333333333334" type="line" smooth="yes"/>
      <point x="425.3333333333333" y="114.53333333333333"/>
      <point x="374.93333333333334" y="60.666666666666664"/>
      <point x="290.0" y="60.666666666666664" type="curve" smooth="yes"/>
      <point x="205.8" y="60.666666666666664"/>
      <point x="154.66666666666666" y="112.06666666666666"/>
      <point x="154.66666666666666" y="197.33333333333334" type="curve"/>
      <point x="75.33333333333333" y="197.33333333333334" type="line"/>
      <point x="75.33333333333333" y="72.4"/>
      <point x="159.93333333333334" y="-10.0"/>
    </contour>
  </outline>
</glyph>
<glyph name="four" format="2">
  <advance width="600.0"/>
  <unicode hex="0034"/>
  <outline>
    <contour>
      <point x="405.3333333333333" y="0.0" type="line"/>
      <point x="484.6666666666667" y="0.0" type="line"/>
      <point x="484.6666666666667" y="420.0" type="line"/>
      <point x="405.3333333333333" y="420.0" type="line"/>
      <point x="405.3333333333333" y="234.8" type="line"/>
      <point x="153.33333333333334" y="234.8" type="line"/>
      <point x="153.33333333333334" y="276.06666666666666" type="line"/>
      <point x="432.06666666666666" y="729.7333333333333" type="line"/>
      <point x="345.3333333333333" y="729.7333333333333" type="line"/>
      <point x="74.0" y="292.73333333333335" type="line"/>
      <point x="74.0" y="162.66666666666666" type="line"/>
      <point x="405.3333333333333" y="162.66666666666666" type="line"/>
    </contour>
  </outline>
</glyph>
<glyph name="five" format="2">
  <advance width="600.0"/>
  <unicode hex="0035"/>
  <outline>
    <contour>
      <point x="298.53333333333336" y="-10.0" type="curve" smooth="yes"/>
      <point x="431.8" y="-10.0"/>
      <point x="511.0" y="71.53333333333333"/>
      <point x="511.0" y="201.06666666666666" type="curve" smooth="yes"/>
      <point x="511.0" y="270.73333333333335" type="line" smooth="yes"/>
      <point x="511.0" y="403.26666666666665"/>
      <point x="442.6" y="480.73333333333335"/>
      <point x="325.1333333333333" y="480.0" type="curve" smooth="yes"/>
      <point x="237.93333333333334" y="480.0"/>
      <point x="181.53333333333333" y="437.26666666666665"/>
      <point x="181.53333333333333" y="370.46666666666664" type="curve"/>
      <point x="208.73333333333335" y="398.3333333333333" type="line"/>
      <point x="182.6" y="398.3333333333333" type="line"/>
      <point x="185.6" y="657.8666666666667" type="line"/>
      <point x="486.6" y="657.8666666666667" type="line"/>
      <point x="486.6" y="730.0" type="line"/>
      <point x="109.0" y="730.0" type="line"/>
      <point x="104.0" y="326.0" type="line"/>
      <point x="183.33333333333334" y="326.0" type="line"/>
      <point x="200.33333333333334" y="377.4"/>
      <point x="243.2" y="410.06666666666666"/>
      <point x="300.0" y="410.06666666666666" type="curve" smooth="yes"/>
      <point x="386.46666666666664" y="410.06666666666666"/>
      <point x="431.6666666666667" y="359.3333333333333"/>
      <point x="431.6666666666667" y="270.73333333333335" type="curve" smooth="yes"/>
      <point x="431.6666666666667" y="201.06666666666666" type="line" smooth="yes"/>
      <point x="431.6666666666667" y="111.66666666666667"/>
      <point x="386.2" y="60.666666666666664"/>
      <point x="299.26666666666665" y="60.666666666666664" type="curve" smooth="yes"/>
      <point x="220.73333333333332" y="60.666666666666664"/>
      <point x="174.8" y="97.93333333333334"/>
      <point x="168.33333333333334" y="161.6" type="curve"/>
      <point x="89.0" y="161.6" type="line"/>
      <point x="100.66666666666667" y="56.266666666666666"/>
      <point x="180.06666666666666" y="-10.0"/>
    </contour>
  </outline>
</glyph>
<glyph name="six" format="2">
  <advance width="600.0"/>
  <unicode hex="0036"/>
  <outline>
    <contour>
      <point x="300.73333333333335" y="-10.0" type="curve" smooth="yes"/>
      <point x="439.3333333333333" y="-9.733333333333333"/>
      <point x="532.0" y="83.93333333333334"/>
      <point x="532.0" y="223.8" type="curve" smooth="yes"/>
      <point x="532.0" y="356.8"/>
      <point x="451.0" y="445.8"/>
      <point x="331.0" y="445.8" type="curve" smooth="yes"/>
      <point x="271.3333333333333" y="445.8"/>
      <point x="222.26666666666668" y="421.2"/>
      <point x="199.33333333333334" y="388.4" type="curve"/>
      <point x="195.33333333333334" y="391.4" type="line"/>
      <point x="395.2" y="730.0" type="line"/>
      <point x="308.4" y="730.0" type="line"/>
      <point x="132.66666666666666" y="421.4" type="line" smooth="yes"/>
      <point x="92.53333333333333" y="351.6"/>
      <point x="68.0" y="285.6666666666667"/>
      <point x="68.0" y="222.2" type="curve" smooth="yes"/>
      <point x="68.0" y="83.46666666666667"/>
      <point x="161.4" y="-10.0"/>
    </contour>
    <contour>
      <point x="300.0" y="60.666666666666664" type="curve" smooth="yes"/>
      <point x="208.2" y="60.666666666666664"/>
      <point x="146.53333333333333" y="124.53333333333333"/>
      <point x="147.33333333333334" y="222.33333333333334" type="curve" smooth="yes"/>
      <point x="147.6" y="318.53333333333336"/>
      <point x="209.26666666666668" y="384.0"/>
      <point x="300.0" y="384.0" type="curve" smooth="yes"/>
      <point x="391.0" y="384.0"/>
      <point x="452.6666666666667" y="318.53333333333336"/>
      <point x="452.6666666666667" y="222.33333333333334" type="curve" smooth="yes"/>
      <point x="452.6666666666667" y="124.53333333333333"/>
      <point x="391.0" y="60.666666666666664"/>
    </contour>
  </outline>
</glyph>
<glyph name="seven" format="2">
  <advance width="600.0"/>
  <unicode hex="0037"/>
  <outline>
    <contour>
      <point x="195.0" y="0.0" type="line"/>
      <point x="282.8" y="0.0" type="line"/>
      <point x="542.3333333333334" y="653.7333333333333" type="line"/>
      <point x="542.3333333333334" y="730.0" type="line"/>
      <point x="82.66666666666667" y="730.0" type="line"/>
      <point x="82.66666666666667" y="530.0" type="line"/>
      <point x="163.33333333333334" y="530.0" type="line"/>
      <point x="163.33333333333334" y="656.2666666666667" type="line"/>
      <point x="460.53333333333336" y="656.2666666666667" type="line"/>
    </contour>
  </outline>
</glyph>
<glyph name="eight" format="2">
  <advance width="600.0"/>
  <unicode hex="0038"/>
  <outline>
    <contour>
      <point x="300.0" y="-10.0" type="curve" smooth="yes"/>
      <point x="437.8" y="-10.0"/>
      <point x="528.9333333333333" y="66.86666666666666"/>
      <point x="528.9333333333333" y="181.13333333333333" type="curve" smooth="yes"/>
      <point x="528.9333333333333" y="269.06666666666666"/>
      <point x="467.46666666666664" y="344.1333333333333"/>
      <point x="364.0" y="386.46666666666664" type="curve" smooth="yes"/>
      <point x="269.1333333333333" y="424.8666666666667" type="line" smooth="yes"/>
      <point x="205.4" y="450.8666666666667"/>
      <point x="165.46666666666667" y="497.3333333333333"/>
      <point x="165.46666666666667" y="554.2" type="curve" smooth="yes"/>
      <point x="165.46666666666667" y="622.7333333333333"/>
      <point x="220.33333333333334" y="670.0666666666667"/>
      <point x="300.0" y="670.0666666666667" type="curve" smooth="yes"/>
      <point x="380.46666666666664" y="670.0666666666667"/>
      <point x="437.2" y="622.6666666666666"/>
      <point x="437.2" y="554.2" type="curve" smooth="yes"/>
      <point x="437.2" y="499.6"/>
      <point x="395.8" y="452.1333333333333"/>
      <point x="328.46666666666664" y="423.8666666666667" type="curve" smooth="yes"/>
      <point x="233.06666666666666" y="385.0" type="line" smooth="yes"/>
      <point x="131.33333333333334" y="343.46666666666664"/>
      <point x="71.06666666666666" y="268.3333333333333"/>
      <point x="71.06666666666666" y="181.13333333333333" type="curve" smooth="yes"/>
      <point x="71.06666666666666" y="66.86666666666666"/>
      <point x="162.2" y="-10.0"/>
    </contour>
    <contour>
      <point x="300.0" y="60.666666666666664" type="curve" smooth="yes"/>
      <point x="209.33333333333334" y="60.666666666666664"/>
      <point x="148.93333333333334" y="111.73333333333333"/>
      <point x="148.93333333333334" y="189.4" type="curve" smooth="yes"/>
      <point x="148.93333333333334" y="249.86666666666667"/>
      <point x="187.86666666666667" y="302.2"/>
      <point x="256.93333333333334" y="331.2" type="curve" smooth="yes"/>
      <point x="351.3333333333333" y="369.8" type="line" smooth="yes"/>
      <point x="459.3333333333333" y="413.6"/>
      <point x="515.0666666666667" y="481.73333333333335"/>
      <point x="515.0666666666667" y="557.2" type="curve" smooth="yes"/>
      <point x="515.0666666666667" y="663.2666666666667"/>
      <point x="422.53333333333336" y="740.7333333333333"/>
      <point x="300.0" y="740.7333333333333" type="curve" smooth="yes"/>
      <point x="178.0" y="740.7333333333333"/>
      <point x="87.6" y="663.8"/>
      <point x="87.6" y="557.2" type="curve" smooth="yes"/>
      <point x="87.6" y="480.46666666666664"/>
      <point x="141.53333333333333" y="413.6"/>
      <point x="246.73333333333332" y="370.8" type="curve" smooth="yes"/>
      <point x="340.8666666666667" y="331.93333333333334" type="line" smooth="yes"/>
      <point x="410.6666666666667" y="302.6666666666667"/>
      <point x="451.06666666666666" y="250.8"/>
      <point x="451.06666666666666" y="189.13333333333333" type="curve" smooth="yes"/>
      <point x="451.06666666666666" y="111.46666666666667"/>
      <point x="390.6666666666667" y="60.666666666666664"/>
    </contour>
  </outline>
</glyph>
<glyph name="nine" format="2">
  <advance width="600.0"/>
  <unicode hex="0039"/>
  <outline>
    <contour>
      <point x="203.73333333333332" y="0.0" type="line"/>
      <point x="292.0" y="0.0" type="line"/>
      <point x="466.8666666666667" y="308.6" type="line" smooth="yes"/>
      <point x="506.53333333333336" y="378.6666666666667"/>
      <point x="530.4" y="444.3333333333333"/>
      <point x="530.4" y="507.8" type="curve" smooth="yes"/>
      <point x="530.4" y="646.5333333333333"/>
      <point x="437.8" y="740.0"/>
      <point x="299.26666666666665" y="740.0" type="curve" smooth="yes"/>
      <point x="161.73333333333332" y="740.0"/>
      <point x="69.6" y="645.5333333333333"/>
      <point x="69.6" y="504.8666666666667" type="curve" smooth="yes"/>
      <point x="69.6" y="372.1333333333333"/>
      <point x="150.06666666666666" y="283.4"/>
      <point x="269.0" y="283.4" type="curve" smooth="yes"/>
      <point x="328.6666666666667" y="283.4"/>
      <point x="376.26666666666665" y="308.8"/>
      <point x="399.2" y="341.6" type="curve"/>
      <point x="403.2" y="338.6" type="line"/>
    </contour>
    <contour>
      <point x="300.0" y="345.73333333333335" type="curve" smooth="yes"/>
      <point x="209.8" y="345.73333333333335"/>
      <point x="148.93333333333334" y="410.1333333333333"/>
      <point x="148.93333333333334" y="506.3333333333333" type="curve" smooth="yes"/>
      <point x="148.93333333333334" y="604.4"/>
      <point x="209.8" y="669.3333333333334"/>
      <point x="300.0" y="669.3333333333334" type="curve" smooth="yes"/>
      <point x="391.0" y="669.3333333333334"/>
      <point x="451.8666666666667" y="604.4"/>
      <point x="451.3333333333333" y="506.6" type="curve" smooth="yes"/>
      <point x="450.8" y="409.8666666666667"/>
      <point x="389.93333333333334" y="345.73333333333335"/>
    </contour>
  </outline>
</glyph>
<glyph name="colon" format="2">
  <advance width="600.0"/>
  <unicode hex="003A"/>
  <outline>
    <contour>
      <point x="300.0" y="411.6" type="curve" smooth="yes"/>
      <point x="348.4" y="411.6"/>
      <point x="380.3333333333333" y="441.3333333333333"/>
      <point x="380.3333333333333" y="485.8" type="curve" smooth="yes"/>
      <point x="380.3333333333333" y="530.2666666666667"/>
      <point x="348.4" y="560.0"/>
      <point x="300.0" y="560.0" type="curve" smooth="yes"/>
      <point x="251.6" y="560.0"/>
      <point x="219.66666666666666" y="530.2666666666667"/>
      <point x="219.66666666666666" y="485.8" type="curve" smooth="yes"/>
      <point x="219.66666666666666" y="441.3333333333333"/>
      <point x="251.6" y="411.6"/>
    </contour>
    <contour>
      <point x="300.0" y="-10.0" type="curve" smooth="yes"/>
      <point x="348.4" y="-10.0"/>
      <point x="380.3333333333333" y="19.733333333333334"/>
      <point x="380.3333333333333" y="64.2" type="curve" smooth="yes"/>
      <point x="380.3333333333333" y="108.66666666666667"/>
      <point x="348.4" y="138.4"/>
      <point x="300.0" y="138.4" type="curve" smooth="yes"/>
      <point x="251.6" y="138.4"/>
      <point x="219.66666666666666" y="108.66666666666667"/>
      <point x="219.66666666666666" y="64.2" type="curve" smooth="yes"/>
      <point x="219.66666666666666" y="19.733333333333334"/>
      <point x="251.6" y="-10.0"/>
    </contour>
  </outline>
</glyph>
<glyph name="semicolon" format="2">
  <advance width="600.0"/>
  <unicode hex="003B"/>
  <outline>
    <contour>
      <point x="291.3333333333333" y="412.6666666666667" type="curve" smooth="yes"/>
      <point x="308.6666666666667" y="412.6666666666667" type="line" smooth="yes"/>
      <point x="352.1333333333333" y="412.6666666666667"/>
      <point x="382.3333333333333" y="442.8666666666667"/>
      <point x="382.3333333333333" y="486.3333333333333" type="curve" smooth="yes"/>
      <point x="382.3333333333333" y="529.0666666666667"/>
      <point x="351.4" y="560.0"/>
      <point x="308.6666666666667" y="560.0" type="curve" smooth="yes"/>
      <point x="291.3333333333333" y="560.0" type="line" smooth="yes"/>
      <point x="248.33333333333334" y="560.0"/>
      <point x="217.4" y="529.0666666666667"/>
      <point x="217.4" y="486.3333333333333" type="curve" smooth="yes"/>
      <point x="217.4" y="442.8666666666667"/>
      <point x="247.6" y="412.6666666666667"/>
    </contour>
    <component base="comma" xOffset="-5.0"/>
  </outline>
</glyph>
<glyph name="less" format="2">
  <advance width="600.0"/>
  <unicode hex="003C"/>
  <outline>
    <contour>
      <point x="513.6666666666666" y="69.0" type="line"/>
      <point x="513.6666666666666" y="149.13333333333333" type="line"/>
      <point x="208.73333333333332" y="302.93333333333334" type="line" smooth="yes"/>
      <point x="184.4" y="315.73333333333335"/>
      <point x="156.73333333333332" y="327.1333333333333"/>
      <point x="142.86666666666667" y="331.73333333333335" type="curve"/>
      <point x="156.0" y="336.3333333333333"/>
      <point x="182.93333333333334" y="347.73333333333335"/>
      <point x="208.73333333333332" y="360.53333333333336" type="curve" smooth="yes"/>
      <point x="513.6666666666666" y="513.0666666666667" type="line"/>
      <point x="513.6666666666666" y="591.0" type="line"/>
      <point x="86.33333333333333" y="372.8" type="line"/>
      <point x="86.33333333333333" y="287.2" type="line"/>
    </contour>
  </outline>
</glyph>
<glyph name="equal" format="2">
  <advance width="600.0"/>
  <unicode hex="003D"/>
  <outline>
    <contour>
      <point x="87.66666666666667" y="412.93333333333334" type="line"/>
      <point x="512.3333333333334" y="412.93333333333334" type="line"/>
      <point x="512.3333333333334" y="483.6" type="line"/>
      <point x="87.66666666666667" y="483.6" type="line"/>
    </contour>
    <contour>
      <point x="87.66666666666667" y="176.66666666666666" type="line"/>
      <point x="512.3333333333334" y="176.66666666666666" type="line"/>
      <point x="512.3333333333334" y="247.33333333333334" type="line"/>
      <point x="87.66666666666667" y="247.33333333333334" type="line"/>
    </contour>
  </outline>
</glyph>
<glyph name="greater" format="2">
  <advance width="600.0"/>
  <unicode hex="003E"/>
  <outline>
    <contour>
      <point x="86.33333333333333" y="69.0" type="line"/>
      <point x="513.6666666666666" y="287.2" type="line"/>
      <point x="513.6666666666666" y="372.8" type="line"/>
      <point x="86.33333333333333" y="591.0" type="line"/>
      <point x="86.33333333333333" y="510.8666666666667" type="line"/>
      <point x="391.26666666666665" y="357.06666666666666" type="line" smooth="yes"/>
      <point x="415.6" y="344.26666666666665"/>
      <point x="443.26666666666665" y="332.8666666666667"/>
      <point x="457.1333333333333" y="328.26666666666665" type="curve"/>
      <point x="444.0" y="323.6666666666667"/>
      <point x="417.06666666666666" y="312.26666666666665"/>
      <point x="391.26666666666665" y="299.46666666666664" type="curve" smooth="yes"/>
      <point x="86.33333333333333" y="146.93333333333334" type="line"/>
    </contour>
  </outline>
</glyph>
<glyph name="question" format="2">
  <advance width="600.0"/>
  <unicode hex="003F"/>
  <outline>
    <contour>
      <point x="215.33333333333334" y="205.0" type="line"/>
      <point x="294.6666666666667" y="205.0" type="line"/>
      <point x="294.6666666666667" y="315.3333333333333" type="line"/>
      <point x="410.93333333333334" y="319.73333333333335"/>
      <point x="487.6666666666667" y="402.1333333333333"/>
      <point x="487.6666666666667" y="519.0" type="curve" smooth="yes"/>
      <point x="487.6666666666667" y="647.3333333333334"/>
      <point x="399.53333333333336" y="730.0"/>
      <point x="263.0" y="730.0" type="curve" smooth="yes"/>
      <point x="134.0" y="730.0" type="line"/>
      <point x="134.0" y="655.6666666666666" type="line"/>
      <point x="263.0" y="655.6666666666666" type="line" smooth="yes"/>
      <point x="351.93333333333334" y="655.6666666666666"/>
      <point x="408.3333333333333" y="602.0"/>
      <point x="408.3333333333333" y="519.0" type="curve" smooth="yes"/>
      <point x="408.3333333333333" y="436.0"/>
      <point x="353.53333333333336" y="382.3333333333333"/>
      <point x="265.3333333333333" y="382.3333333333333" type="curve" smooth="yes"/>
      <point x="215.33333333333334" y="382.3333333333333" type="line"/>
    </contour>
    <contour>
      <point x="241.93333333333334" y="-5.0" type="curve" smooth="yes"/>
      <point x="265.26666666666665" y="-5.0" type="line" smooth="yes"/>
      <point x="299.73333333333335" y="-5.0"/>
      <point x="323.93333333333334" y="19.933333333333334"/>
      <point x="323.93333333333334" y="54.4" type="curve" smooth="yes"/>
      <point x="323.93333333333334" y="88.13333333333334"/>
      <point x="301.93333333333334" y="112.33333333333333"/>
      <point x="265.26666666666665" y="112.33333333333333" type="curve" smooth="yes"/>
      <point x="241.93333333333334" y="112.33333333333333" type="line" smooth="yes"/>
      <point x="207.46666666666667" y="112.33333333333333"/>
      <point x="183.26666666666665" y="88.13333333333334"/>
      <point x="183.26666666666665" y="53.666666666666664" type="curve" smooth="yes"/>
      <point x="183.26666666666665" y="19.2"/>
      <point x="207.46666666666667" y="-5.0"/>
    </contour>
  </outline>
</glyph>
<glyph name="at" format="2">
  <advance width="600.0"/>
  <unicode hex="0040"/>
  <outline>
    <contour>
      <point x="325.0" y="-179.73333333333332" type="curve" smooth="yes"/>
      <point x="396.3333333333333" y="-179.73333333333332" type="line"/>
      <point x="396.3333333333333" y="-112.73333333333333" type="line"/>
      <point x="325.0" y="-112.73333333333333" type="line" smooth="yes"/>
      <point x="198.86666666666667" y="-112.73333333333333"/>
      <point x="122.33333333333333" y="-26.733333333333334"/>
      <point x="122.33333333333333" y="111.6" type="curve" smooth="yes"/>
      <point x="122.33333333333333" y="448.6666666666667" type="line" smooth="yes"/>
      <point x="122.33333333333333" y="592.7333333333333"/>
      <point x="192.6" y="676.9333333333333"/>
      <point x="315.0" y="676.9333333333333" type="curve" smooth="yes"/>
      <point x="423.3333333333333" y="676.9333333333333"/>
      <point x="484.0" y="610.1333333333333"/>
      <point x="484.0" y="492.3333333333333" type="curve" smooth="yes"/>
      <point x="484.0" y="487.3333333333333" type="line"/>
      <point x="487.53333333333336" y="410.0" type="line"/>
      <point x="467.8666666666667" y="410.0" type="line"/>
      <point x="484.0" y="396.6" type="line"/>
      <point x="484.0" y="451.0"/>
      <point x="441.73333333333335" y="485.0"/>
      <point x="375.06666666666666" y="485.0" type="curve" smooth="yes"/>
      <point x="288.3333333333333" y="485.0"/>
      <point x="241.33333333333334" y="431.8"/>
      <point x="241.33333333333334" y="332.6666666666667" type="curve" smooth="yes"/>
      <point x="241.33333333333334" y="210.0" type="line" smooth="yes"/>
      <point x="241.33333333333334" y="109.26666666666667"/>
      <point x="288.3333333333333" y="55.0"/>
      <point x="375.06666666666666" y="55.0" type="curve" smooth="yes"/>
      <point x="440.6666666666667" y="55.0"/>
      <point x="484.0" y="90.06666666666666"/>
      <point x="484.0" y="142.66666666666666" type="curve"/>
      <point x="465.0" y="130.0" type="line"/>
      <point x="486.8" y="130.0" type="line"/>
      <point x="486.8" y="65.0" type="line"/>
      <point x="556.0" y="65.0" type="line"/>
      <point x="556.0" y="492.3333333333333" type="line" smooth="yes"/>
      <point x="556.0" y="645.4"/>
      <point x="464.06666666666666" y="740.0"/>
      <point x="315.0" y="740.0" type="curve" smooth="yes"/>
      <point x="149.66666666666666" y="740.0"/>
      <point x="50.333333333333336" y="629.4666666666667"/>
      <point x="50.333333333333336" y="448.6666666666667" type="curve" smooth="yes"/>
      <point x="50.333333333333336" y="111.6" type="line" smooth="yes"/>
      <point x="50.333333333333336" y="-66.2"/>
      <point x="156.4" y="-179.73333333333332"/>
    </contour>
    <contour>
      <point x="398.6666666666667" y="113.2" type="curve" smooth="yes"/>
      <point x="341.46666666666664" y="113.2"/>
      <point x="313.3333333333333" y="144.33333333333334"/>
      <point x="313.3333333333333" y="210.0" type="curve" smooth="yes"/>
      <point x="313.3333333333333" y="332.6666666666667" type="line" smooth="yes"/>
      <point x="313.3333333333333" y="396.46666666666664"/>
      <point x="341.46666666666664" y="426.8"/>
      <point x="398.6666666666667" y="426.8" type="curve" smooth="yes"/>
      <point x="456.06666666666666" y="426.8"/>
      <point x="484.0" y="396.6666666666667"/>
      <point x="484.0" y="333.4" type="curve" smooth="yes"/>
      <point x="484.0" y="217.33333333333334" type="line" smooth="yes"/>
      <point x="484.0" y="148.06666666666666"/>
      <point x="456.06666666666666" y="113.2"/>
    </contour>
  </outline>
</glyph>
<glyph name="A" format="2">
  <advance width="600.0"/>
  <unicode hex="0041"/>
  <anchor x="300.0" y="0.0" name="bottom"/>
  <anchor x="498.6666666666667" y="0.0" name="ogonek"/>
  <anchor x="300.0" y="730.0" name="top"/>
  <outline>
    <contour>
      <point x="54.8" y="0.0" type="line"/>
      <point x="135.6" y="0.0" type="line"/>
      <point x="185.73333333333332" y="198.26666666666668" type="line"/>
      <point x="414.46666666666664" y="198.26666666666668" type="line"/>
      <point x="464.6" y="0.0" type="line"/>
      <point x="545.2" y="0.0" type="line"/>
      <point x="353.0" y="730.0" type="line"/>
      <point x="247.73333333333332" y="730.0" type="line"/>
    </contour>
    <contour>
      <point x="202.13333333333333" y="266.0" type="line"/>
      <point x="264.53333333333336" y="510.4" type="line" smooth="yes"/>
      <point x="285.0" y="591.2"/>
      <point x="297.0" y="648.8"/>
      <point x="300.0" y="666.0" type="curve"/>
      <point x="303.0" y="648.8"/>
      <point x="314.73333333333335" y="591.2"/>
      <point x="335.2" y="509.6666666666667" type="curve" smooth="yes"/>
      <point x="397.3333333333333" y="266.0" type="line"/>
    </contour>
  </outline>
</glyph>
<glyph name="B" format="2">
  <advance width="600.0"/>
  <unicode hex="0042"/>
  <anchor x="300.0" y="0.0" name="bottom"/>
  <anchor x="300.0" y="730.0" name="top"/>
  <outline>
    <contour>
      <point x="97.53333333333333" y="0.0" type="line"/>
      <point x="311.26666666666665" y="0.0" type="line" smooth="yes"/>
      <point x="444.0" y="0.0"/>
      <point x="526.2666666666667" y="78.0"/>
      <point x="526.2666666666667" y="202.2" type="curve" smooth="yes"/>
      <point x="526.2666666666667" y="317.3333333333333"/>
      <point x="453.1333333333333" y="391.0"/>
      <point x="340.0" y="389.53333333333336" type="curve"/>
      <point x="340.0" y="375.8666666666667" type="line"/>
      <point x="444.3333333333333" y="374.4"/>
      <point x="509.0" y="439.73333333333335"/>
      <point x="509.0" y="541.2666666666667" type="curve" smooth="yes"/>
      <point x="509.0" y="658.2"/>
      <point x="429.26666666666665" y="730.0"/>
      <point x="299.46666666666664" y="730.0" type="curve" smooth="yes"/>
      <point x="97.53333333333333" y="730.0" type="line"/>
    </contour>
    <contour>
      <point x="175.4" y="71.66666666666667" type="line"/>
      <point x="175.4" y="344.2" type="line"/>
      <point x="303.93333333333334" y="344.2" type="line" smooth="yes"/>
      <point x="392.73333333333335" y="344.2"/>
      <point x="447.6666666666667" y="288.1333333333333"/>
      <point x="447.6666666666667" y="204.13333333333333" type="curve" smooth="yes"/>
      <point x="447.6666666666667" y="122.33333333333333"/>
      <point x="392.73333333333335" y="71.66666666666667"/>
      <point x="303.93333333333334" y="71.66666666666667" type="curve" smooth="yes"/>
    </contour>
    <contour>
      <point x="175.4" y="413.4" type="line"/>
      <point x="175.4" y="658.3333333333334" type="line"/>
      <point x="299.46666666666664" y="658.3333333333334" type="line" smooth="yes"/>
      <point x="380.73333333333335" y="658.3333333333334"/>
      <point x="430.4" y="611.6666666666666"/>
      <point x="430.4" y="535.8666666666667" type="curve" smooth="yes"/>
      <point x="430.4" y="460.06666666666666"/>
      <point x="380.26666666666665" y="413.4"/>
      <point x="298.73333333333335" y="413.4" type="curve" smooth="yes"/>
    </contour>
  </outline>
</glyph>
<glyph name="D" format="2">
  <advance width="600.0"/>
  <unicode hex="0044"/>
  <anchor x="300.0" y="0.0" name="bottom"/>
  <anchor x="300.0" y="365.0" name="center"/>
  <anchor x="300.0" y="730.0" name="top"/>
  <outline>
    <contour>
      <point x="96.8" y="0.0" type="line"/>
      <point x="278.06666666666666" y="0.0" type="line" smooth="yes"/>
      <point x="417.46666666666664" y="0.0"/>
      <point x="507.46666666666664" y="86.53333333333333"/>
      <point x="507.46666666666664" y="220.0" type="curve" smooth="yes"/>
      <point x="507.46666666666664" y="510.73333333333335" type="line" smooth="yes"/>
      <point x="507.46666666666664" y="643.4666666666667"/>
      <point x="417.46666666666664" y="730.0"/>
      <point x="278.06666666666666" y="730.0" type="curve" smooth="yes"/>
      <point x="96.8" y="730.0" type="line"/>
    </contour>
    <contour>
      <point x="176.13333333333333" y="70.93333333333334" type="line"/>
      <point x="176.13333333333333" y="659.0666666666667" type="line"/>
      <point x="278.06666666666666" y="659.0666666666667" type="line" smooth="yes"/>
      <point x="370.3333333333333" y="659.0666666666667"/>
      <point x="428.1333333333333" y="602.2666666666667"/>
      <point x="428.1333333333333" y="510.73333333333335" type="curve" smooth="yes"/>
      <point x="428.1333333333333" y="220.0" type="line" smooth="yes"/>
      <point x="428.1333333333333" y="127.46666666666667"/>
      <point x="370.6" y="70.93333333333334"/>
      <point x="278.06666666666666" y="70.93333333333334" type="curve" smooth="yes"/>
    </contour>
  </outline>
</glyph>
<glyph name="E" format="2">
  <advance width="600.0"/>
  <unicode hex="0045"/>
  <anchor x="320.0" y="0.0" name="bottom"/>
  <anchor x="440.0" y="0.0" name="ogonek"/>
  <anchor x="320.0" y="730.0" name="top"/>
  <anchor x="20.0" y="730.0" name="topleft"/>
  <outline>
    <contour>
      <point x="105.33333333333333" y="0.0" type="line"/>
      <point x="517.3333333333334" y="0.0" type="line"/>
      <point x="517.3333333333334" y="72.4" type="line"/>
      <point x="183.93333333333334" y="72.4" type="line"/>
      <point x="183.93333333333334" y="346.26666666666665" type="line"/>
      <point x="482.3333333333333" y="346.26666666666665" type="line"/>
      <point x="482.3333333333333" y="416.93333333333334" type="line"/>
      <point x="183.93333333333334" y="416.93333333333334" type="line"/>
      <point x="183.93333333333334" y="657.6" type="line"/>
      <point x="517.3333333333334" y="657.6" type="line"/>
      <point x="517.3333333333334" y="730.0" type="line"/>
      <point x="105.33333333333333" y="730.0" type="line"/>
    </contour>
  </outline>
</glyph>
<glyph name="F" format="2">
  <advance width="600.0"/>
  <unicode hex="0046"/>
  <anchor x="300.0" y="0.0" name="bottom"/>
  <anchor x="300.0" y="730.0" name="top"/>
  <outline>
    <contour>
      <point x="100.33333333333333" y="0.0" type="line"/>
      <point x="179.66666666666666" y="0.0" type="line"/>
      <point x="179.66666666666666" y="329.8666666666667" type="line"/>
      <point x="496.6" y="329.8666666666667" type="line"/>
      <point x="496.6" y="402.26666666666665" type="line"/>
      <point x="178.2" y="402.26666666666665" type="line"/>
      <point x="178.2" y="657.6" type="line"/>
      <point x="525.0" y="657.6" type="line"/>
      <point x="525.0" y="730.0" type="line"/>
      <point x="100.33333333333333" y="730.0" type="line"/>
    </contour>
  </outline>
</glyph>
<glyph name="G" format="2">
  <advance width="600.0"/>
  <unicode hex="0047"/>
  <anchor x="304.53333333333336" y="0.0" name="bottom"/>
  <anchor x="301.6" y="730.0" name="top"/>
  <outline>
    <contour>
      <point x="304.53333333333336" y="-10.0" type="curve" smooth="yes"/>
      <point x="433.6666666666667" y="-10.0"/>
      <point x="515.8666666666667" y="71.26666666666667"/>
      <point x="515.8666666666667" y="200.0" type="curve" smooth="yes"/>
      <point x="515.8666666666667" y="367.73333333333335" type="line"/>
      <point x="281.8666666666667" y="367.73333333333335" type="line"/>
      <point x="281.8666666666667" y="295.3333333333333" type="line"/>
      <point x="436.53333333333336" y="295.3333333333333" type="line"/>
      <point x="436.53333333333336" y="200.0" type="line" smooth="yes"/>
      <point x="436.53333333333336" y="111.93333333333334"/>
      <point x="387.3333333333333" y="60.666666666666664"/>
      <point x="304.53333333333336" y="60.666666666666664" type="curve" smooth="yes"/>
      <point x="221.53333333333333" y="60.666666666666664"/>
      <point x="171.86666666666667" y="110.86666666666667"/>
      <point x="171.86666666666667" y="197.33333333333334" type="curve" smooth="yes"/>
      <point x="171.86666666666667" y="533.4" type="line" smooth="yes"/>
      <point x="171.86666666666667" y="619.1333333333333"/>
      <point x="221.8" y="668.6"/>
      <point x="304.53333333333336" y="668.6" type="curve" smooth="yes"/>
      <point x="387.06666666666666" y="668.6"/>
      <point x="436.53333333333336" y="618.0666666666667"/>
      <point x="436.53333333333336" y="530.0" type="curve"/>
      <point x="515.8666666666667" y="530.0" type="line"/>
      <point x="515.8666666666667" y="658.7333333333333"/>
      <point x="433.6666666666667" y="740.0"/>
      <point x="304.53333333333336" y="740.0" type="curve" smooth="yes"/>
      <point x="174.46666666666667" y="740.0"/>
      <point x="92.53333333333333" y="661.2666666666667"/>
      <point x="92.53333333333333" y="532.6666666666666" type="curve" smooth="yes"/>
      <point x="92.53333333333333" y="197.33333333333334" type="line" smooth="yes"/>
      <point x="92.53333333333333" y="69.0"/>
      <point x="174.4718" y="-10.0"/>
    </contour>
  </outline>
</glyph>
<glyph name="H" format="2">
  <advance width="600.0"/>
  <unicode hex="0048"/>
  <anchor x="300.0" y="0.0" name="bottom"/>
  <anchor x="300.0" y="365.0" name="center"/>
  <anchor x="300.0" y="730.0" name="top"/>
  <anchor x="20.0" y="730.0" name="topleft"/>
  <outline>
    <contour>
      <point x="97.53333333333333" y="0.0" type="line"/>
      <point x="176.86666666666667" y="0.0" type="line"/>
      <point x="176.86666666666667" y="341.3333333333333" type="line"/>
      <point x="423.1333333333333" y="341.3333333333333" type="line"/>
      <point x="423.1333333333333" y="0.0" type="line"/>
      <point x="502.46666666666664" y="0.0" type="line"/>
      <point x="502.46666666666664" y="730.0" type="line"/>
      <point x="423.1333333333333" y="730.0" type="line"/>
      <point x="423.1333333333333" y="413.73333333333335" type="line"/>
      <point x="176.86666666666667" y="413.73333333333335" type="line"/>
      <point x="176.86666666666667" y="730.0" type="line"/>
      <point x="97.53333333333333" y="730.0" type="line"/>
    </contour>
  </outline>
</glyph>
<glyph name="I" format="2">
  <advance width="600.0"/>
  <unicode hex="0049"/>
  <anchor x="300.0" y="0.0" name="bottom"/>
  <anchor x="320.0" y="0.0" name="ogonek"/>
  <anchor x="300.0" y="730.0" name="top"/>
  <anchor x="20.0" y="730.0" name="topleft"/>
  <outline>
    <contour>
      <point x="109.0" y="0.0" type="line"/>
      <point x="491.0" y="0.0" type="line"/>
      <point x="491.0" y="72.4" type="line"/>
      <point x="340.6666666666667" y="72.4" type="line"/>
      <point x="340.6666666666667" y="657.6" type="line"/>
      <point x="491.0" y="657.6" type="line"/>
      <point x="491.0" y="730.0" type="line"/>
      <point x="109.0" y="730.0" type="line"/>
      <point x="109.0" y="657.6" type="line"/>
      <point x="259.8666666666667" y="657.6" type="line"/>
      <point x="259.8666666666667" y="72.4" type="line"/>
      <point x="109.0" y="72.4" type="line"/>
    </contour>
  </outline>
</glyph>
<glyph name="J" format="2">
  <advance width="600.0"/>
  <unicode hex="004A"/>
  <anchor x="300.0" y="0.0" name="bottom"/>
  <anchor x="360.0" y="730.0" name="top"/>
  <outline>
    <contour>
      <point x="271.3333333333333" y="-10.0" type="curve" smooth="yes"/>
      <point x="407.1333333333333" y="-10.0"/>
      <point x="491.0" y="72.66666666666667"/>
      <point x="491.0" y="207.06666666666666" type="curve" smooth="yes"/>
      <point x="491.0" y="730.0" type="line"/>
      <point x="200.8" y="730.0" type="line"/>
      <point x="200.8" y="657.3333333333334" type="line"/>
      <point x="411.6666666666667" y="657.3333333333334" type="line"/>
      <point x="411.6666666666667" y="207.06666666666666" type="line" smooth="yes"/>
      <point x="411.6666666666667" y="114.86666666666667"/>
      <point x="359.26666666666665" y="60.666666666666664"/>
      <point x="271.3333333333333" y="60.666666666666664" type="curve" smooth="yes"/>
      <point x="183.4" y="60.666666666666664"/>
      <point x="131.0" y="114.6"/>
      <point x="131.0" y="207.33333333333334" type="curve"/>
      <point x="51.666666666666664" y="207.33333333333334" type="line"/>
      <point x="51.666666666666664" y="72.66853333333333"/>
      <point x="134.53333333333333" y="-10.0"/>
    </contour>
  </outline>
</glyph>
<glyph name="K" format="2">
  <advance width="600.0"/>
  <unicode hex="004B"/>
  <anchor x="300.0" y="0.0" name="bottom"/>
  <anchor x="300.0" y="730.0" name="top"/>
  <outline>
    <contour>
      <point x="96.8" y="0.0" type="line"/>
      <point x="176.13333333333333" y="0.0" type="line"/>
      <point x="176.13333333333333" y="342.8" type="line"/>
      <point x="293.6666666666667" y="342.8" type="line"/>
      <point x="463.4" y="0.0" type="line"/>
      <point x="554.6666666666666" y="0.0" type="line"/>
      <point x="366.06666666666666" y="379.53333333333336" type="line"/>
      <point x="544.6666666666666" y="730.0" type="line"/>
      <point x="458.1333333333333" y="730.0" type="line"/>
      <point x="296.1333333333333" y="412.73333333333335" type="line"/>
      <point x="176.13333333333333" y="412.73333333333335" type="line"/>
      <point x="176.13333333333333" y="730.0" type="line"/>
      <point x="96.8" y="730.0" type="line"/>
    </contour>
  </outline>
</glyph>
<glyph name="L" format="2">
  <advance width="600.0"/>
  <unicode hex="004C"/>
  <anchor x="340.0" y="0.0" name="bottom"/>
  <anchor x="300.0" y="365.0" name="center"/>
  <anchor x="172.6" y="730.0" name="top"/>
  <anchor x="580.0" y="730.0" name="topright"/>
  <outline>
    <contour>
      <point x="132.66666666666666" y="0.0" type="line"/>
      <point x="548.6666666666666" y="0.0" type="line"/>
      <point x="548.6666666666666" y="72.4" type="line"/>
      <point x="212.0" y="72.4" type="line"/>
      <point x="212.0" y="730.0" type="line"/>
      <point x="132.66666666666666" y="730.0" type="line"/>
    </contour>
  </outline>
</glyph>
<glyph name="M" format="2">
  <advance width="600.0"/>
  <unicode hex="004D"/>
  <anchor x="300.0" y="0.0" name="bottom"/>
  <anchor x="300.0" y="730.0" name="top"/>
  <outline>
    <contour>
      <point x="80.26666666666667" y="0.0" type="line"/>
      <point x="157.86666666666667" y="0.0" type="line"/>
      <point x="157.86666666666667" y="370.3333333333333" type="line" smooth="yes"/>
      <point x="157.86666666666667" y="493.6"/>
      <point x="147.53333333333333" y="601.8666666666667"/>
      <point x="136.46666666666667" y="690.3333333333334" type="curve"/>
      <point x="261.26666666666665" y="321.3333333333333" type="line"/>
      <point x="339.0" y="321.3333333333333" type="line"/>
      <point x="462.53333333333336" y="690.3333333333334" type="line"/>
      <point x="451.73333333333335" y="598.9333333333333"/>
      <point x="442.1333333333333" y="484.06666666666666"/>
      <point x="442.1333333333333" y="370.3333333333333" type="curve" smooth="yes"/>
      <point x="442.1333333333333" y="0.0" type="line"/>
      <point x="519.7333333333333" y="0.0" type="line"/>
      <point x="519.7333333333333" y="730.0" type="line"/>
      <point x="413.46666666666664" y="730.0" type="line"/>
      <point x="332.26666666666665" y="483.0" type="line" smooth="yes"/>
      <point x="319.06666666666666" y="442.73333333333335"/>
      <point x="307.26666666666665" y="398.6"/>
      <point x="301.73333333333335" y="375.8666666666667" type="curve"/>
      <point x="296.2" y="398.6"/>
      <point x="284.4" y="443.0"/>
      <point x="271.2" y="482.26666666666665" type="curve" smooth="yes"/>
      <point x="186.8" y="730.0" type="line"/>
      <point x="80.26666666666667" y="730.0" type="line"/>
    </contour>
  </outline>
</glyph>
<glyph name="N" format="2">
  <advance width="600.0"/>
  <unicode hex="004E"/>
  <anchor x="300.0" y="0.0" name="bottom"/>
  <anchor x="300.0" y="730.0" name="top"/>
  <outline>
    <contour>
      <point x="95.33333333333333" y="0.0" type="line"/>
      <point x="171.93333333333334" y="0.0" type="line"/>
      <point x="171.93333333333334" y="450.0" type="line" smooth="yes"/>
      <point x="171.93333333333334" y="517.1333333333333"/>
      <point x="168.0" y="597.3333333333334"/>
      <point x="164.8" y="638.3333333333334" type="curve"/>
      <point x="398.26666666666665" y="0.0" type="line"/>
      <point x="504.6666666666667" y="0.0" type="line"/>
      <point x="504.6666666666667" y="730.0" type="line"/>
      <point x="428.06666666666666" y="730.0" type="line"/>
      <point x="428.06666666666666" y="280.0" type="line" smooth="yes"/>
      <point x="428.06666666666666" y="222.46666666666667"/>
      <point x="433.0" y="138.26666666666668"/>
      <point x="436.46666666666664" y="91.66666666666667" type="curve"/>
      <point x="201.46666666666667" y="730.0" type="line"/>
      <point x="95.33333333333333" y="730.0" type="line"/>
    </contour>
  </outline>
</glyph>
<glyph name="O" format="2">
  <advance width="600.0"/>
  <unicode hex="004F"/>
  <anchor x="300.0" y="0.0" name="bottom"/>
  <anchor x="300.0" y="365.0" name="center"/>
  <anchor x="320.0" y="700.0" name="horn"/>
  <anchor x="351.3333333333333" y="0.0" name="ogonek"/>
  <anchor x="300.0" y="730.0" name="top"/>
  <anchor x="20.0" y="730.0" name="topleft"/>
  <anchor x="580.0" y="730.0" name="topright"/>
  <outline>
    <contour>
      <point x="300.0" y="-10.0" type="curve" smooth="yes"/>
      <point x="427.8" y="-10.0"/>
      <point x="507.46666666666664" y="68.73333333333333"/>
      <point x="507.46666666666664" y="197.33333333333334" type="curve" smooth="yes"/>
      <point x="507.46666666666664" y="533.4" type="line" smooth="yes"/>
      <point x="507.46666666666664" y="661.0"/>
      <point x="427.53333333333336" y="740.0"/>
      <point x="300.0" y="740.0" type="curve" smooth="yes"/>
      <point x="172.46666666666667" y="740.0"/>
      <point x="92.53333333333333" y="661.0"/>
      <point x="92.53333333333333" y="532.6666666666666" type="curve" smooth="yes"/>
      <point x="92.53333333333333" y="197.33333333333334" type="line" smooth="yes"/>
      <point x="92.53333333333333" y="68.73333333333333"/>
      <point x="172.46666666666667" y="-10.0"/>
    </contour>
    <contour>
      <point x="300.0" y="61.13333333333333" type="curve" smooth="yes"/>
      <point x="218.26666666666668" y="61.13333333333333"/>
      <point x="171.86666666666667" y="110.06666666666666"/>
      <point x="171.86666666666667" y="197.33333333333334" type="curve" smooth="yes"/>
      <point x="171.86666666666667" y="532.6666666666666" type="line" smooth="yes"/>
      <point x="171.86666666666667" y="619.6666666666666"/>
      <point x="218.53333333333333" y="668.8666666666667"/>
      <point x="300.0" y="668.8666666666667" type="curve" smooth="yes"/>
      <point x="381.46666666666664" y="668.8666666666667"/>
      <point x="428.1333333333333" y="619.6666666666666"/>
      <point x="428.1333333333333" y="532.6666666666666" type="curve" smooth="yes"/>
      <point x="428.1333333333333" y="197.33333333333334" type="line" smooth="yes"/>
      <point x="428.1333333333333" y="110.06666666666666"/>
      <point x="381.73333333333335" y="61.13333333333333"/>
    </contour>
  </outline>
</glyph>
<glyph name="P" format="2">
  <advance width="600.0"/>
  <unicode hex="0050"/>
  <anchor x="300.0" y="0.0" name="bottom"/>
  <anchor x="300.0" y="730.0" name="top"/>
  <outline>
    <contour>
      <point x="96.8" y="0.0" type="line"/>
      <point x="176.13333333333333" y="0.0" type="line"/>
      <point x="176.13333333333333" y="306.4" type="line"/>
      <point x="326.46666666666664" y="306.4" type="line" smooth="yes"/>
      <point x="460.06666666666666" y="306.4"/>
      <point x="546.0" y="389.3333333333333"/>
      <point x="546.0" y="518.2" type="curve" smooth="yes"/>
      <point x="546.0" y="647.0666666666667"/>
      <point x="460.3333333333333" y="730.0"/>
      <point x="326.46666666666664" y="730.0" type="curve" smooth="yes"/>
      <point x="96.8" y="730.0" type="line"/>
    </contour>
    <contour>
      <point x="176.13333333333333" y="378.06666666666666" type="line"/>
      <point x="176.13333333333333" y="658.3333333333334" type="line"/>
      <point x="326.46666666666664" y="658.3333333333334" type="line" smooth="yes"/>
      <point x="410.53333333333336" y="658.3333333333334"/>
      <point x="464.46666666666664" y="604.2"/>
      <point x="464.46666666666664" y="518.2" type="curve" smooth="yes"/>
      <point x="464.46666666666664" y="432.46666666666664"/>
      <point x="410.26666666666665" y="378.06666666666666"/>
      <point x="326.46666666666664" y="378.06666666666666" type="curve" smooth="yes"/>
    </contour>
  </outline>
</glyph>
<glyph name="Q" format="2">
  <advance width="600.0"/>
  <unicode hex="0051"/>
  <anchor x="300.0" y="0.0" name="bottom"/>
  <anchor x="300.0" y="730.0" name="top"/>
  <outline>
    <contour>
      <point x="429.2" y="-180.0" type="line"/>
      <point x="521.7333333333333" y="-180.0" type="line"/>
      <point x="405.26666666666665" y="12.2" type="line"/>
      <point x="473.6666666666667" y="44.4"/>
      <point x="513.3333333333334" y="112.6"/>
      <point x="513.3333333333334" y="201.0" type="curve" smooth="yes"/>
      <point x="513.3333333333334" y="529.0" type="line" smooth="yes"/>
      <point x="513.3333333333334" y="656.0"/>
      <point x="431.0" y="740.0"/>
      <point x="300.26666666666665" y="740.0" type="curve" smooth="yes"/>
      <point x="169.26666666666668" y="740.0"/>
      <point x="86.66666666666667" y="657.6"/>
      <point x="86.66666666666667" y="529.0" type="curve" smooth="yes"/>
      <point x="86.66666666666667" y="201.0" type="line" smooth="yes"/>
      <point x="86.66666666666667" y="72.66666666666667"/>
      <point x="169.53333333333333" y="-10.0"/>
      <point x="300.26666666666665" y="-10.0" type="curve" smooth="yes"/>
      <point x="312.93333333333334" y="-10.0"/>
      <point x="326.1333333333333" y="-8.466666666666667"/>
      <point x="332.73333333333335" y="-7.933333333333334" type="curve"/>
      <point x="321.4" y="-2.2" type="line"/>
    </contour>
    <contour>
      <point x="300.26666666666665" y="60.666666666666664" type="curve" smooth="yes"/>
      <point x="217.8" y="60.666666666666664"/>
      <point x="166.0" y="114.73333333333333"/>
      <point x="166.0" y="201.0" type="curve" smooth="yes"/>
      <point x="166.0" y="529.0" type="line" smooth="yes"/>
      <point x="166.0" y="615.2666666666667"/>
      <point x="217.8" y="669.3333333333334"/>
      <point x="300.26666666666665" y="669.3333333333334" type="curve" smooth="yes"/>
      <point x="382.2" y="669.3333333333334"/>
      <point x="434.0" y="615.0"/>
      <point x="434.0" y="529.0" type="curve" smooth="yes"/>
      <point x="434.0" y="201.0" type="line" smooth="yes"/>
      <point x="434.0" y="114.73333333333333"/>
      <point x="382.46666666666664" y="60.666666666666664"/>
    </contour>
  </outline>
</glyph>
<glyph name="R" format="2">
  <advance width="600.0"/>
  <unicode hex="0052"/>
  <anchor x="300.0" y="0.0" name="bottom"/>
  <anchor x="300.0" y="730.0" name="top"/>
  <outline>
    <contour>
      <point x="96.8" y="0.0" type="line"/>
      <point x="176.13333333333333" y="0.0" type="line"/>
      <point x="176.13333333333333" y="315.3333333333333" type="line"/>
      <point x="300.6" y="315.3333333333333" type="line"/>
      <point x="447.26666666666665" y="0.0" type="line"/>
      <point x="541.0" y="0.0" type="line"/>
      <point x="383.2" y="323.2" type="line"/>
      <point x="474.93333333333334" y="347.0"/>
      <point x="532.3333333333334" y="421.26666666666665"/>
      <point x="532.3333333333334" y="522.1333333333333" type="curve" smooth="yes"/>
      <point x="532.3333333333334" y="646.8666666666667"/>
      <point x="446.93333333333334" y="730.0"/>
      <point x="317.2" y="730.0" type="curve" smooth="yes"/>
      <point x="96.8" y="730.0" type="line"/>
    </contour>
    <contour>
      <point x="176.13333333333333" y="386.73333333333335" type="line"/>
      <point x="176.13333333333333" y="658.3333333333334" type="line"/>
      <point x="317.2" y="658.3333333333334" type="line" smooth="yes"/>
      <point x="397.3333333333333" y="658.3333333333334"/>
      <point x="450.8" y="604.9333333333333"/>
      <point x="450.8" y="522.6666666666666" type="curve" smooth="yes"/>
      <point x="450.8" y="440.4"/>
      <point x="398.06666666666666" y="386.73333333333335"/>
      <point x="317.2" y="386.73333333333335" type="curve" smooth="yes"/>
    </contour>
  </outline>
</glyph>
<glyph name="S" format="2">
  <advance width="600.0"/>
  <unicode hex="0053"/>
  <anchor x="300.0" y="0.0" name="bottom"/>
  <anchor x="300.0" y="730.0" name="top"/>
  <outline>
    <contour>
      <point x="304.26666666666665" y="-10.0" type="curve" smooth="yes"/>
      <point x="438.4" y="-10.0"/>
      <point x="524.5333333333333" y="67.66666666666667"/>
      <point x="524.5333333333333" y="188.8" type="curve" smooth="yes"/>
      <point x="524.5333333333333" y="287.0"/>
      <point x="465.46666666666664" y="365.73333333333335"/>
      <point x="371.6" y="396.0" type="curve" smooth="yes"/>
      <point x="267.06666666666666" y="429.3333333333333" type="line" smooth="yes"/>
      <point x="208.53333333333333" y="447.6666666666667"/>
      <point x="173.33333333333334" y="492.46666666666664"/>
      <point x="173.33333333333334" y="551.2666666666667" type="curve" smooth="yes"/>
      <point x="173.33333333333334" y="623.0"/>
      <point x="225.2" y="669.3333333333334"/>
      <point x="305.73333333333335" y="669.3333333333334" type="curve" smooth="yes"/>
      <point x="385.0" y="669.3333333333334"/>
      <point x="435.93333333333334" y="620.8666666666667"/>
      <point x="435.93333333333334" y="545.8" type="curve"/>
      <point x="515.2666666666667" y="545.8" type="line"/>
      <point x="515.2666666666667" y="664.5333333333333"/>
      <point x="433.1333333333333" y="740.0"/>
      <point x="306.0" y="740.0" type="curve" smooth="yes"/>
      <point x="177.86666666666667" y="740.0"/>
      <point x="95.46666666666667" y="665.6"/>
      <point x="95.46666666666667" y="548.7333333333333" type="curve" smooth="yes"/>
      <point x="95.46666666666667" y="454.46666666666664"/>
      <point x="153.2" y="381.0"/>
      <point x="250.66666666666666" y="350.53333333333336" type="curve" smooth="yes"/>
      <point x="352.26666666666665" y="318.93333333333334" type="line" smooth="yes"/>
      <point x="410.6666666666667" y="301.06666666666666"/>
      <point x="446.6666666666667" y="250.33333333333334"/>
      <point x="446.6666666666667" y="188.0" type="curve" smooth="yes"/>
      <point x="446.6666666666667" y="110.73333333333333"/>
      <point x="391.8" y="60.666666666666664"/>
      <point x="304.26666666666665" y="60.666666666666664" type="curve" smooth="yes"/>
      <point x="213.73333333333332" y="60.666666666666664"/>
      <point x="154.8" y="112.33333333333333"/>
      <point x="154.8" y="190.13333333333333" type="curve"/>
      <point x="75.46666666666667" y="190.13333333333333" type="line"/>
      <point x="75.46666666666667" y="68.2"/>
      <point x="164.86666666666667" y="-10.0"/>
    </contour>
  </outline>
</glyph>
<glyph name="T" format="2">
  <advance width="600.0"/>
  <unicode hex="0054"/>
  <anchor x="300.0" y="0.0" name="bottom"/>
  <anchor x="300.0" y="365.0" name="center"/>
  <anchor x="300.0" y="730.0" name="top"/>
  <outline>
    <contour>
      <point x="260.6" y="0.0" type="line"/>
      <point x="339.93333333333334" y="0.0" type="line"/>
      <point x="339.93333333333334" y="657.8666666666667" type="line"/>
      <point x="543.6666666666666" y="657.8666666666667" type="line"/>
      <point x="543.6666666666666" y="730.0" type="line"/>
      <point x="56.333333333333336" y="730.0" type="line"/>
      <point x="56.333333333333336" y="657.8666666666667" type="line"/>
      <point x="260.6" y="657.8666666666667" type="line"/>
    </contour>
  </outline>
</glyph>
<glyph name="U" format="2">
  <advance width="600.0"/>
  <unicode hex="0055"/>
  <anchor x="300.0" y="0.0" name="bottom"/>
  <anchor x="386.8666666666667" y="730.0" name="horn"/>
  <anchor x="351.3333333333333" y="0.0" name="ogonek"/>
  <anchor x="300.0" y="730.0" name="top"/>
  <anchor x="580.0" y="730.0" name="topright"/>
  <outline>
    <contour>
      <point x="300.26666666666665" y="-10.0" type="curve" smooth="yes"/>
      <point x="431.6666666666667" y="-10.0"/>
      <point x="505.2" y="69.0"/>
      <point x="505.2" y="197.33333333333334" type="curve" smooth="yes"/>
      <point x="505.2" y="730.0" type="line"/>
      <point x="425.8666666666667" y="730.0" type="line"/>
      <point x="425.8666666666667" y="197.33333333333334" type="line" smooth="yes"/>
      <point x="425.8666666666667" y="112.8"/>
      <point x="382.6666666666667" y="60.666666666666664"/>
      <point x="300.26666666666665" y="60.666666666666664" type="curve" smooth="yes"/>
      <point x="216.86666666666667" y="60.666666666666664"/>
      <point x="174.13333333333333" y="112.53333333333333"/>
      <point x="174.13333333333333" y="197.33333333333334" type="curve" smooth="yes"/>
      <point x="174.13333333333333" y="730.0" type="line"/>
      <point x="94.8" y="730.0" type="line"/>
      <point x="94.8" y="197.33333333333334" type="line" smooth="yes"/>
      <point x="94.8" y="69.73333333333333"/>
      <point x="169.33333333333334" y="-10.0"/>
    </contour>
  </outline>
</glyph>
<glyph name="V" format="2">
  <advance width="600.0"/>
  <unicode hex="0056"/>
  <anchor x="300.0" y="0.0" name="bottom"/>
  <anchor x="300.0" y="730.0" name="top"/>
  <outline>
    <contour>
      <point x="246.0" y="0.0" type="line"/>
      <point x="353.26666666666665" y="0.0" type="line"/>
      <point x="545.2" y="730.0" type="line"/>
      <point x="463.93333333333334" y="730.0" type="line"/>
      <point x="336.2" y="219.6" type="line" smooth="yes"/>
      <point x="319.46666666666664" y="153.53333333333333"/>
      <point x="306.0" y="90.93333333333334"/>
      <point x="301.0" y="62.0" type="curve"/>
      <point x="296.0" y="90.93333333333334"/>
      <point x="284.26666666666665" y="152.8"/>
      <point x="267.53333333333336" y="218.86666666666667" type="curve" smooth="yes"/>
      <point x="136.4" y="730.0" type="line"/>
      <point x="54.8" y="730.0" type="line"/>
    </contour>
  </outline>
</glyph>
<glyph name="W" format="2">
  <advance width="600.0"/>
  <unicode hex="0057"/>
  <anchor x="300.0" y="0.0" name="bottom"/>
  <anchor x="300.0" y="730.0" name="top"/>
  <outline>
    <contour>
      <point x="114.6" y="0.0" type="line"/>
      <point x="216.13333333333333" y="0.0" type="line"/>
      <point x="286.6" y="544.6666666666666" type="line" smooth="yes"/>
      <point x="292.1333333333333" y="591.5333333333333"/>
      <point x="298.46666666666664" y="645.4"/>
      <point x="302.26666666666665" y="673.1333333333333" type="curve"/>
      <point x="305.06666666666666" y="645.1333333333333"/>
      <point x="311.1333333333333" y="591.2666666666667"/>
      <point x="316.6666666666667" y="544.6666666666666" type="curve" smooth="yes"/>
      <point x="381.6" y="0.0" type="line"/>
      <point x="483.6666666666667" y="0.0" type="line"/>
      <point x="571.0" y="730.0" type="line"/>
      <point x="498.3333333333333" y="730.0" type="line"/>
      <point x="440.0" y="190.0" type="line" smooth="yes"/>
      <point x="435.26666666666665" y="148.13333333333333"/>
      <point x="429.4" y="89.53333333333333"/>
      <point x="426.3333333333333" y="57.0" type="curve"/>
      <point x="422.53333333333336" y="89.53333333333333"/>
      <point x="415.46666666666664" y="148.13333333333333"/>
      <point x="410.46666666666664" y="190.0" type="curve" smooth="yes"/>
      <point x="345.26666666666665" y="730.0" type="line"/>
      <point x="260.0" y="730.0" type="line"/>
      <point x="189.6" y="190.0" type="line" smooth="yes"/>
      <point x="183.86666666666667" y="148.13333333333333"/>
      <point x="178.0" y="89.53333333333333"/>
      <point x="174.2" y="57.0" type="curve"/>
      <point x="172.13333333333333" y="89.53333333333333"/>
      <point x="166.8" y="148.13333333333333"/>
      <point x="162.8" y="190.0" type="curve" smooth="yes"/>
      <point x="104.33333333333333" y="730.0" type="line"/>
      <point x="29.0" y="730.0" type="line"/>
    </contour>
  </outline>
</glyph>
<glyph name="X" format="2">
  <advance width="600.0"/>
  <unicode hex="0058"/>
  <anchor x="300.0" y="0.0" name="bottom"/>
  <anchor x="300.0" y="730.0" name="top"/>
  <outline>
    <contour>
      <point x="43.46666666666667" y="0.0" type="line"/>
      <point x="131.46666666666667" y="0.0" type="line"/>
      <point x="261.2" y="238.06666666666666" type="line" smooth="yes"/>
      <point x="273.2" y="259.8"/>
      <point x="290.1333333333333" y="292.8"/>
      <point x="299.53333333333336" y="312.0" type="curve"/>
      <point x="308.93333333333334" y="292.8"/>
      <point x="326.1333333333333" y="259.8"/>
      <point x="338.1333333333333" y="237.33333333333334" type="curve" smooth="yes"/>
      <point x="466.06666666666666" y="0.0" type="line"/>
      <point x="556.5333333333333" y="0.0" type="line"/>
      <point x="344.6666666666667" y="377.6" type="line"/>
      <point x="544.4666666666667" y="730.0" type="line"/>
      <point x="457.46666666666664" y="730.0" type="line"/>
      <point x="340.06666666666666" y="512.4" type="line" smooth="yes"/>
      <point x="327.8" y="489.4"/>
      <point x="310.6" y="456.4"/>
      <point x="301.46666666666664" y="438.46666666666664" type="curve"/>
      <point x="291.3333333333333" y="456.6666666666667"/>
      <point x="274.1333333333333" y="489.4"/>
      <point x="262.1333333333333" y="512.4" type="curve" smooth="yes"/>
      <point x="146.73333333333335" y="730.0" type="line"/>
      <point x="55.53333333333333" y="730.0" type="line"/>
      <point x="255.33333333333334" y="372.6666666666667" type="line"/>
    </contour>
  </outline>
</glyph>
<glyph name="Y" format="2">
  <advance width="600.0"/>
  <unicode hex="0059"/>
  <anchor x="300.0" y="0.0" name="bottom"/>
  <anchor x="300.0" y="730.0" name="top"/>
  <anchor x="20.0" y="730.0" name="topleft"/>
  <outline>
    <contour>
      <point x="260.3333333333333" y="0.0" type="line"/>
      <point x="339.6666666666667" y="0.0" type="line"/>
      <point x="339.6666666666667" y="274.8666666666667" type="line"/>
      <point x="561.0" y="730.0" type="line"/>
      <point x="478.93333333333334" y="730.0" type="line"/>
      <point x="331.3333333333333" y="422.0" type="line" smooth="yes"/>
      <point x="315.6" y="389.8"/>
      <point x="304.8" y="364.0"/>
      <point x="301.0" y="353.46666666666664" type="curve"/>
      <point x="297.2" y="364.26666666666665"/>
      <point x="286.8666666666667" y="390.06666666666666"/>
      <point x="271.4" y="422.0" type="curve" smooth="yes"/>
      <point x="121.06666666666666" y="730.0" type="line"/>
      <point x="39.0" y="730.0" type="line"/>
      <point x="260.3333333333333" y="274.8666666666667" type="line"/>
    </contour>
  </outline>
</glyph>
<glyph name="Z" format="2">
  <advance width="600.0"/>
  <unicode hex="005A"/>
  <anchor x="300.0" y="0.0" name="bottom"/>
  <anchor x="300.0" y="365.0" name="center"/>
  <anchor x="300.0" y="730.0" name="top"/>
  <outline>
    <contour>
      <point x="86.33333333333333" y="0.0" type="line"/>
      <point x="513.6666666666666" y="0.0" type="line"/>
      <point x="513.6666666666666" y="72.4" type="line"/>
      <point x="166.66666666666666" y="72.4" type="line"/>
      <point x="502.8666666666667" y="648.8" type="line"/>
      <point x="502.8666666666667" y="730.0" type="line"/>
      <point x="91.06666666666666" y="730.0" type="line"/>
      <point x="91.06666666666666" y="657.6" type="line"/>
      <point x="423.3333333333333" y="657.6" type="line"/>
      <point x="86.33333333333333" y="79.33333333333333" type="line"/>
    </contour>
  </outline>
</glyph>
<glyph name="backslash" format="2">
  <advance width="600.0"/>
  <unicode hex="005C"/>
  <outline>
    <contour>
      <point x="435.6" y="-110.0" type="line"/>
      <point x="519.6666666666666" y="-110.0" type="line"/>
      <point x="164.4" y="830.0" type="line"/>
      <point x="80.33333333333333" y="830.0" type="line"/>
    </contour>
  </outline>
</glyph>
<glyph name="bracketright" format="2">
  <advance width="600.0"/>
  <unicode hex="005D"/>
  <outline>
    <contour>
      <point x="151.33333333333334" y="-110.0" type="line"/>
      <point x="391.0" y="-110.0" type="line"/>
      <point x="391.0" y="830.0" type="line"/>
      <point x="151.33333333333334" y="830.0" type="line"/>
      <point x="151.33333333333334" y="759.3333333333334" type="line"/>
      <point x="311.6666666666667" y="759.3333333333334" type="line"/>
      <point x="311.6666666666667" y="-39.333333333333336" type="line"/>
      <point x="151.33333333333334" y="-39.333333333333336" type="line"/>
    </contour>
  </outline>
</glyph>
<glyph name="asciicircum" format="2">
  <advance width="600.0"/>
  <unicode hex="005E"/>
  <outline>
    <contour>
      <point x="85.33333333333333" y="340.0" type="line"/>
      <point x="160.2" y="340.0" type="line"/>
      <point x="274.93333333333334" y="598.5333333333333" type="line" smooth="yes"/>
      <point x="286.6666666666667" y="624.5333333333333"/>
      <point x="297.46666666666664" y="653.4"/>
      <point x="302.73333333333335" y="668.4666666666667" type="curve"/>
      <point x="307.26666666666665" y="653.4"/>
      <point x="317.3333333333333" y="624.5333333333333"/>
      <point x="328.3333333333333" y="598.5333333333333" type="curve" smooth="yes"/>
      <point x="440.06666666666666" y="340.0" type="line"/>
      <point x="514.6666666666666" y="340.0" type="line"/>
      <point x="339.26666666666665" y="730.0" type="line"/>
      <point x="263.53333333333336" y="730.0" type="line"/>
    </contour>
  </outline>
</glyph>
<glyph name="a" format="2">
  <advance width="600.0"/>
  <unicode hex="0061"/>
  <anchor x="305.0" y="0.0" name="bottom"/>
  <anchor x="463.6666666666667" y="0.0" name="ogonek"/>
  <anchor x="305.0" y="550.0" name="top"/>
  <outline>
    <contour>
      <point x="256.53333333333336" y="-10.0" type="curve" smooth="yes"/>
      <point x="360.8666666666667" y="-10.0"/>
      <point x="429.2" y="41.86666666666667"/>
      <point x="429.2" y="123.2" type="curve"/>
      <point x="413.93333333333334" y="106.86666666666666" type="line"/>
      <point x="427.3333333333333" y="106.86666666666666" type="line"/>
      <point x="427.3333333333333" y="0.0" type="line"/>
      <point x="505.2" y="0.0" type="line"/>
      <point x="505.2" y="377.2" type="line" smooth="yes"/>
      <point x="505.2" y="488.93333333333334"/>
      <point x="427.0" y="560.0"/>
      <point x="304.46666666666664" y="560.0" type="curve" smooth="yes"/>
      <point x="192.4" y="560.0"/>
      <point x="108.8" y="496.53333333333336"/>
      <point x="97.26666666666667" y="405.0" type="curve"/>
      <point x="176.6" y="405.0" type="line"/>
      <point x="184.66666666666666" y="451.46666666666664"/>
      <point x="232.2" y="490.06666666666666"/>
      <point x="302.26666666666665" y="490.06666666666666" type="curve" smooth="yes"/>
      <point x="378.53333333333336" y="490.06666666666666"/>
      <point x="425.8666666666667" y="447.6"/>
      <point x="425.8666666666667" y="375.0" type="curve" smooth="yes"/>
      <point x="425.8666666666667" y="317.3333333333333" type="line"/>
      <point x="250.8" y="317.3333333333333" type="line" smooth="yes"/>
      <point x="140.46666666666667" y="317.3333333333333"/>
      <point x="69.53333333333333" y="254.6"/>
      <point x="69.53333333333333" y="154.73333333333332" type="curve" smooth="yes"/>
      <point x="69.53333333333333" y="53.53333333333333"/>
      <point x="141.33333333333334" y="-10.0"/>
    </contour>
    <contour>
      <point x="276.4" y="53.8" type="curve" smooth="yes"/>
      <point x="197.13333333333333" y="53.8"/>
      <point x="148.86666666666667" y="94.26666666666667"/>
      <point x="148.86666666666667" y="159.46666666666667" type="curve" smooth="yes"/>
      <point x="148.86666666666667" y="218.6"/>
      <point x="188.8" y="256.46666666666664"/>
      <point x="252.0" y="256.46666666666664" type="curve" smooth="yes"/>
      <point x="425.8666666666667" y="256.46666666666664" type="line"/>
      <point x="425.8666666666667" y="172.86666666666667" type="line" smooth="yes"/>
      <point x="425.8666666666667" y="102.66666666666667"/>
      <point x="364.06666666666666" y="53.8"/>
    </contour>
  </outline>
</glyph>
<glyph name="b" format="2">
  <advance width="600.0"/>
  <unicode hex="0062"/>
  <anchor x="300.0" y="0.0" name="bottom"/>
  <anchor x="300.0" y="730.0" name="top"/>
  <outline>
    <contour>
      <point x="326.93333333333334" y="-10.0" type="curve" smooth="yes"/>
      <point x="436.93333333333334" y="-10.0"/>
      <point x="509.6666666666667" y="68.26666666666667"/>
      <point x="509.6666666666667" y="192.66666666666666" type="curve" smooth="yes"/>
      <point x="509.6666666666667" y="356.3333333333333" type="line" smooth="yes"/>
      <point x="509.6666666666667" y="481.46666666666664"/>
      <point x="437.6666666666667" y="560.0"/>
      <point x="326.93333333333334" y="560.0" type="curve" smooth="yes"/>
      <point x="235.33333333333334" y="560.0"/>
      <point x="173.46666666666667" y="505.4"/>
      <point x="173.46666666666667" y="420.26666666666665" type="curve"/>
      <point x="194.13333333333333" y="453.0" type="line"/>
      <point x="174.66666666666666" y="453.0" type="line"/>
      <point x="176.13333333333333" y="572.6666666666666" type="line"/>
      <point x="176.13333333333333" y="730.0" type="line"/>
      <point x="96.8" y="730.0" type="line"/>
      <point x="96.8" y="0.0" type="line"/>
      <point x="176.13333333333333" y="0.0" type="line"/>
      <point x="176.13333333333333" y="97.0" type="line"/>
      <point x="196.8" y="97.0" type="line"/>
      <point x="173.46666666666667" y="129.73333333333332" type="line"/>
      <point x="173.46666666666667" y="43.86666666666667"/>
      <point x="234.6" y="-10.0"/>
    </contour>
    <contour>
      <point x="302.26666666666665" y="58.666666666666664" type="curve" smooth="yes"/>
      <point x="224.0" y="58.666666666666664"/>
      <point x="176.13333333333333" y="110.06666666666666"/>
      <point x="176.13333333333333" y="197.06666666666666" type="curve" smooth="yes"/>
      <point x="176.13333333333333" y="352.6666666666667" type="line" smooth="yes"/>
      <point x="176.13333333333333" y="439.6666666666667"/>
      <point x="223.73333333333332" y="491.3333333333333"/>
      <point x="302.26666666666665" y="491.3333333333333" type="curve" smooth="yes"/>
      <point x="381.73333333333335" y="491.3333333333333"/>
      <point x="430.3333333333333" y="441.1333333333333"/>
      <point x="430.3333333333333" y="352.6666666666667" type="curve" smooth="yes"/>
      <point x="430.3333333333333" y="197.06666666666666" type="line" smooth="yes"/>
      <point x="430.3333333333333" y="108.6"/>
      <point x="381.73333333333335" y="58.666666666666664"/>
    </contour>
  </outline>
</glyph>
<glyph name="c" format="2">
  <advance width="600.0"/>
  <unicode hex="0063"/>
  <anchor x="303.46666666666664" y="0.0" name="bottom"/>
  <anchor x="303.46666666666664" y="550.0" name="top"/>
  <outline>
    <contour>
      <point x="303.46666666666664" y="-10.0" type="curve" smooth="yes"/>
      <point x="428.8666666666667" y="-10.0"/>
      <point x="510.26666666666665" y="63.266666666666666"/>
      <point x="513.2" y="180.0" type="curve"/>
      <point x="433.8666666666667" y="180.0" type="line"/>
      <point x="430.93333333333334" y="104.66666666666667"/>
      <point x="382.26666666666665" y="60.93333333333334"/>
      <point x="303.46666666666664" y="60.93333333333334" type="curve" smooth="yes"/>
      <point x="221.26666666666668" y="60.93333333333334"/>
      <point x="169.66666666666666" y="110.86666666666667"/>
      <point x="169.66666666666666" y="197.33333333333334" type="curve" smooth="yes"/>
      <point x="169.66666666666666" y="353.4" type="line" smooth="yes"/>
      <point x="169.66666666666666" y="439.4"/>
      <point x="221.26666666666668" y="489.06666666666666"/>
      <point x="303.46666666666664" y="489.06666666666666" type="curve" smooth="yes"/>
      <point x="382.26666666666665" y="489.06666666666666"/>
      <point x="430.93333333333334" y="445.3333333333333"/>
      <point x="433.8666666666667" y="370.0" type="curve"/>
      <point x="513.2" y="370.0" type="line"/>
      <point x="510.26666666666665" y="486.73333333333335"/>
      <point x="428.8666666666667" y="560.0"/>
      <point x="303.46666666666664" y="560.0" type="curve" smooth="yes"/>
      <point x="173.93333333333334" y="560.0"/>
      <point x="90.33333333333333" y="481.0"/>
      <point x="90.33333333333333" y="352.6666666666667" type="curve" smooth="yes"/>
      <point x="90.33333333333333" y="197.33333333333334" type="line" smooth="yes"/>
      <point x="90.33333333333333" y="68.73333333333333"/>
      <point x="173.66666666666666" y="-10.0"/>
    </contour>
  </outline>
</glyph>
<glyph name="d" format="2">
  <advance width="600.0"/>
  <unicode hex="0064"/>
  <anchor x="300.0" y="0.0" name="bottom"/>
  <anchor x="300.0" y="275.0" name="center"/>
  <anchor x="300.0" y="730.0" name="top"/>
  <anchor x="580.0" y="550.0" name="topright"/>
  <outline>
    <contour>
      <point x="273.06666666666666" y="-10.0" type="curve" smooth="yes"/>
      <point x="365.4" y="-10.0"/>
      <point x="426.53333333333336" y="43.86666666666667"/>
      <point x="426.53333333333336" y="129.73333333333332" type="curve"/>
      <point x="403.2" y="97.0" type="line"/>
      <point x="423.8666666666667" y="97.0" type="line"/>
      <point x="423.8666666666667" y="0.0" type="line"/>
      <point x="503.2" y="0.0" type="line"/>
      <point x="503.2" y="730.0" type="line"/>
      <point x="423.8666666666667" y="730.0" type="line"/>
      <point x="423.8666666666667" y="572.6666666666666" type="line"/>
      <point x="425.3333333333333" y="453.0" type="line"/>
      <point x="405.8666666666667" y="453.0" type="line"/>
      <point x="426.53333333333336" y="420.26666666666665" type="line"/>
      <point x="426.53333333333336" y="505.4"/>
      <point x="364.6666666666667" y="560.0"/>
      <point x="273.06666666666666" y="560.0" type="curve" smooth="yes"/>
      <point x="162.33333333333334" y="560.0"/>
      <point x="90.33333333333333" y="481.46666666666664"/>
      <point x="90.33333333333333" y="356.3333333333333" type="curve" smooth="yes"/>
      <point x="90.33333333333333" y="192.66666666666666" type="line" smooth="yes"/>
      <point x="90.33333333333333" y="68.26666666666667"/>
      <point x="163.06666666666666" y="-10.0"/>
    </contour>
    <contour>
      <point x="297.73333333333335" y="58.666666666666664" type="curve" smooth="yes"/>
      <point x="218.26666666666668" y="58.666666666666664"/>
      <point x="169.66666666666666" y="108.6"/>
      <point x="169.66666666666666" y="197.06666666666666" type="curve" smooth="yes"/>
      <point x="169.66666666666666" y="352.6666666666667" type="line" smooth="yes"/>
      <point x="169.66666666666666" y="441.1333333333333"/>
      <point x="218.26666666666668" y="491.3333333333333"/>
      <point x="297.73333333333335" y="491.3333333333333" type="curve" smooth="yes"/>
      <point x="376.26666666666665" y="491.3333333333333"/>
      <point x="423.8666666666667" y="439.6666666666667"/>
      <point x="423.8666666666667" y="352.6666666666667" type="curve" smooth="yes"/>
      <point x="423.8666666666667" y="197.06666666666666" type="line" smooth="yes"/>
      <point x="423.8666666666667" y="110.06666666666666"/>
      <point x="376.0" y="58.666666666666664"/>
    </contour>
  </outline>
</glyph>
<glyph name="e" format="2">
  <advance width="600.0"/>
  <unicode hex="0065"/>
  <anchor x="300.0" y="0.0" name="bottom"/>
  <anchor x="351.3333333333333" y="0.0" name="ogonek"/>
  <anchor x="300.0" y="550.0" name="top"/>
  <outline>
    <contour>
      <point x="300.26666666666665" y="-10.0" type="curve" smooth="yes"/>
      <point x="412.8" y="-10.0"/>
      <point x="493.8" y="47.46666666666667"/>
      <point x="507.93333333333334" y="138.66666666666666" type="curve"/>
      <point x="428.6" y="138.66666666666666" type="line"/>
      <point x="416.2" y="85.93333333333334"/>
      <point x="370.6" y="57.46666666666667"/>
      <point x="300.26666666666665" y="57.46666666666667" type="curve" smooth="yes"/>
      <point x="215.33333333333334" y="57.46666666666667"/>
      <point x="168.2" y="107.93333333333334"/>
      <point x="168.2" y="197.33333333333334" type="curve" smooth="yes"/>
      <point x="168.2" y="256.2" type="line"/>
      <point x="509.6666666666667" y="256.2" type="line"/>
      <point x="509.6666666666667" y="352.6666666666667" type="line" smooth="yes"/>
      <point x="509.6666666666667" y="478.06666666666666"/>
      <point x="427.8666666666667" y="560.0"/>
      <point x="300.26666666666665" y="560.0" type="curve" smooth="yes"/>
      <point x="172.4" y="560.0"/>
      <point x="90.33333333333333" y="478.06666666666666"/>
      <point x="90.33333333333333" y="352.6666666666667" type="curve" smooth="yes"/>
      <point x="90.33333333333333" y="197.33333333333334" type="line" smooth="yes"/>
      <point x="90.33333333333333" y="71.66666666666667"/>
      <point x="172.13333333333333" y="-10.0"/>
    </contour>
    <contour>
      <point x="431.8" y="309.26666666666665" type="line"/>
      <point x="439.8666666666667" y="317.53333333333336" type="line"/>
      <point x="168.2" y="317.53333333333336" type="line"/>
      <point x="168.2" y="352.6666666666667" type="line" smooth="yes"/>
      <point x="168.2" y="442.3333333333333"/>
      <point x="215.06666666666666" y="493.26666666666665"/>
      <point x="300.26666666666665" y="493.26666666666665" type="curve" smooth="yes"/>
      <point x="384.93333333333334" y="493.26666666666665"/>
      <point x="431.8" y="442.06666666666666"/>
      <point x="431.8" y="352.6666666666667" type="curve" smooth="yes"/>
    </contour>
  </outline>
</glyph>
<glyph name="f" format="2">
  <advance width="600.0"/>
  <unicode hex="0066"/>
  <anchor x="300.0" y="0.0" name="bottom"/>
  <anchor x="300.0" y="730.0" name="top"/>
  <outline>
    <contour>
      <point x="225.33333333333334" y="0.0" type="line"/>
      <point x="304.6666666666667" y="0.0" type="line"/>
      <point x="304.6666666666667" y="422.6" type="line"/>
      <point x="531.8" y="422.6" type="line"/>
      <point x="531.8" y="494.73333333333335" type="line"/>
      <point x="304.6666666666667" y="494.73333333333335" type="line"/>
      <point x="304.6666666666667" y="594.0" type="line" smooth="yes"/>
      <point x="304.6666666666667" y="635.4666666666667"/>
      <point x="329.26666666666665" y="657.8666666666667"/>
      <point x="372.93333333333334" y="657.8666666666667" type="curve" smooth="yes"/>
      <point x="531.8" y="657.8666666666667" type="line"/>
      <point x="531.8" y="730.0" type="line"/>
      <point x="372.93333333333334" y="730.0" type="line" smooth="yes"/>
      <point x="280.93333333333334" y="730.0"/>
      <point x="225.33333333333334" y="678.6"/>
      <point x="225.33333333333334" y="594.0" type="curve" smooth="yes"/>
      <point x="225.33333333333334" y="494.73333333333335" type="line"/>
      <point x="62.666666666666664" y="494.73333333333335" type="line"/>
      <point x="62.666666666666664" y="422.6" type="line"/>
      <point x="225.33333333333334" y="422.6" type="line"/>
    </contour>
  </outline>
</glyph>
<glyph name="g" format="2">
  <advance width="600.0"/>
  <unicode hex="0067"/>
  <anchor x="300.0" y="-270.0" name="bottom"/>
  <anchor x="297.0" y="550.0" name="top"/>
  <outline>
    <contour>
      <point x="164.46666666666667" y="-180.0" type="line"/>
      <point x="330.73333333333335" y="-180.0" type="line" smooth="yes"/>
      <point x="439.8" y="-180.0"/>
      <point x="502.46666666666664" y="-120.33333333333333"/>
      <point x="502.46666666666664" y="-18.666666666666668" type="curve" smooth="yes"/>
      <point x="502.46666666666664" y="550.0" type="line"/>
      <point x="423.8666666666667" y="550.0" type="line"/>
      <point x="423.8666666666667" y="447.6666666666667" type="line"/>
      <point x="407.93333333333334" y="447.6666666666667" type="line"/>
      <point x="425.73333333333335" y="424.6666666666667" type="line"/>
      <point x="425.73333333333335" y="507.6"/>
      <point x="366.1333333333333" y="560.0"/>
      <point x="275.26666666666665" y="560.0" type="curve" smooth="yes"/>
      <point x="163.06666666666666" y="560.0"/>
      <point x="92.53333333333333" y="480.73333333333335"/>
      <point x="92.53333333333333" y="357.06666666666666" type="curve" smooth="yes"/>
      <point x="92.53333333333333" y="239.73333333333332" type="line" smooth="yes"/>
      <point x="92.53333333333333" y="115.33333333333333"/>
      <point x="163.06666666666666" y="36.333333333333336"/>
      <point x="275.26666666666665" y="36.333333333333336" type="curve" smooth="yes"/>
      <point x="366.1333333333333" y="36.333333333333336"/>
      <point x="425.73333333333335" y="88.73333333333333"/>
      <point x="425.73333333333335" y="171.66666666666666" type="curve"/>
      <point x="406.6" y="148.66666666666666" type="line"/>
      <point x="424.6" y="148.66666666666666" type="line"/>
      <point x="423.1333333333333" y="44.666666666666664" type="line"/>
      <point x="423.1333333333333" y="-18.666666666666668" type="line" smooth="yes"/>
      <point x="423.1333333333333" y="-78.6"/>
      <point x="393.6" y="-107.86666666666667"/>
      <point x="331.46666666666664" y="-107.86666666666667" type="curve" smooth="yes"/>
      <point x="164.46666666666667" y="-107.86666666666667" type="line"/>
    </contour>
    <contour>
      <point x="297.73333333333335" y="105.0" type="curve" smooth="yes"/>
      <point x="218.26666666666668" y="105.0"/>
      <point x="171.86666666666667" y="154.93333333333334"/>
      <point x="171.86666666666667" y="243.4" type="curve" smooth="yes"/>
      <point x="171.86666666666667" y="352.6666666666667" type="line" smooth="yes"/>
      <point x="171.86666666666667" y="441.1333333333333"/>
      <point x="218.26666666666668" y="491.3333333333333"/>
      <point x="297.73333333333335" y="491.3333333333333" type="curve" smooth="yes"/>
      <point x="376.26666666666665" y="491.3333333333333"/>
      <point x="423.8666666666667" y="439.6666666666667"/>
      <point x="423.8666666666667" y="352.6666666666667" type="curve" smooth="yes"/>
      <point x="423.8666666666667" y="243.4" type="line" smooth="yes"/>
      <point x="423.8666666666667" y="156.4"/>
      <point x="376.0" y="105.0"/>
    </contour>
  </outline>
</glyph>
<glyph name="h" format="2">
  <advance width="600.0"/>
  <unicode hex="0068"/>
  <anchor x="300.0" y="0.0" name="bottom"/>
  <anchor x="300.0" y="365.0" name="center"/>
  <anchor x="300.0" y="730.0" name="top"/>
  <outline>
    <contour>
      <point x="96.8" y="0.0" type="line"/>
      <point x="176.13333333333333" y="0.0" type="line"/>
      <point x="176.13333333333333" y="352.6666666666667" type="line" smooth="yes"/>
      <point x="176.13333333333333" y="440.8666666666667"/>
      <point x="224.53333333333333" y="492.8"/>
      <point x="303.0" y="492.8" type="curve" smooth="yes"/>
      <point x="378.7325333333333" y="492.8"/>
      <point x="425.8666666666667" y="443.6"/>
      <point x="425.8666666666667" y="360.0" type="curve" smooth="yes"/>
      <point x="425.8666666666667" y="0.0" type="line"/>
      <point x="505.2" y="0.0" type="line"/>
      <point x="505.2" y="369.2" type="line" smooth="yes"/>
      <point x="505.2" y="486.46666666666664"/>
      <point x="434.2" y="560.0"/>
      <point x="324.73333333333335" y="560.0" type="curve" smooth="yes"/>
      <point x="231.66666666666666" y="560.0"/>
      <point x="174.26666666666668" y="507.6"/>
      <point x="174.26666666666668" y="420.26666666666665" type="curve"/>
      <point x="196.2" y="451.6666666666667" type="line"/>
      <point x="176.13333333333333" y="451.6666666666667" type="line"/>
      <point x="176.13333333333333" y="558.0" type="line"/>
      <point x="176.13333333333333" y="730.0" type="line"/>
      <point x="96.8" y="730.0" type="line"/>
    </contour>
  </outline>
</glyph>
<glyph name="k" format="2">
  <advance width="600.0"/>
  <unicode hex="006B"/>
  <anchor x="300.0" y="0.0" name="bottom"/>
  <anchor x="300.0" y="730.0" name="top"/>
  <outline>
    <contour>
      <point x="99.8" y="0.0" type="line"/>
      <point x="179.13333333333333" y="0.0" type="line"/>
      <point x="179.13333333333333" y="250.06666666666666" type="line"/>
      <point x="292.8" y="250.06666666666666" type="line"/>
      <point x="457.06666666666666" y="0.0" type="line"/>
      <point x="550.0666666666667" y="0.0" type="line"/>
      <point x="361.8" y="288.26666666666665" type="line"/>
      <point x="546.8" y="550.0" type="line"/>
      <point x="455.26666666666665" y="550.0" type="line"/>
      <point x="292.06666666666666" y="319.26666666666665" type="line"/>
      <point x="179.13333333333333" y="319.26666666666665" type="line"/>
      <point x="179.13333333333333" y="730.0" type="line"/>
      <point x="99.8" y="730.0" type="line"/>
    </contour>
  </outline>
</glyph>
<glyph name="l" format="2">
  <advance width="600.0"/>
  <unicode hex="006C"/>
  <anchor x="320.0" y="0.0" name="bottom"/>
  <anchor x="300.0" y="365.0" name="center"/>
  <anchor x="250.0" y="730.0" name="top"/>
  <anchor x="580.0" y="730.0" name="topright"/>
  <outline>
    <contour>
      <point x="377.3333333333333" y="0.0" type="curve" smooth="yes"/>
      <point x="547.3333333333334" y="0.0" type="line"/>
      <point x="547.3333333333334" y="72.13333333333333" type="line"/>
      <point x="377.3333333333333" y="72.13333333333333" type="line" smooth="yes"/>
      <point x="330.06666666666666" y="72.13333333333333"/>
      <point x="302.0" y="100.93333333333334"/>
      <point x="302.0" y="149.66666666666666" type="curve" smooth="yes"/>
      <point x="302.0" y="730.0" type="line"/>
      <point x="35.333333333333336" y="730.0" type="line"/>
      <point x="35.333333333333336" y="657.8666666666667" type="line"/>
      <point x="222.66666666666666" y="657.8666666666667" type="line"/>
      <point x="222.66666666666666" y="149.66666666666666" type="line" smooth="yes"/>
      <point x="222.66666666666666" y="57.53333333333333"/>
      <point x="282.2" y="0.0"/>
    </contour>
  </outline>
</glyph>
<glyph name="m" format="2">
  <advance width="600.0"/>
  <unicode hex="006D"/>
  <anchor x="300.0" y="0.0" name="bottom"/>
  <anchor x="300.0" y="550.0" name="top"/>
  <outline>
    <contour>
      <point x="65.06666666666666" y="0.0" type="line"/>
      <point x="139.0" y="0.0" type="line"/>
      <point x="139.0" y="421.3333333333333" type="line" smooth="yes"/>
      <point x="139.0" y="469.53333333333336"/>
      <point x="163.2" y="498.2"/>
      <point x="202.8" y="498.2" type="curve" smooth="yes"/>
      <point x="243.13333333333333" y="498.2"/>
      <point x="267.2" y="469.53333333333336"/>
      <point x="267.2" y="420.6" type="curve" smooth="yes"/>
      <point x="267.2" y="0.0" type="line"/>
      <point x="332.8" y="0.0" type="line"/>
      <point x="332.8" y="421.3333333333333" type="line" smooth="yes"/>
      <point x="332.8" y="469.26666666666665"/>
      <point x="356.93333333333334" y="498.2"/>
      <point x="398.06666666666666" y="498.2" type="curve" smooth="yes"/>
      <point x="437.6666666666667" y="498.2"/>
      <point x="461.0" y="469.53333333333336"/>
      <point x="461.0" y="420.6" type="curve" smooth="yes"/>
      <point x="461.0" y="0.0" type="line"/>
      <point x="534.9333333333333" y="0.0" type="line"/>
      <point x="534.9333333333333" y="421.46666666666664" type="line" smooth="yes"/>
      <point x="534.9333333333333" y="504.4"/>
      <point x="490.8" y="560.0"/>
      <point x="424.8" y="560.0" type="curve" smooth="yes"/>
      <point x="367.8" y="560.0"/>
      <point x="328.53333333333336" y="519.2666666666667"/>
      <point x="328.53333333333336" y="460.26666666666665" type="curve"/>
      <point x="344.3333333333333" y="481.6" type="line"/>
      <point x="310.06666666666666" y="481.6" type="line"/>
      <point x="332.26666666666665" y="438.26666666666665" type="line"/>
      <point x="330.1333333333333" y="511.53333333333336"/>
      <point x="290.93333333333334" y="560.0"/>
      <point x="232.46666666666667" y="560.0" type="curve" smooth="yes"/>
      <point x="175.66666666666666" y="560.0"/>
      <point x="138.2" y="519.5333333333333"/>
      <point x="138.2" y="460.26666666666665" type="curve"/>
      <point x="149.53333333333333" y="481.6" type="line"/>
      <point x="134.73333333333332" y="481.6" type="line"/>
      <point x="134.73333333333332" y="550.0" type="line"/>
      <point x="65.06666666666666" y="550.0" type="line"/>
    </contour>
  </outline>
</glyph>
<glyph name="n" format="2">
  <advance width="600.0"/>
  <unicode hex="006E"/>
  <anchor x="300.0" y="0.0" name="bottom"/>
  <anchor x="305.0" y="550.0" name="top"/>
  <outline>
    <contour>
      <point x="96.8" y="0.0" type="line"/>
      <point x="176.13333333333333" y="0.0" type="line"/>
      <point x="176.13333333333333" y="352.6666666666667" type="line" smooth="yes"/>
      <point x="176.13333333333333" y="440.8666666666667"/>
      <point x="224.53333333333333" y="491.3333333333333"/>
      <point x="303.0" y="491.3333333333333" type="curve" smooth="yes"/>
      <point x="378.7325333333333" y="491.3333333333333"/>
      <point x="425.8666666666667" y="443.6"/>
      <point x="425.8666666666667" y="360.0" type="curve" smooth="yes"/>
      <point x="425.8666666666667" y="0.0" type="line"/>
      <point x="505.2" y="0.0" type="line"/>
      <point x="505.2" y="369.2" type="line" smooth="yes"/>
      <point x="505.2" y="486.46666666666664"/>
      <point x="434.2" y="560.0"/>
      <point x="324.73333333333335" y="560.0" type="curve" smooth="yes"/>
      <point x="231.13333333333333" y="560.0"/>
      <point x="174.26666666666668" y="507.06666666666666"/>
      <point x="174.26666666666668" y="418.6666666666667" type="curve"/>
      <point x="196.2" y="447.6666666666667" type="line"/>
      <point x="176.13333333333333" y="447.6666666666667" type="line"/>
      <point x="176.13333333333333" y="550.0" type="line"/>
      <point x="96.8" y="550.0" type="line"/>
    </contour>
  </outline>
</glyph>
<glyph name="o" format="2">
  <advance width="600.0"/>
  <unicode hex="006F"/>
  <anchor x="300.0" y="0.0" name="bottom"/>
  <anchor x="300.0" y="275.0" name="center"/>
  <anchor x="328.8" y="550.0" name="horn"/>
  <anchor x="351.3333333333333" y="0.0" name="ogonek"/>
  <anchor x="300.0" y="550.0" name="top"/>
  <anchor x="580.0" y="550.0" name="topright"/>
  <outline>
    <contour>
      <point x="300.0" y="-8.533333333333333" type="curve" smooth="yes"/>
      <point x="429.26666666666665" y="-8.533333333333333"/>
      <point x="509.6666666666667" y="70.93333333333334"/>
      <point x="509.6666666666667" y="198.8" type="curve" smooth="yes"/>
      <point x="509.6666666666667" y="351.93333333333334" type="line" smooth="yes"/>
      <point x="509.6666666666667" y="478.8"/>
      <point x="429.0" y="558.5333333333333"/>
      <point x="300.0" y="558.5333333333333" type="curve" smooth="yes"/>
      <point x="171.0" y="558.5333333333333"/>
      <point x="90.33333333333333" y="478.8"/>
      <point x="90.33333333333333" y="351.2" type="curve" smooth="yes"/>
      <point x="90.33333333333333" y="198.8" type="line" smooth="yes"/>
      <point x="90.33333333333333" y="70.93333333333334"/>
      <point x="171.0" y="-8.533333333333333"/>
    </contour>
    <contour>
      <point x="300.0" y="61.86666666666667" type="curve" smooth="yes"/>
      <point x="218.26666666666668" y="61.86666666666667"/>
      <point x="169.66666666666666" y="110.06666666666666"/>
      <point x="169.66666666666666" y="198.8" type="curve" smooth="yes"/>
      <point x="169.66666666666666" y="351.2" type="line" smooth="yes"/>
      <point x="169.66666666666666" y="439.6666666666667"/>
      <point x="218.53333333333333" y="488.1333333333333"/>
      <point x="300.0" y="488.1333333333333" type="curve" smooth="yes"/>
      <point x="381.46666666666664" y="488.1333333333333"/>
      <point x="430.3333333333333" y="439.6666666666667"/>
      <point x="430.3333333333333" y="351.2" type="curve" smooth="yes"/>
      <point x="430.3333333333333" y="198.8" type="line" smooth="yes"/>
      <point x="430.3333333333333" y="110.06666666666666"/>
      <point x="381.73333333333335" y="61.86666666666667"/>
    </contour>
  </outline>
</glyph>
<glyph name="p" format="2">
  <advance width="600.0"/>
  <unicode hex="0070"/>
  <anchor x="300.0" y="0.0" name="bottom"/>
  <anchor x="300.0" y="550.0" name="top"/>
  <outline>
    <contour>
      <point x="97.53333333333333" y="-180.0" type="line"/>
      <point x="176.86666666666667" y="-180.0" type="line"/>
      <point x="176.86666666666667" y="-14.666666666666668" type="line"/>
      <point x="175.4" y="97.0" type="line"/>
      <point x="194.86666666666667" y="97.0" type="line"/>
      <point x="174.2" y="129.73333333333332" type="line"/>
      <point x="174.2" y="44.86666666666667"/>
      <point x="236.53333333333333" y="-10.0"/>
      <point x="328.4" y="-10.0" type="curve" smooth="yes"/>
      <point x="438.8666666666667" y="-10.0"/>
      <point x="510.4" y="68.53333333333333"/>
      <point x="510.4" y="193.66666666666666" type="curve" smooth="yes"/>
      <point x="510.4" y="357.3333333333333" type="line" smooth="yes"/>
      <point x="510.4" y="481.73333333333335"/>
      <point x="438.4" y="560.0"/>
      <point x="328.4" y="560.0" type="curve" smooth="yes"/>
      <point x="235.53333333333333" y="560.0"/>
      <point x="174.2" y="505.8666666666667"/>
      <point x="174.2" y="420.26666666666665" type="curve"/>
      <point x="197.53333333333333" y="453.0" type="line"/>
      <point x="176.86666666666667" y="453.0" type="line"/>
      <point x="176.86666666666667" y="550.0" type="line"/>
      <point x="97.53333333333333" y="550.0" type="line"/>
    </contour>
    <contour>
      <point x="303.73333333333335" y="58.666666666666664" type="curve" smooth="yes"/>
      <point x="225.46666666666667" y="58.666666666666664"/>
      <point x="176.86666666666667" y="110.06666666666666"/>
      <point x="176.86666666666667" y="197.33333333333334" type="curve" smooth="yes"/>
      <point x="176.86666666666667" y="352.93333333333334" type="line" smooth="yes"/>
      <point x="176.86666666666667" y="439.93333333333334"/>
      <point x="225.46666666666667" y="491.3333333333333"/>
      <point x="303.73333333333335" y="491.3333333333333" type="curve" smooth="yes"/>
      <point x="383.2" y="491.3333333333333"/>
      <point x="431.06666666666666" y="441.4"/>
      <point x="431.06666666666666" y="352.93333333333334" type="curve" smooth="yes"/>
      <point x="431.06666666666666" y="197.33333333333334" type="line" smooth="yes"/>
      <point x="431.06666666666666" y="108.6"/>
      <point x="383.2" y="58.666666666666664"/>
    </contour>
  </outline>
</glyph>
<glyph name="q" format="2">
  <advance width="600.0"/>
  <unicode hex="0071"/>
  <anchor x="300.0" y="0.0" name="bottom"/>
  <anchor x="300.0" y="550.0" name="top"/>
  <outline>
    <contour>
      <point x="423.8666666666667" y="-180.0" type="line"/>
      <point x="503.2" y="-180.0" type="line"/>
      <point x="503.2" y="550.0" type="line"/>
      <point x="423.8666666666667" y="550.0" type="line"/>
      <point x="423.8666666666667" y="453.0" type="line"/>
      <point x="403.2" y="453.0" type="line"/>
      <point x="426.53333333333336" y="420.26666666666665" type="line"/>
      <point x="426.53333333333336" y="506.1333333333333"/>
      <point x="365.4" y="560.0"/>
      <point x="273.06666666666666" y="560.0" type="curve" smooth="yes"/>
      <point x="163.06666666666666" y="560.0"/>
      <point x="92.53333333333333" y="481.73333333333335"/>
      <point x="92.53333333333333" y="357.3333333333333" type="curve" smooth="yes"/>
      <point x="92.53333333333333" y="193.66666666666666" type="line" smooth="yes"/>
      <point x="92.53333333333333" y="68.53333333333333"/>
      <point x="162.33333333333334" y="-10.0"/>
      <point x="273.06666666666666" y="-10.0" type="curve" smooth="yes"/>
      <point x="364.6666666666667" y="-10.0"/>
      <point x="426.53333333333336" y="44.6"/>
      <point x="426.53333333333336" y="129.73333333333332" type="curve"/>
      <point x="405.8666666666667" y="97.0" type="line"/>
      <point x="425.3333333333333" y="97.0" type="line"/>
      <point x="423.8666666666667" y="-22.666666666666668" type="line"/>
    </contour>
    <contour>
      <point x="297.73333333333335" y="58.666666666666664" type="curve" smooth="yes"/>
      <point x="218.26666666666668" y="58.666666666666664"/>
      <point x="171.86666666666667" y="108.86666666666667"/>
      <point x="171.86666666666667" y="197.33333333333334" type="curve" smooth="yes"/>
      <point x="171.86666666666667" y="352.93333333333334" type="line" smooth="yes"/>
      <point x="171.86666666666667" y="441.4"/>
      <point x="218.26666666666668" y="491.3333333333333"/>
      <point x="297.73333333333335" y="491.3333333333333" type="curve" smooth="yes"/>
      <point x="376.0" y="491.3333333333333"/>
      <point x="423.8666666666667" y="439.93333333333334"/>
      <point x="423.8666666666667" y="352.93333333333334" type="curve" smooth="yes"/>
      <point x="423.8666666666667" y="197.33333333333334" type="line" smooth="yes"/>
      <point x="423.8666666666667" y="110.33333333333333"/>
      <point x="376.26666666666665" y="58.666666666666664"/>
    </contour>
  </outline>
</glyph>
<glyph name="r" format="2">
  <advance width="600.0"/>
  <unicode hex="0072"/>
  <anchor x="142.33333333333334" y="0.0" name="bottom"/>
  <anchor x="320.0" y="550.0" name="top"/>
  <outline>
    <contour>
      <point x="113.8" y="0.0" type="line"/>
      <point x="193.13333333333333" y="0.0" type="line"/>
      <point x="193.13333333333333" y="352.6666666666667" type="line" smooth="yes"/>
      <point x="193.13333333333333" y="442.8666666666667"/>
      <point x="238.06666666666666" y="491.3333333333333"/>
      <point x="319.26666666666665" y="491.3333333333333" type="curve" smooth="yes"/>
      <point x="402.6666666666667" y="491.3333333333333"/>
      <point x="449.06666666666666" y="440.6666666666667"/>
      <point x="449.06666666666666" y="352.6666666666667" type="curve" smooth="yes"/>
      <point x="449.06666666666666" y="321.3333333333333" type="line"/>
      <point x="529.7333333333333" y="321.3333333333333" type="line"/>
      <point x="529.7333333333333" y="358.53333333333336" type="line" smooth="yes"/>
      <point x="529.7333333333333" y="482.26666666666665"/>
      <point x="456.0" y="560.0"/>
      <point x="341.2" y="560.0" type="curve" smooth="yes"/>
      <point x="247.6" y="560.0"/>
      <point x="190.46666666666667" y="505.73333333333335"/>
      <point x="190.2" y="416.8" type="curve"/>
      <point x="210.26666666666668" y="447.6666666666667" type="line"/>
      <point x="193.13333333333333" y="447.6666666666667" type="line"/>
      <point x="193.13333333333333" y="550.0" type="line"/>
      <point x="113.8" y="550.0" type="line"/>
    </contour>
  </outline>
</glyph>
<glyph name="s" format="2">
  <advance width="600.0"/>
  <unicode hex="0073"/>
  <anchor x="300.0" y="0.0" name="bottom"/>
  <anchor x="300.0" y="550.0" name="top"/>
  <outline>
    <contour>
      <point x="280.06666666666666" y="-8.533333333333333" type="curve" smooth="yes"/>
      <point x="328.73333333333335" y="-8.533333333333333" type="line" smooth="yes"/>
      <point x="451.26666666666665" y="-8.533333333333333"/>
      <point x="516.5333333333333" y="52.733333333333334"/>
      <point x="516.5333333333333" y="152.86666666666667" type="curve" smooth="yes"/>
      <point x="516.5333333333333" y="244.86666666666667"/>
      <point x="464.0" y="294.8"/>
      <point x="355.06666666666666" y="311.93333333333334" type="curve" smooth="yes"/>
      <point x="272.8" y="324.73333333333335" type="line" smooth="yes"/>
      <point x="213.6" y="334.0"/>
      <point x="182.46666666666667" y="359.93333333333334"/>
      <point x="182.46666666666667" y="405.4" type="curve" smooth="yes"/>
      <point x="182.46666666666667" y="457.4"/>
      <point x="220.93333333333334" y="487.8666666666667"/>
      <point x="287.1333333333333" y="487.8666666666667" type="curve" smooth="yes"/>
      <point x="326.2" y="487.8666666666667" type="line" smooth="yes"/>
      <point x="387.4" y="487.8666666666667"/>
      <point x="427.6" y="461.6"/>
      <point x="429.73333333333335" y="422.06666666666666" type="curve"/>
      <point x="510.53333333333336" y="422.06666666666666" type="line"/>
      <point x="507.8666666666667" y="504.53333333333336"/>
      <point x="436.46666666666664" y="558.5333333333333"/>
      <point x="327.6666666666667" y="558.5333333333333" type="curve" smooth="yes"/>
      <point x="288.6" y="558.5333333333333" type="line" smooth="yes"/>
      <point x="171.6" y="558.5333333333333"/>
      <point x="104.33333333333333" y="502.73333333333335"/>
      <point x="104.33333333333333" y="405.1333333333333" type="curve" smooth="yes"/>
      <point x="104.33333333333333" y="318.0"/>
      <point x="156.13333333333333" y="267.46666666666664"/>
      <point x="261.1333333333333" y="250.8" type="curve" smooth="yes"/>
      <point x="343.93333333333334" y="238.0" type="line" smooth="yes"/>
      <point x="404.1333333333333" y="228.53333333333333"/>
      <point x="438.93333333333334" y="197.73333333333332"/>
      <point x="438.93333333333334" y="148.06666666666666" type="curve" smooth="yes"/>
      <point x="438.93333333333334" y="95.8"/>
      <point x="401.73333333333335" y="62.13333333333333"/>
      <point x="330.2" y="62.13333333333333" type="curve" smooth="yes"/>
      <point x="281.53333333333336" y="62.13333333333333" type="line" smooth="yes"/>
      <point x="219.86666666666667" y="62.13333333333333"/>
      <point x="174.26666666666668" y="90.93333333333334"/>
      <point x="171.6" y="137.2" type="curve"/>
      <point x="90.8" y="137.2" type="line"/>
      <point x="93.2" y="47.8"/>
      <point x="170.53333333333333" y="-8.533333333333333"/>
    </contour>
  </outline>
</glyph>
<glyph name="t" format="2">
  <advance width="600.0"/>
  <unicode hex="0074"/>
  <anchor x="360.0" y="0.0" name="bottom"/>
  <anchor x="300.0" y="275.0" name="center"/>
  <anchor x="300.0" y="705.0" name="top"/>
  <anchor x="580.0" y="550.0" name="topright"/>
  <outline>
    <contour>
      <point x="360.0" y="0.0" type="curve" smooth="yes"/>
      <point x="506.0" y="0.0" type="line"/>
      <point x="506.0" y="72.13333333333333" type="line"/>
      <point x="360.0" y="72.13333333333333" type="line" smooth="yes"/>
      <point x="319.73333333333335" y="72.13333333333333"/>
      <point x="294.6666666666667" y="97.93333333333334"/>
      <point x="294.6666666666667" y="139.66666666666666" type="curve" smooth="yes"/>
      <point x="294.6666666666667" y="477.8666666666667" type="line"/>
      <point x="516.0" y="477.8666666666667" type="line"/>
      <point x="516.0" y="550.0" type="line"/>
      <point x="294.6666666666667" y="550.0" type="line"/>
      <point x="294.6666666666667" y="705.0" type="line"/>
      <point x="215.33333333333334" y="705.0" type="line"/>
      <point x="215.33333333333334" y="550.0" type="line"/>
      <point x="59.0" y="550.0" type="line"/>
      <point x="59.0" y="477.8666666666667" type="line"/>
      <point x="215.33333333333334" y="477.8666666666667" type="line"/>
      <point x="215.33333333333334" y="139.66666666666666" type="line" smooth="yes"/>
      <point x="215.33333333333334" y="53.53333333333333"/>
      <point x="270.8666666666667" y="0.0"/>
    </contour>
  </outline>
</glyph>
<glyph name="u" format="2">
  <advance width="600.0"/>
  <unicode hex="0075"/>
  <anchor x="300.0" y="0.0" name="bottom"/>
  <anchor x="417.3333333333333" y="550.0" name="horn"/>
  <anchor x="351.3333333333333" y="0.0" name="ogonek"/>
  <anchor x="300.0" y="550.0" name="top"/>
  <anchor x="580.0" y="550.0" name="topright"/>
  <outline>
    <contour>
      <point x="299.0" y="-10.0" type="curve" smooth="yes"/>
      <point x="424.1333333333333" y="-10.0"/>
      <point x="505.2" y="70.2"/>
      <point x="505.2" y="198.4" type="curve" smooth="yes"/>
      <point x="505.2" y="550.0" type="line"/>
      <point x="425.8666666666667" y="550.0" type="line"/>
      <point x="425.8666666666667" y="198.4" type="line" smooth="yes"/>
      <point x="425.8666666666667" y="110.86666666666667"/>
      <point x="377.73333333333335" y="59.93333333333334"/>
      <point x="299.0" y="59.93333333333334" type="curve" smooth="yes"/>
      <point x="221.26666666666668" y="59.93333333333334"/>
      <point x="174.13333333333333" y="110.86666666666667"/>
      <point x="174.13333333333333" y="198.4" type="curve" smooth="yes"/>
      <point x="174.13333333333333" y="550.0" type="line"/>
      <point x="94.8" y="550.0" type="line"/>
      <point x="94.8" y="198.4" type="line" smooth="yes"/>
      <point x="94.8" y="69.93333333333334"/>
      <point x="174.13333333333333" y="-10.0"/>
    </contour>
  </outline>
</glyph>
<glyph name="v" format="2">
  <advance width="600.0"/>
  <unicode hex="0076"/>
  <anchor x="300.0" y="0.0" name="bottom"/>
  <anchor x="300.0" y="550.0" name="top"/>
  <outline>
    <contour>
      <point x="248.46666666666667" y="0.0" type="line"/>
      <point x="351.53333333333336" y="0.0" type="line"/>
      <point x="543.0666666666667" y="550.0" type="line"/>
      <point x="460.53333333333336" y="550.0" type="line"/>
      <point x="332.53333333333336" y="169.33333333333334" type="line" smooth="yes"/>
      <point x="318.3333333333333" y="127.46666666666667"/>
      <point x="307.73333333333335" y="82.73333333333333"/>
      <point x="301.73333333333335" y="60.46666666666667" type="curve"/>
      <point x="295.46666666666664" y="82.73333333333333"/>
      <point x="284.6666666666667" y="127.46666666666667"/>
      <point x="270.46666666666664" y="169.33333333333334" type="curve" smooth="yes"/>
      <point x="139.26666666666668" y="550.0" type="line"/>
      <point x="56.93333333333334" y="550.0" type="line"/>
    </contour>
  </outline>
</glyph>
<glyph name="w" format="2">
  <advance width="600.0"/>
  <unicode hex="0077"/>
  <anchor x="300.0" y="0.0" name="bottom"/>
  <anchor x="300.0" y="550.0" name="top"/>
  <outline>
    <contour>
      <point x="128.33333333333334" y="0.0" type="line"/>
      <point x="218.53333333333333" y="0.0" type="line"/>
      <point x="283.2" y="382.93333333333334" type="line" smooth="yes"/>
      <point x="289.46666666666664" y="419.6666666666667"/>
      <point x="295.53333333333336" y="463.3333333333333"/>
      <point x="297.8" y="487.2" type="curve"/>
      <point x="301.26666666666665" y="487.2" type="line"/>
      <point x="303.53333333333336" y="463.3333333333333"/>
      <point x="310.6" y="419.6666666666667"/>
      <point x="316.6" y="382.93333333333334" type="curve" smooth="yes"/>
      <point x="378.26666666666665" y="0.0" type="line"/>
      <point x="468.46666666666664" y="0.0" type="line"/>
      <point x="561.0" y="550.0" type="line"/>
      <point x="494.46666666666664" y="550.0" type="line"/>
      <point x="434.53333333333336" y="154.93333333333334" type="line" smooth="yes"/>
      <point x="430.26666666666665" y="125.66666666666667"/>
      <point x="425.53333333333336" y="84.26666666666667"/>
      <point x="422.8" y="60.666666666666664" type="curve"/>
      <point x="419.3333333333333" y="60.666666666666664" type="line"/>
      <point x="417.06666666666666" y="85.0"/>
      <point x="411.53333333333336" y="124.93333333333334"/>
      <point x="406.26666666666665" y="154.66666666666666" type="curve" smooth="yes"/>
      <point x="340.2" y="550.0" type="line"/>
      <point x="260.3333333333333" y="550.0" type="line"/>
      <point x="194.26666666666668" y="154.66666666666666" type="line" smooth="yes"/>
      <point x="189.0" y="125.66666666666667"/>
      <point x="183.2" y="84.26666666666667"/>
      <point x="181.2" y="60.666666666666664" type="curve"/>
      <point x="177.73333333333332" y="60.666666666666664" type="line"/>
      <point x="175.46666666666667" y="84.26666666666667"/>
      <point x="171.46666666666667" y="125.66666666666667"/>
      <point x="167.2" y="154.93333333333334" type="curve" smooth="yes"/>
      <point x="108.73333333333333" y="550.0" type="line"/>
      <point x="39.0" y="550.0" type="line"/>
    </contour>
  </outline>
</glyph>
<glyph name="x" format="2">
  <advance width="600.0"/>
  <unicode hex="0078"/>
  <anchor x="300.0" y="0.0" name="bottom"/>
  <anchor x="300.0" y="550.0" name="top"/>
  <outline>
    <contour>
      <point x="56.666666666666664" y="0.0" type="line"/>
      <point x="148.86666666666667" y="0.0" type="line"/>
      <point x="274.0" y="188.0" type="line" smooth="yes"/>
      <point x="283.46666666666664" y="202.2"/>
      <point x="294.73333333333335" y="222.86666666666667"/>
      <point x="300.73333333333335" y="234.06666666666666" type="curve"/>
      <point x="306.73333333333335" y="222.86666666666667"/>
      <point x="316.53333333333336" y="202.2"/>
      <point x="326.0" y="188.0" type="curve" smooth="yes"/>
      <point x="450.1333333333333" y="0.0" type="line"/>
      <point x="543.3333333333334" y="0.0" type="line"/>
      <point x="349.06666666666666" y="282.0" type="line"/>
      <point x="532.3333333333334" y="550.0" type="line"/>
      <point x="439.8666666666667" y="550.0" type="line"/>
      <point x="324.0" y="372.0" type="line" smooth="yes"/>
      <point x="314.8" y="358.3333333333333"/>
      <point x="305.53333333333336" y="340.1333333333333"/>
      <point x="301.0" y="329.6666666666667" type="curve"/>
      <point x="295.73333333333335" y="340.1333333333333"/>
      <point x="286.0" y="358.06666666666666"/>
      <point x="277.53333333333336" y="372.0" type="curve" smooth="yes"/>
      <point x="162.13333333333333" y="550.0" type="line"/>
      <point x="68.66666666666667" y="550.0" type="line"/>
      <point x="251.93333333333334" y="282.73333333333335" type="line"/>
    </contour>
  </outline>
</glyph>
<glyph name="y" format="2">
  <advance width="600.0"/>
  <unicode hex="0079"/>
  <anchor x="300.0" y="0.0" name="bottom"/>
  <anchor x="300.0" y="550.0" name="top"/>
  <outline>
    <contour>
      <point x="184.33333333333334" y="-180.0" type="line"/>
      <point x="266.8666666666667" y="-180.0" type="line"/>
      <point x="543.0666666666667" y="550.0" type="line"/>
      <point x="459.46666666666664" y="550.0" type="line"/>
      <point x="333.93333333333334" y="207.86666666666667" type="line" smooth="yes"/>
      <point x="323.6" y="180.6"/>
      <point x="311.8" y="143.0"/>
      <point x="306.0" y="122.26666666666667" type="curve"/>
      <point x="300.46666666666664" y="143.0"/>
      <point x="288.6" y="180.6"/>
      <point x="278.26666666666665" y="207.33333333333334" type="curve" smooth="yes"/>
      <point x="143.73333333333332" y="550.0" type="line"/>
      <point x="56.93333333333334" y="550.0" type="line"/>
      <point x="265.3333333333333" y="35.333333333333336" type="line"/>
    </contour>
  </outline>
</glyph>
<glyph name="z" format="2">
  <advance width="600.0"/>
  <unicode hex="007A"/>
  <anchor x="300.0" y="0.0" name="bottom"/>
  <anchor x="300.0" y="275.0" name="center"/>
  <anchor x="300.0" y="550.0" name="top"/>
  <outline>
    <contour>
      <point x="93.46666666666667" y="0.0" type="line"/>
      <point x="506.53333333333336" y="0.0" type="line"/>
      <point x="506.53333333333336" y="72.13333333333333" type="line"/>
      <point x="178.06666666666666" y="72.13333333333333" type="line"/>
      <point x="495.0" y="471.46666666666664" type="line"/>
      <point x="495.0" y="550.0" type="line"/>
      <point x="101.73333333333333" y="550.0" type="line"/>
      <point x="101.73333333333333" y="477.8666666666667" type="line"/>
      <point x="405.73333333333335" y="477.8666666666667" type="line"/>
      <point x="93.46666666666667" y="78.26666666666667" type="line"/>
    </contour>
  </outline>
</glyph>
<glyph name="braceleft" format="2">
  <advance width="600.0"/>
  <unicode hex="007B"/>
  <outline>
    <contour>
      <point x="453.3333333333333" y="-110.0" type="curve" smooth="yes"/>
      <point x="501.0" y="-110.0" type="line"/>
      <point x="501.0" y="-39.333333333333336" type="line"/>
      <point x="453.3333333333333" y="-39.333333333333336" type="line" smooth="yes"/>
      <point x="390.6" y="-39.333333333333336"/>
      <point x="351.46666666666664" y="-7.4"/>
      <point x="357.0" y="51.733333333333334" type="curve" smooth="yes"/>
      <point x="373.3333333333333" y="224.53333333333333" type="line" smooth="yes"/>
      <point x="381.3333333333333" y="307.8666666666667"/>
      <point x="329.46666666666664" y="366.2"/>
      <point x="250.0" y="366.2" type="curve"/>
      <point x="250.0" y="360.6666666666667" type="line"/>
      <point x="330.2" y="360.6666666666667"/>
      <point x="381.3333333333333" y="411.4"/>
      <point x="373.3333333333333" y="495.2" type="curve" smooth="yes"/>
      <point x="357.0" y="668.2666666666667" type="line" smooth="yes"/>
      <point x="351.46666666666664" y="727.4"/>
      <point x="390.6" y="759.3333333333334"/>
      <point x="453.3333333333333" y="759.3333333333334" type="curve" smooth="yes"/>
      <point x="501.0" y="759.3333333333334" type="line"/>
      <point x="501.0" y="830.0" type="line"/>
      <point x="453.3333333333333" y="830.0" type="line" smooth="yes"/>
      <point x="341.2" y="830.0"/>
      <point x="267.6666666666667" y="770.6"/>
      <point x="277.6666666666667" y="668.2666666666667" type="curve" smooth="yes"/>
      <point x="294.0" y="495.2" type="line" smooth="yes"/>
      <point x="300.26666666666665" y="423.4"/>
      <point x="279.6666666666667" y="395.2"/>
      <point x="194.0" y="395.2" type="curve" smooth="yes"/>
      <point x="79.0" y="395.2" type="line"/>
      <point x="79.0" y="324.26666666666665" type="line"/>
      <point x="194.0" y="324.26666666666665" type="line" smooth="yes"/>
      <point x="280.0" y="324.26666666666665"/>
      <point x="300.26666666666665" y="295.53333333333336"/>
      <point x="294.0" y="224.53333333333333" type="curve" smooth="yes"/>
      <point x="277.6666666666667" y="51.733333333333334" type="line" smooth="yes"/>
      <point x="267.6666666666667" y="-50.6"/>
      <point x="341.2" y="-110.0"/>
    </contour>
  </outline>
</glyph>
<glyph name="bar" format="2">
  <advance width="600.0"/>
  <unicode hex="007C"/>
  <outline>
    <contour>
      <point x="260.3333333333333" y="-110.0" type="line"/>
      <point x="339.6666666666667" y="-110.0" type="line"/>
      <point x="339.6666666666667" y="830.0" type="line"/>
      <point x="260.3333333333333" y="830.0" type="line"/>
    </contour>
  </outline>
</glyph>
<glyph name="braceright" format="2">
  <advance width="600.0"/>
  <unicode hex="007D"/>
  <outline>
    <contour>
      <point x="99.0" y="-110.0" type="line"/>
      <point x="146.4" y="-110.0" type="line" smooth="yes"/>
      <point x="258.53333333333336" y="-110.0"/>
      <point x="331.53333333333336" y="-50.6"/>
      <point x="322.06666666666666" y="51.733333333333334" type="curve" smooth="yes"/>
      <point x="306.53333333333336" y="224.53333333333333" type="line" smooth="yes"/>
      <point x="300.53333333333336" y="295.53333333333336"/>
      <point x="320.53333333333336" y="324.26666666666665"/>
      <point x="406.53333333333336" y="324.26666666666665" type="curve" smooth="yes"/>
      <point x="521.0" y="324.26666666666665" type="line"/>
      <point x="521.0" y="395.2" type="line"/>
      <point x="406.53333333333336" y="395.2" type="line" smooth="yes"/>
      <point x="320.8666666666667" y="395.2"/>
      <point x="300.53333333333336" y="423.4"/>
      <point x="306.53333333333336" y="495.2" type="curve" smooth="yes"/>
      <point x="322.06666666666666" y="668.2666666666667" type="line" smooth="yes"/>
      <point x="331.53333333333336" y="770.6"/>
      <point x="258.53333333333336" y="830.0"/>
      <point x="146.4" y="830.0" type="curve" smooth="yes"/>
      <point x="99.0" y="830.0" type="line"/>
      <point x="99.0" y="759.3333333333334" type="line"/>
      <point x="146.4" y="759.3333333333334" type="line" smooth="yes"/>
      <point x="209.13333333333333" y="759.3333333333334"/>
      <point x="248.0" y="727.4"/>
      <point x="242.73333333333332" y="668.2666666666667" type="curve" smooth="yes"/>
      <point x="227.2" y="495.2" type="line" smooth="yes"/>
      <point x="219.73333333333332" y="411.4"/>
      <point x="270.3333333333333" y="361.4"/>
      <point x="350.53333333333336" y="361.4" type="curve"/>
      <point x="350.53333333333336" y="366.93333333333334" type="line"/>
      <point x="271.06666666666666" y="366.93333333333334"/>
      <point x="219.46666666666667" y="307.8666666666667"/>
      <point x="227.2" y="224.53333333333333" type="curve" smooth="yes"/>
      <point x="242.73333333333332" y="51.733333333333334" type="line" smooth="yes"/>
      <point x="248.0" y="-7.4"/>
      <point x="209.13333333333333" y="-39.333333333333336"/>
      <point x="146.4" y="-39.333333333333336" type="curve" smooth="yes"/>
      <point x="99.0" y="-39.333333333333336" type="line"/>
    </contour>
  </outline>
</glyph>
<glyph name="asciitilde" format="2">
  <advance width="600.0"/>
  <unicode hex="007E"/>
  <outline>
    <contour>
      <point x="75.33333333333333" y="256.3333333333333" type="line"/>
      <point x="149.66666666666666" y="256.3333333333333" type="line"/>
      <point x="149.66666666666666" y="327.6666666666667" type="line" smooth="yes"/>
      <point x="149.66666666666666" y="365.53333333333336"/>
      <point x="168.0" y="386.1333333333333"/>
      <point x="200.13333333333333" y="386.1333333333333" type="curve" smooth="yes"/>
      <point x="272.6666666666667" y="386.1333333333333"/>
      <point x="279.0" y="252.66666666666666"/>
      <point x="402.6666666666667" y="252.66666666666666" type="curve" smooth="yes"/>
      <point x="476.6666666666667" y="252.66666666666666"/>
      <point x="524.6666666666666" y="302.46666666666664"/>
      <point x="524.6666666666666" y="377.3333333333333" type="curve" smooth="yes"/>
      <point x="524.6666666666666" y="448.6666666666667" type="line"/>
      <point x="450.3333333333333" y="448.6666666666667" type="line"/>
      <point x="450.3333333333333" y="377.3333333333333" type="line" smooth="yes"/>
      <point x="450.3333333333333" y="339.46666666666664"/>
      <point x="432.53333333333336" y="318.8666666666667"/>
      <point x="401.2" y="318.8666666666667" type="curve" smooth="yes"/>
      <point x="327.6" y="318.8666666666667"/>
      <point x="321.0" y="452.3333333333333"/>
      <point x="198.66666666666666" y="452.3333333333333" type="curve" smooth="yes"/>
      <point x="124.13333333333334" y="452.3333333333333"/>
      <point x="75.33333333333333" y="403.0"/>
      <point x="75.33333333333333" y="327.6666666666667" type="curve" smooth="yes"/>
    </contour>
  </outline>
</glyph>
<glyph name="exclamdown" format="2">
  <advance width="600.0"/>
  <unicode hex="00A1"/>
  <outline>
    <contour>
      <point x="253.66666666666666" y="-180.0" type="line"/>
      <point x="347.93333333333334" y="-180.0" type="line"/>
      <point x="347.93333333333334" y="-45.666666666666664" type="line"/>
      <point x="328.26666666666665" y="338.4" type="line"/>
      <point x="273.3333333333333" y="338.4" type="line"/>
      <point x="253.66666666666666" y="-45.666666666666664" type="line"/>
    </contour>
    <contour>
      <point x="291.8666666666667" y="438.4" type="curve" smooth="yes"/>
      <point x="307.8666666666667" y="438.4" type="line" smooth="yes"/>
      <point x="345.26666666666665" y="438.4"/>
      <point x="370.2" y="462.6"/>
      <point x="370.2" y="498.53333333333336" type="curve" smooth="yes"/>
      <point x="370.2" y="533.7333333333333"/>
      <point x="345.26666666666665" y="555.7333333333333"/>
      <point x="307.8666666666667" y="555.7333333333333" type="curve" smooth="yes"/>
      <point x="291.8666666666667" y="555.7333333333333" type="line" smooth="yes"/>
      <point x="254.46666666666667" y="555.7333333333333"/>
      <point x="229.53333333333333" y="533.0"/>
      <point x="229.53333333333333" y="497.8" type="curve" smooth="yes"/>
      <point x="229.53333333333333" y="462.6"/>
      <point x="254.46666666666667" y="438.4"/>
    </contour>
  </outline>
</glyph>
<glyph name="sterling" format="2">
  <advance width="600.0"/>
  <unicode hex="00A3"/>
  <outline>
    <contour>
      <point x="75.0" y="0.0" type="line"/>
      <point x="535.0" y="0.0" type="line"/>
      <point x="535.0" y="70.66666666666667" type="line"/>
      <point x="155.66666666666666" y="70.66666666666667" type="line"/>
      <point x="204.26666666666668" y="100.0"/>
      <point x="269.4" y="169.86666666666667"/>
      <point x="269.4" y="255.53333333333333" type="curve" smooth="yes"/>
      <point x="269.4" y="406.53333333333336"/>
      <point x="171.4" y="439.6"/>
      <point x="171.4" y="548.6666666666666" type="curve" smooth="yes"/>
      <point x="171.4" y="624.8"/>
      <point x="218.33333333333334" y="669.3333333333334"/>
      <point x="299.0" y="669.3333333333334" type="curve" smooth="yes"/>
      <point x="380.0" y="669.3333333333334"/>
      <point x="432.26666666666665" y="623.1333333333333"/>
      <point x="432.26666666666665" y="550.0" type="curve"/>
      <point x="515.2666666666667" y="550.0" type="line"/>
      <point x="513.2666666666667" y="668.4666666666667"/>
      <point x="431.73333333333335" y="740.0"/>
      <point x="300.0" y="740.0" type="curve" smooth="yes"/>
      <point x="171.93333333333334" y="740.0"/>
      <point x="91.33333333333333" y="667.4666666666667"/>
      <point x="91.33333333333333" y="552.6" type="curve" smooth="yes"/>
      <point x="91.33333333333333" y="425.53333333333336"/>
      <point x="189.33333333333334" y="391.06666666666666"/>
      <point x="189.33333333333334" y="248.93333333333334" type="curve" smooth="yes"/>
      <point x="189.33333333333334" y="190.93333333333334"/>
      <point x="124.13333333333334" y="122.33333333333333"/>
      <point x="75.0" y="86.66666666666667" type="curve"/>
    </contour>
    <contour>
      <point x="75.0" y="309.0" type="line"/>
      <point x="435.0" y="309.0" type="line"/>
      <point x="435.0" y="379.6666666666667" type="line"/>
      <point x="75.0" y="379.6666666666667" type="line"/>
    </contour>
  </outline>
</glyph>
<glyph name="currency" format="2">
  <advance width="600.0"/>
  <unicode hex="00A4"/>
  <outline>
    <contour>
      <point x="498.2" y="117.53333333333333" type="line"/>
      <point x="553.7333333333333" y="173.33333333333334" type="line"/>
      <point x="469.26666666666665" y="257.8" type="line"/>
      <point x="490.8666666666667" y="290.3333333333333"/>
      <point x="503.93333333333334" y="329.4"/>
      <point x="503.93333333333334" y="373.0" type="curve" smooth="yes"/>
      <point x="503.93333333333334" y="415.8666666666667"/>
      <point x="491.6" y="455.2"/>
      <point x="469.73333333333335" y="487.46666666666664" type="curve"/>
      <point x="553.2666666666667" y="571.0" type="line"/>
      <point x="499.46666666666664" y="624.8" type="line"/>
      <point x="415.2" y="540.5333333333333" type="line"/>
      <point x="383.4" y="561.8666666666667"/>
      <point x="344.3333333333333" y="573.6666666666666"/>
      <point x="301.0" y="573.6666666666666" type="curve" smooth="yes"/>
      <point x="259.1333333333333" y="573.6666666666666"/>
      <point x="221.26666666666668" y="562.3333333333334"/>
      <point x="189.73333333333332" y="542.4666666666667" type="curve"/>
      <point x="102.0" y="630.2" type="line"/>
      <point x="46.46666666666667" y="574.4" type="line"/>
      <point x="132.46666666666667" y="488.4" type="line"/>
      <point x="109.4" y="456.1333333333333"/>
      <point x="96.6" y="417.06666666666666"/>
      <point x="96.6" y="373.0" type="curve" smooth="yes"/>
      <point x="96.6" y="329.4"/>
      <point x="109.66666666666667" y="289.6"/>
      <point x="132.0" y="257.8" type="curve"/>
      <point x="48.46666666666667" y="173.8" type="line"/>
      <point x="103.0" y="119.26666666666667" type="line"/>
      <point x="188.26666666666668" y="204.26666666666668" type="line"/>
      <point x="219.8" y="183.66666666666666"/>
      <point x="258.4" y="172.33333333333334"/>
      <point x="301.0" y="172.33333333333334" type="curve" smooth="yes"/>
      <point x="342.6" y="172.33333333333334"/>
      <point x="380.93333333333334" y="183.4"/>
      <point x="412.0" y="203.73333333333332" type="curve"/>
    </contour>
    <contour>
      <point x="301.0" y="235.73333333333332" type="curve" smooth="yes"/>
      <point x="223.6" y="235.73333333333332"/>
      <point x="164.73333333333332" y="294.6"/>
      <point x="164.73333333333332" y="373.0" type="curve" smooth="yes"/>
      <point x="164.73333333333332" y="451.4"/>
      <point x="223.6" y="510.26666666666665"/>
      <point x="301.0" y="510.26666666666665" type="curve" smooth="yes"/>
      <point x="377.6666666666667" y="510.26666666666665"/>
      <point x="435.8" y="451.4"/>
      <point x="435.8" y="373.0" type="curve" smooth="yes"/>
      <point x="435.8" y="294.6"/>
      <point x="377.6666666666667" y="235.73333333333332"/>
    </contour>
  </outline>
</glyph>
<glyph name="brokenbar" format="2">
  <advance width="600.0"/>
  <unicode hex="00A6"/>
  <outline>
    <contour>
      <point x="260.3333333333333" y="450.0" type="line"/>
      <point x="339.6666666666667" y="450.0" type="line"/>
      <point x="339.6666666666667" y="830.0" type="line"/>
      <point x="260.3333333333333" y="830.0" type="line"/>
    </contour>
    <contour>
      <point x="260.3333333333333" y="-110.0" type="line"/>
      <point x="339.6666666666667" y="-110.0" type="line"/>
      <point x="339.6666666666667" y="270.0" type="line"/>
      <point x="260.3333333333333" y="270.0" type="line"/>
    </contour>
  </outline>
</glyph>
<glyph name="section" format="2">
  <advance width="600.0"/>
  <unicode hex="00A7"/>
  <outline>
    <contour>
      <point x="281.53333333333336" y="-154.26666666666668" type="curve" smooth="yes"/>
      <point x="321.4" y="-154.26666666666668" type="line" smooth="yes"/>
      <point x="444.6666666666667" y="-154.26666666666668"/>
      <point x="518.7333333333333" y="-90.06666666666666"/>
      <point x="518.7333333333333" y="11.533333333333333" type="curve" smooth="yes"/>
      <point x="518.7333333333333" y="109.26666666666667"/>
      <point x="446.26666666666665" y="153.33333333333334"/>
      <point x="391.46666666666664" y="158.73333333333332" type="curve"/>
      <point x="391.46666666666664" y="164.93333333333334" type="line"/>
      <point x="466.93333333333334" y="168.66666666666666"/>
      <point x="517.2666666666667" y="229.4"/>
      <point x="517.2666666666667" y="305.06666666666666" type="curve" smooth="yes"/>
      <point x="517.2666666666667" y="386.06666666666666"/>
      <point x="460.06666666666666" y="446.8"/>
      <point x="368.26666666666665" y="466.8" type="curve" smooth="yes"/>
      <point x="274.26666666666665" y="487.4" type="line" smooth="yes"/>
      <point x="211.66666666666666" y="501.2"/>
      <point x="175.13333333333333" y="535.5333333333333"/>
      <point x="175.13333333333333" y="581.7333333333333" type="curve" smooth="yes"/>
      <point x="175.13333333333333" y="635.2"/>
      <point x="217.26666666666668" y="669.3333333333334"/>
      <point x="287.1333333333333" y="669.3333333333334" type="curve" smooth="yes"/>
      <point x="320.3333333333333" y="669.3333333333334" type="line" smooth="yes"/>
      <point x="377.1333333333333" y="669.3333333333334"/>
      <point x="420.26666666666665" y="640.1333333333333"/>
      <point x="429.73333333333335" y="597.6666666666666" type="curve"/>
      <point x="512.7333333333333" y="597.6666666666666" type="line"/>
      <point x="499.8" y="683.0666666666667"/>
      <point x="424.0" y="740.0"/>
      <point x="320.3333333333333" y="740.0" type="curve" smooth="yes"/>
      <point x="287.1333333333333" y="740.0" type="line" smooth="yes"/>
      <point x="167.2" y="740.0"/>
      <point x="94.8" y="678.3333333333334"/>
      <point x="94.8" y="582.2" type="curve" smooth="yes"/>
      <point x="94.8" y="482.3333333333333"/>
      <point x="163.66666666666666" y="442.46666666666664"/>
      <point x="216.06666666666666" y="440.53333333333336" type="curve"/>
      <point x="216.06666666666666" y="434.3333333333333" type="line"/>
      <point x="143.93333333333334" y="424.1333333333333"/>
      <point x="91.86666666666666" y="364.2"/>
      <point x="91.86666666666666" y="289.53333333333336" type="curve" smooth="yes"/>
      <point x="91.86666666666666" y="210.46666666666667"/>
      <point x="151.53333333333333" y="147.06666666666666"/>
      <point x="243.53333333333333" y="128.0" type="curve" smooth="yes"/>
      <point x="339.53333333333336" y="107.4" type="line" smooth="yes"/>
      <point x="403.8666666666667" y="93.66666666666667"/>
      <point x="438.93333333333334" y="57.86666666666667"/>
      <point x="438.93333333333334" y="7.2" type="curve" smooth="yes"/>
      <point x="438.93333333333334" y="-47.733333333333334"/>
      <point x="396.6" y="-83.6"/>
      <point x="321.4" y="-83.6" type="curve" smooth="yes"/>
      <point x="281.53333333333336" y="-83.6" type="line" smooth="yes"/>
      <point x="222.06666666666666" y="-83.6"/>
      <point x="175.73333333333335" y="-50.4"/>
      <point x="164.26666666666668" y="-2.6666666666666665" type="curve"/>
      <point x="81.26666666666667" y="-2.6666666666666665" type="line"/>
      <point x="94.66666666666667" y="-92.8"/>
      <point x="174.93333333333334" y="-154.26666666666668"/>
    </contour>
    <contour>
      <point x="331.3333333333333" y="181.26666666666668" type="curve" smooth="yes"/>
      <point x="256.6666666666667" y="196.8" type="line" smooth="yes"/>
      <point x="205.06666666666666" y="207.66666666666666"/>
      <point x="172.2" y="248.73333333333332"/>
      <point x="172.2" y="300.8" type="curve" smooth="yes"/>
      <point x="172.2" y="370.6666666666667"/>
      <point x="220.4" y="426.3333333333333"/>
      <point x="280.46666666666664" y="413.53333333333336" type="curve" smooth="yes"/>
      <point x="354.2" y="398.0" type="line" smooth="yes"/>
      <point x="403.8666666666667" y="387.2"/>
      <point x="437.46666666666664" y="346.26666666666665"/>
      <point x="437.46666666666664" y="296.3333333333333" type="curve" smooth="yes"/>
      <point x="437.46666666666664" y="224.53333333333333"/>
      <point x="391.1333333333333" y="168.46666666666667"/>
    </contour>
  </outline>
</glyph>
<glyph name="copyright" format="2">
  <advance width="600.0"/>
  <unicode hex="00A9"/>
  <outline>
    <contour>
      <point x="300.0" y="110.0" type="curve" smooth="yes"/>
      <point x="451.93333333333334" y="110.0"/>
      <point x="553.1333333333333" y="205.73333333333332"/>
      <point x="553.1333333333333" y="350.0" type="curve" smooth="yes"/>
      <point x="553.1333333333333" y="500.0" type="line" smooth="yes"/>
      <point x="553.1333333333333" y="644.2666666666667"/>
      <point x="451.93333333333334" y="740.0"/>
      <point x="300.0" y="740.0" type="curve" smooth="yes"/>
      <point x="148.06666666666666" y="740.0"/>
      <point x="46.86666666666667" y="644.2666666666667"/>
      <point x="46.86666666666667" y="500.0" type="curve" smooth="yes"/>
      <point x="46.86666666666667" y="350.0" type="line" smooth="yes"/>
      <point x="46.86666666666667" y="205.73333333333332"/>
      <point x="148.06666666666666" y="110.0"/>
    </contour>
    <contour>
      <point x="300.0" y="156.8" type="curve" smooth="yes"/>
      <point x="180.2" y="156.8"/>
      <point x="98.66666666666667" y="234.13333333333333"/>
      <point x="98.66666666666667" y="350.0" type="curve" smooth="yes"/>
      <point x="98.66666666666667" y="500.0" type="line" smooth="yes"/>
      <point x="98.66666666666667" y="615.8666666666667"/>
      <point x="180.2" y="693.2"/>
      <point x="300.0" y="693.2" type="curve" smooth="yes"/>
      <point x="420.53333333333336" y="693.2"/>
      <point x="501.3333333333333" y="615.8666666666667"/>
      <point x="501.3333333333333" y="500.0" type="curve" smooth="yes"/>
      <point x="501.3333333333333" y="350.0" type="line" smooth="yes"/>
      <point x="501.3333333333333" y="234.13333333333333"/>
      <point x="420.53333333333336" y="156.8"/>
    </contour>
    <contour>
      <point x="305.0" y="245.0" type="curve" smooth="yes"/>
      <point x="377.4" y="245.0"/>
      <point x="426.3333333333333" y="291.0"/>
      <point x="426.3333333333333" y="360.0" type="curve"/>
      <point x="366.6666666666667" y="360.0" type="line"/>
      <point x="366.6666666666667" y="321.6"/>
      <point x="341.6" y="296.0"/>
      <point x="305.0" y="296.0" type="curve" smooth="yes"/>
      <point x="267.4" y="296.0"/>
      <point x="242.33333333333334" y="321.6"/>
      <point x="242.33333333333334" y="360.0" type="curve" smooth="yes"/>
      <point x="242.33333333333334" y="490.0" type="line" smooth="yes"/>
      <point x="242.33333333333334" y="528.4"/>
      <point x="267.4" y="554.0"/>
      <point x="305.0" y="554.0" type="curve" smooth="yes"/>
      <point x="341.6" y="554.0"/>
      <point x="366.6666666666667" y="528.4"/>
      <point x="366.6666666666667" y="490.0" type="curve"/>
      <point x="426.3333333333333" y="490.0" type="line"/>
      <point x="426.3333333333333" y="559.0"/>
      <point x="377.4" y="605.0"/>
      <point x="305.0" y="605.0" type="curve" smooth="yes"/>
      <point x="231.6" y="605.0"/>
      <point x="182.66666666666666" y="559.0"/>
      <point x="182.66666666666666" y="490.0" type="curve" smooth="yes"/>
      <point x="182.66666666666666" y="360.0" type="line" smooth="yes"/>
      <point x="182.66666666666666" y="291.0"/>
      <point x="231.6" y="245.0"/>
    </contour>
  </outline>
</glyph>
<glyph name="ordfeminine" format="2">
  <advance width="600.0"/>
  <unicode hex="00AA"/>
  <outline>
    <contour>
      <point x="375.6666666666667" y="455.0" type="line"/>
      <point x="418.6666666666667" y="455.0" type="line"/>
      <point x="418.6666666666667" y="650.0" type="line" smooth="yes"/>
      <point x="418.6666666666667" y="705.4666666666667"/>
      <point x="374.6666666666667" y="740.0"/>
      <point x="305.0" y="740.0" type="curve" smooth="yes"/>
      <point x="241.4" y="740.0"/>
      <point x="198.86666666666667" y="710.2"/>
      <point x="191.33333333333334" y="660.0" type="curve"/>
      <point x="237.33333333333334" y="660.0" type="line"/>
      <point x="241.86666666666667" y="685.6"/>
      <point x="268.93333333333334" y="702.6666666666666"/>
      <point x="305.0" y="702.6666666666666" type="curve" smooth="yes"/>
      <point x="346.3333333333333" y="702.6666666666666"/>
      <point x="372.6666666666667" y="682.3333333333334"/>
      <point x="372.6666666666667" y="650.0" type="curve" smooth="yes"/>
      <point x="372.6666666666667" y="510.0" type="line"/>
      <point x="375.6666666666667" y="510.0" type="line"/>
    </contour>
    <contour>
      <point x="274.0" y="450.0" type="curve" smooth="yes"/>
      <point x="321.06666666666666" y="450.0"/>
      <point x="358.93333333333334" y="473.26666666666665"/>
      <point x="372.6666666666667" y="510.0" type="curve"/>
      <point x="383.6666666666667" y="510.0" type="line"/>
      <point x="383.6666666666667" y="555.0" type="line"/>
      <point x="372.6666666666667" y="555.0" type="line"/>
      <point x="372.6666666666667" y="511.6666666666667"/>
      <point x="340.06666666666666" y="485.3333333333333"/>
      <point x="287.0" y="485.3333333333333" type="curve" smooth="yes"/>
      <point x="247.4" y="485.3333333333333"/>
      <point x="222.33333333333334" y="504.4"/>
      <point x="222.33333333333334" y="535.7333333333333" type="curve" smooth="yes"/>
      <point x="222.33333333333334" y="565.0666666666667"/>
      <point x="243.4" y="583.4"/>
      <point x="278.6666666666667" y="583.4" type="curve" smooth="yes"/>
      <point x="383.6666666666667" y="583.4" type="line"/>
      <point x="383.6666666666667" y="620.7333333333333" type="line"/>
      <point x="278.6666666666667" y="620.7333333333333" type="line" smooth="yes"/>
      <point x="215.8" y="620.7333333333333"/>
      <point x="176.33333333333334" y="587.4666666666667"/>
      <point x="176.33333333333334" y="535.7333333333333" type="curve" smooth="yes"/>
      <point x="176.33333333333334" y="483.73333333333335"/>
      <point x="214.53333333333333" y="450.0"/>
    </contour>
  </outline>
</glyph>
<glyph name="guillemetleft" format="2">
  <advance width="600.0"/>
  <unicode hex="00AB"/>
  <outline>
    <contour>
      <point x="471.4" y="40.0" type="line"/>
      <point x="564.6666666666666" y="40.0" type="line"/>
      <point x="358.1333333333333" y="282.0" type="line"/>
      <point x="564.6666666666666" y="520.0" type="line"/>
      <point x="470.93333333333334" y="520.0" type="line"/>
      <point x="267.53333333333336" y="280.0" type="line"/>
    </contour>
    <contour>
      <point x="239.2" y="40.0" type="line"/>
      <point x="332.46666666666664" y="40.0" type="line"/>
      <point x="125.93333333333334" y="282.0" type="line"/>
      <point x="332.46666666666664" y="520.0" type="line"/>
      <point x="238.73333333333332" y="520.0" type="line"/>
      <point x="35.333333333333336" y="280.0" type="line"/>
    </contour>
  </outline>
</glyph>
<glyph name="logicalnot" format="2">
  <advance width="600.0"/>
  <unicode hex="00AC"/>
  <outline>
    <contour>
      <point x="454.3333333333333" y="207.66666666666666" type="line"/>
      <point x="530.0" y="207.66666666666666" type="line"/>
      <point x="530.0" y="411.0" type="line"/>
      <point x="70.0" y="411.0" type="line"/>
      <point x="70.0" y="340.3333333333333" type="line"/>
      <point x="454.3333333333333" y="340.3333333333333" type="line"/>
    </contour>
  </outline>
</glyph>
<glyph name="registered" format="2">
  <advance width="600.0"/>
  <unicode hex="00AE"/>
  <outline>
    <contour>
      <point x="300.0" y="110.0" type="curve" smooth="yes"/>
      <point x="451.93333333333334" y="110.0"/>
      <point x="553.1333333333333" y="205.73333333333332"/>
      <point x="553.1333333333333" y="350.0" type="curve" smooth="yes"/>
      <point x="553.1333333333333" y="500.0" type="line" smooth="yes"/>
      <point x="553.1333333333333" y="644.2666666666667"/>
      <point x="451.93333333333334" y="740.0"/>
      <point x="300.0" y="740.0" type="curve" smooth="yes"/>
      <point x="148.06666666666666" y="740.0"/>
      <point x="46.86666666666667" y="644.2666666666667"/>
      <point x="46.86666666666667" y="500.0" type="curve" smooth="yes"/>
      <point x="46.86666666666667" y="350.0" type="line" smooth="yes"/>
      <point x="46.86666666666667" y="205.73333333333332"/>
      <point x="148.06666666666666" y="110.0"/>
    </contour>
    <contour>
      <point x="98.66666666666667" y="350.0" type="curve" smooth="yes"/>
      <point x="98.66666666666667" y="500.0" type="line" smooth="yes"/>
      <point x="98.66666666666667" y="615.8666666666667"/>
      <point x="180.2" y="693.2"/>
      <point x="300.0" y="693.2" type="curve" smooth="yes"/>
      <point x="420.53333333333336" y="693.2"/>
      <point x="501.3333333333333" y="615.8666666666667"/>
      <point x="501.3333333333333" y="500.0" type="curve" smooth="yes"/>
      <point x="501.3333333333333" y="350.0" type="line" smooth="yes"/>
      <point x="501.3333333333333" y="234.13333333333333"/>
      <point x="420.53333333333336" y="156.8"/>
      <point x="300.0" y="156.8" type="curve" smooth="yes"/>
      <point x="180.2" y="156.8"/>
      <point x="98.66666666666667" y="234.13333333333333"/>
    </contour>
    <contour>
      <point x="192.66666666666666" y="250.0" type="line"/>
      <point x="248.66666666666666" y="250.0" type="line"/>
      <point x="248.66666666666666" y="391.3333333333333" type="line"/>
      <point x="304.02" y="391.3333333333333" type="line"/>
      <point x="364.06666666666666" y="250.0" type="line"/>
      <point x="423.8" y="250.0" type="line"/>
      <point x="357.1275333333333" y="400.8622666666667" type="line"/>
      <point x="395.73106666666666" y="416.444"/>
      <point x="418.6" y="450.5068"/>
      <point x="418.6" y="495.8" type="curve" smooth="yes"/>
      <point x="418.6" y="559.2666666666667"/>
      <point x="374.1333333333333" y="600.0"/>
      <point x="304.26666666666665" y="600.0" type="curve" smooth="yes"/>
      <point x="192.66666666666666" y="600.0" type="line"/>
    </contour>
    <contour>
      <point x="248.66666666666666" y="438.6666666666667" type="line"/>
      <point x="248.66666666666666" y="552.6666666666666" type="line"/>
      <point x="304.26666666666665" y="552.6666666666666" type="line" smooth="yes"/>
      <point x="340.8666666666667" y="552.6666666666666"/>
      <point x="363.2" y="531.6"/>
      <point x="363.2" y="495.53333333333336" type="curve" smooth="yes"/>
      <point x="363.2" y="459.73333333333335"/>
      <point x="340.8666666666667" y="438.6666666666667"/>
      <point x="304.26666666666665" y="438.6666666666667" type="curve" smooth="yes"/>
    </contour>
  </outline>
</glyph>
<glyph name="degree" format="2">
  <advance width="600.0"/>
  <unicode hex="00B0"/>
  <outline>
    <contour>
      <point x="300.0" y="450.0" type="curve" smooth="yes"/>
      <point x="389.2" y="450.0"/>
      <point x="448.6666666666667" y="508.0"/>
      <point x="448.6666666666667" y="595.0" type="curve" smooth="yes"/>
      <point x="448.6666666666667" y="682.0"/>
      <point x="389.2" y="740.0"/>
      <point x="300.0" y="740.0" type="curve" smooth="yes"/>
      <point x="210.8" y="740.0"/>
      <point x="151.33333333333334" y="682.2666666666667"/>
      <point x="151.33333333333334" y="595.0" type="curve" smooth="yes"/>
      <point x="151.33333333333334" y="508.0"/>
      <point x="210.8" y="450.0"/>
    </contour>
    <contour>
      <point x="299.26666666666665" y="498.06666666666666" type="curve" smooth="yes"/>
      <point x="244.4" y="498.06666666666666"/>
      <point x="207.33333333333334" y="537.1333333333333"/>
      <point x="207.33333333333334" y="595.0" type="curve" smooth="yes"/>
      <point x="207.33333333333334" y="653.8666666666667"/>
      <point x="244.4" y="692.9333333333333"/>
      <point x="299.26666666666665" y="692.9333333333333" type="curve" smooth="yes"/>
      <point x="355.6" y="692.9333333333333"/>
      <point x="392.6666666666667" y="653.8666666666667"/>
      <point x="392.6666666666667" y="595.0" type="curve" smooth="yes"/>
      <point x="392.6666666666667" y="537.1333333333333"/>
      <point x="355.6" y="498.06666666666666"/>
    </contour>
  </outline>
</glyph>
<glyph name="plusminus" format="2">
  <advance width="600.0"/>
  <unicode hex="00B1"/>
  <outline>
    <contour>
      <point x="70.0" y="0.0" type="line"/>
      <point x="530.0" y="0.0" type="line"/>
      <point x="530.0" y="63.333333333333336" type="line"/>
      <point x="338.1333333333333" y="63.333333333333336" type="line"/>
      <point x="338.1333333333333" y="300.3333333333333" type="line"/>
      <point x="533.6666666666666" y="300.3333333333333" type="line"/>
      <point x="533.6666666666666" y="371.0" type="line"/>
      <point x="338.1333333333333" y="371.0" type="line"/>
      <point x="338.1333333333333" y="570.0" type="line"/>
      <point x="260.53333333333336" y="570.0" type="line"/>
      <point x="260.53333333333336" y="371.0" type="line"/>
      <point x="66.33333333333333" y="371.0" type="line"/>
      <point x="66.33333333333333" y="300.3333333333333" type="line"/>
      <point x="260.53333333333336" y="300.3333333333333" type="line"/>
      <point x="260.53333333333336" y="63.333333333333336" type="line"/>
      <point x="70.0" y="63.333333333333336" type="line"/>
    </contour>
  </outline>
</glyph>
<glyph name="twosuperior" format="2">
  <advance width="600.0"/>
  <unicode hex="00B2"/>
  <outline>
    <contour>
      <point x="167.06666666666666" y="405.0" type="line"/>
      <point x="453.6666666666667" y="405.0" type="line"/>
      <point x="453.6666666666667" y="462.6" type="line"/>
      <point x="232.46666666666667" y="462.6" type="line"/>
      <point x="359.1333333333333" y="557.8666666666667" type="line" smooth="yes"/>
      <point x="410.26666666666665" y="596.0"/>
      <point x="441.8666666666667" y="650.2"/>
      <point x="441.8666666666667" y="699.6" type="curve" smooth="yes"/>
      <point x="441.8666666666667" y="785.8"/>
      <point x="386.6666666666667" y="840.0"/>
      <point x="298.0" y="840.0" type="curve" smooth="yes"/>
      <point x="212.26666666666668" y="840.0"/>
      <point x="156.33333333333334" y="784.2666666666667"/>
      <point x="153.4" y="696.5333333333333" type="curve"/>
      <point x="216.73333333333332" y="696.5333333333333" type="line"/>
      <point x="216.73333333333332" y="750.0"/>
      <point x="248.33333333333334" y="783.1333333333333"/>
      <point x="298.0" y="783.1333333333333" type="curve" smooth="yes"/>
      <point x="347.6666666666667" y="783.1333333333333"/>
      <point x="379.26666666666665" y="750.2666666666667"/>
      <point x="379.26666666666665" y="697.3333333333334" type="curve" smooth="yes"/>
      <point x="379.26666666666665" y="664.4"/>
      <point x="358.6" y="627.8666666666667"/>
      <point x="325.6" y="602.8666666666667" type="curve" smooth="yes"/>
      <point x="167.06666666666666" y="482.4" type="line"/>
    </contour>
  </outline>
</glyph>
<glyph name="threesuperior" format="2">
  <advance width="600.0"/>
  <unicode hex="00B3"/>
  <outline>
    <contour>
      <point x="284.0" y="395.0" type="curve" smooth="yes"/>
      <point x="373.1333333333333" y="395.0"/>
      <point x="429.3333333333333" y="448.73333333333335"/>
      <point x="429.3333333333333" y="533.6666666666666" type="curve" smooth="yes"/>
      <point x="429.3333333333333" y="615.6666666666666"/>
      <point x="373.8666666666667" y="667.9333333333333"/>
      <point x="286.93333333333334" y="667.9333333333333" type="curve"/>
      <point x="286.93333333333334" y="643.9333333333333" type="line"/>
      <point x="402.6" y="761.0666666666667" type="line"/>
      <point x="402.6" y="830.7333333333333" type="line"/>
      <point x="167.66666666666666" y="830.7333333333333" type="line"/>
      <point x="167.66666666666666" y="773.1333333333333" type="line"/>
      <point x="349.6" y="773.1333333333333" type="line"/>
      <point x="255.0" y="676.6666666666666" type="line"/>
      <point x="255.0" y="615.2666666666667" type="line"/>
      <point x="284.73333333333335" y="615.2666666666667" type="line" smooth="yes"/>
      <point x="333.4" y="615.2666666666667"/>
      <point x="364.53333333333336" y="583.8666666666667"/>
      <point x="364.53333333333336" y="533.6666666666666" type="curve" smooth="yes"/>
      <point x="364.53333333333336" y="483.73333333333335"/>
      <point x="333.4" y="451.8666666666667"/>
      <point x="284.0" y="451.8666666666667" type="curve" smooth="yes"/>
      <point x="232.6" y="451.8666666666667"/>
      <point x="200.73333333333332" y="483.73333333333335"/>
      <point x="200.73333333333332" y="533.6666666666666" type="curve"/>
      <point x="138.13333333333333" y="533.6666666666666" type="line"/>
      <point x="138.13333333333333" y="448.73333333333335"/>
      <point x="194.6" y="395.0"/>
    </contour>
  </outline>
</glyph>
<glyph name="paragraph" format="2">
  <advance width="600.0"/>
  <unicode hex="00B6"/>
  <outline>
    <contour>
      <point x="259.0" y="-180.0" type="line"/>
      <point x="331.0" y="-180.0" type="line"/>
      <point x="331.0" y="730.0" type="line"/>
      <point x="259.0" y="730.0" type="line" smooth="yes"/>
      <point x="148.2" y="730.0"/>
      <point x="74.33333333333333" y="664.1333333333333"/>
      <point x="74.33333333333333" y="565.3333333333334" type="curve" smooth="yes"/>
      <point x="74.33333333333333" y="474.6666666666667" type="line" smooth="yes"/>
      <point x="74.33333333333333" y="375.8666666666667"/>
      <point x="148.2" y="310.0"/>
      <point x="259.0" y="310.0" type="curve"/>
    </contour>
    <contour>
      <point x="429.0" y="-180.0" type="line"/>
      <point x="501.0" y="-180.0" type="line"/>
      <point x="501.0" y="730.0" type="line"/>
      <point x="429.0" y="730.0" type="line"/>
    </contour>
  </outline>
</glyph>
<glyph name="onesuperior" format="2">
  <advance width="600.0"/>
  <unicode hex="00B9"/>
  <outline>
    <contour>
      <point x="159.0" y="405.0" type="line"/>
      <point x="457.3333333333333" y="405.0" type="line"/>
      <point x="457.3333333333333" y="462.6" type="line"/>
      <point x="352.8" y="462.6" type="line"/>
      <point x="352.8" y="830.0" type="line"/>
      <point x="265.26666666666665" y="830.0" type="line"/>
      <point x="167.73333333333332" y="756.8666666666667" type="line"/>
      <point x="167.73333333333332" y="685.3333333333334" type="line"/>
      <point x="289.46666666666664" y="774.4666666666667" type="line"/>
      <point x="289.46666666666664" y="462.6" type="line"/>
      <point x="159.0" y="462.6" type="line"/>
    </contour>
  </outline>
</glyph>
<glyph name="ordmasculine" format="2">
  <advance width="600.0"/>
  <unicode hex="00BA"/>
  <outline>
    <contour>
      <point x="300.0" y="445.0" type="curve" smooth="yes"/>
      <point x="367.93333333333334" y="445.0"/>
      <point x="413.4" y="485.93333333333334"/>
      <point x="413.4" y="547.3333333333334" type="curve" smooth="yes"/>
      <point x="413.4" y="634.0" type="line" smooth="yes"/>
      <point x="413.4" y="695.4"/>
      <point x="367.93333333333334" y="736.3333333333334"/>
      <point x="300.0" y="736.3333333333334" type="curve" smooth="yes"/>
      <point x="232.06666666666666" y="736.3333333333334"/>
      <point x="186.6" y="695.4"/>
      <point x="186.6" y="634.0" type="curve" smooth="yes"/>
      <point x="186.6" y="547.3333333333334" type="line" smooth="yes"/>
      <point x="186.6" y="485.93333333333334"/>
      <point x="232.06666666666666" y="445.0"/>
    </contour>
    <contour>
      <point x="300.0" y="482.3333333333333" type="curve" smooth="yes"/>
      <point x="259.4" y="482.3333333333333"/>
      <point x="232.33333333333334" y="508.3333333333333"/>
      <point x="232.33333333333334" y="547.3333333333334" type="curve" smooth="yes"/>
      <point x="232.33333333333334" y="634.0" type="line" smooth="yes"/>
      <point x="232.33333333333334" y="673.0"/>
      <point x="259.4" y="699.0"/>
      <point x="300.0" y="699.0" type="curve" smooth="yes"/>
      <point x="340.6" y="699.0"/>
      <point x="367.6666666666667" y="673.0"/>
      <point x="367.6666666666667" y="634.0" type="curve" smooth="yes"/>
      <point x="367.6666666666667" y="547.3333333333334" type="line" smooth="yes"/>
      <point x="367.6666666666667" y="508.3333333333333"/>
      <point x="340.6" y="482.3333333333333"/>
    </contour>
  </outline>
</glyph>
<glyph name="guillemetright" format="2">
  <advance width="600.0"/>
  <unicode hex="00BB"/>
  <outline>
    <contour>
      <point x="268.26666666666665" y="40.0" type="line"/>
      <point x="361.26666666666665" y="40.0" type="line"/>
      <point x="564.6666666666666" y="280.0" type="line"/>
      <point x="360.8" y="520.0" type="line"/>
      <point x="267.53333333333336" y="520.0" type="line"/>
      <point x="471.6" y="280.46666666666664" type="line"/>
    </contour>
    <contour>
      <point x="36.06666666666666" y="40.0" type="line"/>
      <point x="129.06666666666666" y="40.0" type="line"/>
      <point x="332.46666666666664" y="280.0" type="line"/>
      <point x="128.6" y="520.0" type="line"/>
      <point x="35.333333333333336" y="520.0" type="line"/>
      <point x="239.4" y="280.46666666666664" type="line"/>
    </contour>
  </outline>
</glyph>
<glyph name="onequarter" format="2">
  <advance width="600.0"/>
  <unicode hex="00BC"/>
  <outline>
    <contour>
      <point x="30.0" y="405.0" type="line"/>
      <point x="305.0" y="405.0" type="line"/>
      <point x="305.0" y="452.3333333333333" type="line"/>
      <point x="204.26666666666668" y="452.3333333333333" type="line"/>
      <point x="204.26666666666668" y="730.0" type="line"/>
      <point x="123.26666666666667" y="730.0" type="line"/>
      <point x="53.0" y="669.0" type="line"/>
      <point x="53.0" y="603.0" type="line"/>
      <point x="115.26666666666667" y="657.0" type="line" smooth="yes"/>
      <point x="130.26666666666668" y="670.0"/>
      <point x="142.26666666666668" y="685.2"/>
      <point x="148.26666666666668" y="693.4" type="curve"/>
      <point x="148.26666666666668" y="452.3333333333333" type="line"/>
      <point x="30.0" y="452.3333333333333" type="line"/>
    </contour>
    <contour>
      <point x="482.6666666666667" y="0.0" type="line"/>
      <point x="538.6666666666666" y="0.0" type="line"/>
      <point x="538.6666666666666" y="210.86666666666667" type="line"/>
      <point x="482.6666666666667" y="210.86666666666667" type="line"/>
      <point x="482.6666666666667" y="117.33333333333333" type="line"/>
      <point x="362.3333333333333" y="117.33333333333333" type="line"/>
      <point x="362.3333333333333" y="133.33333333333334" type="line"/>
      <point x="497.8666666666667" y="325.0" type="line"/>
      <point x="433.93333333333334" y="325.0" type="line"/>
      <point x="306.3333333333333" y="147.33333333333334" type="line"/>
      <point x="306.3333333333333" y="70.0" type="line"/>
      <point x="482.6666666666667" y="70.0" type="line"/>
    </contour>
    <component base="fraction"/>
  </outline>
</glyph>
<glyph name="onehalf" format="2">
  <advance width="600.0"/>
  <unicode hex="00BD"/>
  <outline>
    <contour>
      <point x="319.0" y="0.0" type="line"/>
      <point x="570.0" y="0.0" type="line"/>
      <point x="570.0" y="47.333333333333336" type="line"/>
      <point x="457.26666666666665" y="47.333333333333336" type="line" smooth="yes"/>
      <point x="433.6" y="47.333333333333336"/>
      <point x="403.1333333333333" y="43.666666666666664"/>
      <point x="386.8" y="41.46666666666667" type="curve"/>
      <point x="386.8" y="49.86666666666667" type="line"/>
      <point x="475.26666666666665" y="100.8" type="line" smooth="yes"/>
      <point x="532.4" y="134.2"/>
      <point x="563.6666666666666" y="177.0"/>
      <point x="563.6666666666666" y="220.4" type="curve" smooth="yes"/>
      <point x="563.6666666666666" y="285.53333333333336"/>
      <point x="515.0" y="330.0"/>
      <point x="442.1333333333333" y="330.0" type="curve" smooth="yes"/>
      <point x="370.4" y="330.0"/>
      <point x="321.2" y="284.73333333333335"/>
      <point x="319.0" y="216.0" type="curve"/>
      <point x="375.0" y="216.0" type="line"/>
      <point x="375.0" y="256.3333333333333"/>
      <point x="401.8" y="282.6666666666667"/>
      <point x="442.1333333333333" y="282.6666666666667" type="curve" smooth="yes"/>
      <point x="481.6666666666667" y="282.6666666666667"/>
      <point x="507.6666666666667" y="257.4"/>
      <point x="507.6666666666667" y="218.13333333333333" type="curve" smooth="yes"/>
      <point x="507.6666666666667" y="187.26666666666668"/>
      <point x="485.2" y="159.46666666666667"/>
      <point x="437.6666666666667" y="131.13333333333333" type="curve" smooth="yes"/>
      <point x="319.0" y="60.53333333333333" type="line"/>
    </contour>
    <contour>
      <point x="32.13333333333333" y="405.0" type="line"/>
      <point x="317.1333333333333" y="405.0" type="line"/>
      <point x="317.1333333333333" y="452.3333333333333" type="line"/>
      <point x="206.4" y="452.3333333333333" type="line"/>
      <point x="206.4" y="730.0" type="line"/>
      <point x="125.4" y="730.0" type="line"/>
      <point x="55.13333333333333" y="669.0" type="line"/>
      <point x="55.13333333333333" y="603.0" type="line"/>
      <point x="117.4" y="657.0" type="line" smooth="yes"/>
      <point x="132.4" y="670.0"/>
      <point x="144.4" y="685.2"/>
      <point x="150.4" y="693.4" type="curve"/>
      <point x="150.4" y="452.3333333333333" type="line"/>
      <point x="32.13333333333333" y="452.3333333333333" type="line"/>
    </contour>
    <component base="fraction"/>
  </outline>
</glyph>
<glyph name="threequarters" format="2">
  <advance width="600.0"/>
  <unicode hex="00BE"/>
  <outline>
    <contour>
      <point x="482.6666666666667" y="0.0" type="line"/>
      <point x="538.6666666666666" y="0.0" type="line"/>
      <point x="538.6666666666666" y="210.86666666666667" type="line"/>
      <point x="482.6666666666667" y="210.86666666666667" type="line"/>
      <point x="482.6666666666667" y="117.33333333333333" type="line"/>
      <point x="362.3333333333333" y="117.33333333333333" type="line"/>
      <point x="362.3333333333333" y="133.33333333333334" type="line"/>
      <point x="497.8666666666667" y="325.0" type="line"/>
      <point x="433.93333333333334" y="325.0" type="line"/>
      <point x="306.3333333333333" y="147.33333333333334" type="line"/>
      <point x="306.3333333333333" y="70.0" type="line"/>
      <point x="482.6666666666667" y="70.0" type="line"/>
    </contour>
    <contour>
      <point x="154.0" y="400.0" type="curve" smooth="yes"/>
      <point x="228.4" y="400.0"/>
      <point x="278.06666666666666" y="442.53333333333336"/>
      <point x="278.06666666666666" y="506.3333333333333" type="curve" smooth="yes"/>
      <point x="278.06666666666666" y="568.2666666666667"/>
      <point x="228.6" y="609.7333333333333"/>
      <point x="157.2" y="609.7333333333333" type="curve"/>
      <point x="157.2" y="593.8666666666667" type="line"/>
      <point x="262.8666666666667" y="677.6666666666666" type="line"/>
      <point x="262.8666666666667" y="730.0" type="line"/>
      <point x="51.86666666666667" y="730.0" type="line"/>
      <point x="51.86666666666667" y="682.6666666666666" type="line"/>
      <point x="207.86666666666667" y="682.6666666666666" type="line"/>
      <point x="125.0" y="617.2666666666667" type="line"/>
      <point x="125.0" y="564.0" type="line"/>
      <point x="155.0" y="564.0" type="line" smooth="yes"/>
      <point x="194.8" y="564.0"/>
      <point x="222.06666666666666" y="540.9333333333333"/>
      <point x="222.06666666666666" y="506.3333333333333" type="curve" smooth="yes"/>
      <point x="222.06666666666666" y="470.93333333333334"/>
      <point x="194.8" y="447.3333333333333"/>
      <point x="154.0" y="447.3333333333333" type="curve" smooth="yes"/>
      <point x="112.2" y="447.3333333333333"/>
      <point x="84.66666666666667" y="470.4"/>
      <point x="84.66666666666667" y="505.0" type="curve"/>
      <point x="28.666666666666668" y="505.0" type="line"/>
      <point x="28.666666666666668" y="442.0"/>
      <point x="78.6" y="400.0"/>
    </contour>
    <component base="fraction"/>
  </outline>
</glyph>
<glyph name="questiondown" format="2">
  <advance width="600.0"/>
  <unicode hex="00BF"/>
  <outline>
    <contour>
      <point x="332.0" y="-169.73333333333332" type="curve" smooth="yes"/>
      <point x="455.6666666666667" y="-169.73333333333332" type="line"/>
      <point x="455.6666666666667" y="-95.4" type="line"/>
      <point x="332.0" y="-95.4" type="line" smooth="yes"/>
      <point x="242.33333333333334" y="-95.4"/>
      <point x="186.66666666666666" y="-46.0"/>
      <point x="186.66666666666666" y="36.266666666666666" type="curve" smooth="yes"/>
      <point x="186.66666666666666" y="118.53333333333333"/>
      <point x="242.06666666666666" y="167.93333333333334"/>
      <point x="331.0" y="167.93333333333334" type="curve" smooth="yes"/>
      <point x="381.0" y="167.93333333333334" type="line"/>
      <point x="381.0" y="345.0" type="line"/>
      <point x="301.6666666666667" y="345.0" type="line"/>
      <point x="301.6666666666667" y="234.93333333333334" type="line"/>
      <point x="184.66666666666666" y="230.53333333333333"/>
      <point x="107.33333333333333" y="152.4"/>
      <point x="107.33333333333333" y="36.266666666666666" type="curve" smooth="yes"/>
      <point x="107.33333333333333" y="-90.6"/>
      <point x="194.0" y="-169.73333333333332"/>
    </contour>
    <contour>
      <point x="334.73333333333335" y="437.93333333333334" type="curve" smooth="yes"/>
      <point x="350.73333333333335" y="437.93333333333334" type="line" smooth="yes"/>
      <point x="388.1333333333333" y="437.93333333333334"/>
      <point x="413.06666666666666" y="462.1333333333333"/>
      <point x="413.06666666666666" y="498.06666666666666" type="curve" smooth="yes"/>
      <point x="413.06666666666666" y="533.2666666666667"/>
      <point x="388.1333333333333" y="555.2666666666667"/>
      <point x="350.73333333333335" y="555.2666666666667" type="curve" smooth="yes"/>
      <point x="334.73333333333335" y="555.2666666666667" type="line" smooth="yes"/>
      <point x="297.3333333333333" y="555.2666666666667"/>
      <point x="272.4" y="532.5333333333333"/>
      <point x="272.4" y="497.3333333333333" type="curve" smooth="yes"/>
      <point x="272.4" y="462.1333333333333"/>
      <point x="297.3333333333333" y="437.93333333333334"/>
    </contour>
  </outline>
</glyph>
<glyph name="AE" format="2">
  <advance width="600.0"/>
  <unicode hex="00C6"/>
  <anchor x="300.0" y="0.0" name="bottom"/>
  <anchor x="300.0" y="730.0" name="top"/>
  <outline>
    <contour>
      <point x="31.066666666666666" y="0.0" type="line"/>
      <point x="111.13333333333333" y="0.0" type="line"/>
      <point x="155.4" y="206.2" type="line"/>
      <point x="304.1333333333333" y="206.2" type="line"/>
      <point x="304.1333333333333" y="0.0" type="line"/>
      <point x="569.7333333333333" y="0.0" type="line"/>
      <point x="569.7333333333333" y="72.13333333333333" type="line"/>
      <point x="380.53333333333336" y="72.13333333333333" type="line"/>
      <point x="380.53333333333336" y="343.06666666666666" type="line"/>
      <point x="541.8" y="343.06666666666666" type="line"/>
      <point x="541.8" y="415.2" type="line"/>
      <point x="380.53333333333336" y="415.2" type="line"/>
      <point x="380.53333333333336" y="657.8666666666667" type="line"/>
      <point x="569.7333333333333" y="657.8666666666667" type="line"/>
      <point x="569.7333333333333" y="730.0" type="line"/>
      <point x="187.53333333333333" y="730.0" type="line"/>
    </contour>
    <contour>
      <point x="169.13333333333333" y="273.2" type="line"/>
      <point x="249.46666666666667" y="657.8666666666667" type="line"/>
      <point x="304.1333333333333" y="657.8666666666667" type="line"/>
      <point x="304.1333333333333" y="273.2" type="line"/>
    </contour>
  </outline>
</glyph>
<glyph name="Ccedilla" format="2">
  <advance width="600.0"/>
  <unicode hex="00C7"/>
  <anchor x="305.0" y="0.0" name="_bottom"/>
  <anchor x="305.0" y="0.0" name="bottom"/>
  <anchor x="305.0" y="730.0" name="top"/>
  <outline>
    <contour>
      <point x="218.0" y="-200.86666666666667" type="line"/>
      <point x="301.6666666666667" y="-200.86666666666667" type="line" smooth="yes"/>
      <point x="370.46666666666664" y="-200.86666666666667"/>
      <point x="416.3333333333333" y="-164.66666666666666"/>
      <point x="416.3333333333333" y="-119.46666666666667" type="curve" smooth="yes"/>
      <point x="416.3333333333333" y="-66.13333333333334"/>
      <point x="349.6666666666667" y="-39.93333333333333"/>
      <point x="299.0" y="-34.733333333333334" type="curve"/>
      <point x="320.53333333333336" y="26.0" type="line"/>
      <point x="267.53333333333336" y="26.0" type="line"/>
      <point x="232.53333333333333" y="-67.66666666666667" type="line"/>
      <point x="300.6" y="-67.66666666666667"/>
      <point x="341.0" y="-88.2"/>
      <point x="341.0" y="-113.6" type="curve" smooth="yes"/>
      <point x="341.0" y="-132.66666666666666"/>
      <point x="320.46666666666664" y="-151.2"/>
      <point x="290.6666666666667" y="-151.2" type="curve" smooth="yes"/>
      <point x="218.0" y="-151.2" type="line"/>
    </contour>
    <component base="C"/>
  </outline>
</glyph>
<glyph name="multiply" format="2">
  <advance width="600.0"/>
  <unicode hex="00D7"/>
  <outline>
    <contour>
      <point x="153.6" y="137.86666666666667" type="line"/>
      <point x="298.26666666666665" y="282.53333333333336" type="line"/>
      <point x="442.2" y="137.86666666666667" type="line"/>
      <point x="489.93333333333334" y="185.33333333333334" type="line"/>
      <point x="345.26666666666665" y="329.26666666666665" type="line"/>
      <point x="492.1333333333333" y="476.1333333333333" type="line"/>
      <point x="445.1333333333333" y="523.6" type="line"/>
      <point x="298.26666666666665" y="376.73333333333335" type="line"/>
      <point x="153.6" y="520.6666666666666" type="line"/>
      <point x="106.86666666666666" y="473.93333333333334" type="line"/>
      <point x="250.8" y="329.26666666666665" type="line"/>
      <point x="106.86666666666666" y="185.33333333333334" type="line"/>
    </contour>
  </outline>
</glyph>
<glyph name="Thorn" format="2">
  <advance width="600.0"/>
  <unicode hex="00DE"/>
  <outline>
    <contour>
      <point x="94.0" y="0.0" type="line"/>
      <point x="173.33333333333334" y="0.0" type="line"/>
      <point x="173.33333333333334" y="184.0" type="line"/>
      <point x="333.0" y="184.0" type="line" smooth="yes"/>
      <point x="462.06666666666666" y="184.0"/>
      <point x="544.6666666666666" y="260.1333333333333"/>
      <point x="544.6666666666666" y="380.0" type="curve" smooth="yes"/>
      <point x="544.6666666666666" y="498.4"/>
      <point x="461.3333333333333" y="576.0"/>
      <point x="333.0" y="576.0" type="curve" smooth="yes"/>
      <point x="173.33333333333334" y="576.0" type="line"/>
      <point x="173.33333333333334" y="730.0" type="line"/>
      <point x="94.0" y="730.0" type="line"/>
    </contour>
    <contour>
      <point x="173.33333333333334" y="254.93333333333334" type="line"/>
      <point x="173.33333333333334" y="505.3333333333333" type="line"/>
      <point x="333.0" y="505.3333333333333" type="line" smooth="yes"/>
      <point x="413.0" y="505.3333333333333"/>
      <point x="463.1333333333333" y="457.46666666666664"/>
      <point x="463.1333333333333" y="380.0" type="curve" smooth="yes"/>
      <point x="463.1333333333333" y="302.8"/>
      <point x="413.73333333333335" y="254.93333333333334"/>
      <point x="333.0" y="254.93333333333334" type="curve" smooth="yes"/>
    </contour>
  </outline>
</glyph>
<glyph name="germandbls" format="2">
  <advance width="600.0"/>
  <unicode hex="00DF"/>
  <outline>
    <contour>
      <point x="96.8" y="0.0" type="line"/>
      <point x="176.13333333333333" y="0.0" type="line"/>
      <point x="176.13333333333333" y="536.4" type="line" smooth="yes"/>
      <point x="176.13333333333333" y="617.4"/>
      <point x="225.8" y="667.8666666666667"/>
      <point x="303.53333333333336" y="667.8666666666667" type="curve" smooth="yes"/>
      <point x="381.6" y="667.8666666666667"/>
      <point x="429.46666666666664" y="619.4"/>
      <point x="429.46666666666664" y="538.4" type="curve" smooth="yes"/>
      <point x="429.46666666666664" y="462.8666666666667"/>
      <point x="381.53333333333336" y="408.73333333333335"/>
      <point x="303.53333333333336" y="408.73333333333335" type="curve" smooth="yes"/>
      <point x="262.06666666666666" y="408.73333333333335" type="line"/>
      <point x="262.06666666666666" y="339.53333333333336" type="line"/>
      <point x="305.0" y="339.53333333333336" type="line" smooth="yes"/>
      <point x="392.4" y="339.53333333333336"/>
      <point x="443.0" y="290.4"/>
      <point x="443.0" y="208.06666666666666" type="curve" smooth="yes"/>
      <point x="443.0" y="125.46666666666667"/>
      <point x="391.6666666666667" y="71.86666666666667"/>
      <point x="305.0" y="72.13333333333333" type="curve" smooth="yes"/>
      <point x="247.4" y="72.13333333333333" type="line"/>
      <point x="247.4" y="0.0" type="line"/>
      <point x="312.3333333333333" y="0.0" type="line" smooth="yes"/>
      <point x="442.1333333333333" y="0.0"/>
      <point x="526.0" y="84.4"/>
      <point x="526.0" y="208.0" type="curve" smooth="yes"/>
      <point x="526.0" y="322.06666666666666"/>
      <point x="453.1333333333333" y="394.6666666666667"/>
      <point x="340.0" y="393.2" type="curve"/>
      <point x="340.0" y="379.53333333333336" type="line"/>
      <point x="443.53333333333336" y="378.06666666666666"/>
      <point x="511.73333333333335" y="450.6"/>
      <point x="511.73333333333335" y="552.9333333333333" type="curve" smooth="yes"/>
      <point x="511.73333333333335" y="671.8666666666667"/>
      <point x="429.93333333333334" y="740.0"/>
      <point x="303.53333333333336" y="740.0" type="curve" smooth="yes"/>
      <point x="178.46666666666667" y="740.0"/>
      <point x="96.8" y="658.8"/>
      <point x="96.8" y="536.4" type="curve" smooth="yes"/>
    </contour>
  </outline>
</glyph>
<glyph name="ae" format="2">
  <advance width="600.0"/>
  <unicode hex="00E6"/>
  <anchor x="300.0" y="550.0" name="top"/>
  <outline>
    <contour>
      <point x="171.06666666666666" y="-10.0" type="curve" smooth="yes"/>
      <point x="255.0" y="-10.0"/>
      <point x="294.73333333333335" y="36.53333333333333"/>
      <point x="301.0" y="71.33333333333333" type="curve"/>
      <point x="304.73333333333335" y="71.33333333333333" type="line"/>
      <point x="310.26666666666665" y="36.53333333333333"/>
      <point x="346.06666666666666" y="-10.0"/>
      <point x="421.6" y="-10.0" type="curve" smooth="yes"/>
      <point x="507.0" y="-10.0"/>
      <point x="562.0666666666667" y="45.2"/>
      <point x="563.9333333333333" y="128.66666666666666" type="curve"/>
      <point x="488.26666666666665" y="128.66666666666666" type="line"/>
      <point x="486.93333333333334" y="85.93333333333334"/>
      <point x="458.8666666666667" y="58.46666666666667"/>
      <point x="413.46666666666664" y="58.46666666666667" type="curve" smooth="yes"/>
      <point x="368.93333333333334" y="58.46666666666667"/>
      <point x="339.0" y="94.4"/>
      <point x="339.0" y="147.33333333333334" type="curve" smooth="yes"/>
      <point x="339.0" y="258.46666666666664" type="line"/>
      <point x="563.6666666666666" y="258.46666666666664" type="line"/>
      <point x="563.6666666666666" y="402.6666666666667" type="line" smooth="yes"/>
      <point x="563.6666666666666" y="499.26666666666665"/>
      <point x="509.2" y="560.0"/>
      <point x="420.8" y="560.0" type="curve" smooth="yes"/>
      <point x="347.6" y="560.0"/>
      <point x="311.53333333333336" y="513.2"/>
      <point x="304.73333333333335" y="478.4" type="curve"/>
      <point x="301.26666666666665" y="478.4" type="line"/>
      <point x="295.0" y="513.2"/>
      <point x="257.73333333333335" y="560.0"/>
      <point x="180.0" y="560.0" type="curve" smooth="yes"/>
      <point x="99.73333333333333" y="560.0"/>
      <point x="47.0" y="504.8"/>
      <point x="45.13333333333333" y="421.3333333333333" type="curve"/>
      <point x="120.8" y="421.3333333333333" type="line"/>
      <point x="122.13333333333333" y="463.3333333333333"/>
      <point x="150.06666666666666" y="491.8"/>
      <point x="191.8" y="491.8" type="curve" smooth="yes"/>
      <point x="240.46666666666667" y="491.8"/>
      <point x="266.26666666666665" y="460.73333333333335"/>
      <point x="266.26666666666665" y="401.93333333333334" type="curve" smooth="yes"/>
      <point x="266.26666666666665" y="321.8" type="line"/>
      <point x="183.2" y="321.8" type="line" smooth="yes"/>
      <point x="93.4" y="321.8"/>
      <point x="36.333333333333336" y="269.6"/>
      <point x="36.333333333333336" y="188.66666666666666" type="curve" smooth="yes"/>
      <point x="36.333333333333336" y="132.4" type="line" smooth="yes"/>
      <point x="36.333333333333336" y="45.6"/>
      <point x="88.06666666666666" y="-10.0"/>
    </contour>
    <contour>
      <point x="188.13333333333333" y="57.666666666666664" type="curve" smooth="yes"/>
      <point x="143.86666666666667" y="57.666666666666664"/>
      <point x="115.66666666666667" y="87.26666666666667"/>
      <point x="115.66666666666667" y="132.4" type="curve" smooth="yes"/>
      <point x="115.66666666666667" y="188.66666666666666" type="line" smooth="yes"/>
      <point x="115.66666666666667" y="231.06666666666666"/>
      <point x="142.06666666666666" y="258.46666666666664"/>
      <point x="184.66666666666666" y="258.46666666666664" type="curve" smooth="yes"/>
      <point x="266.26666666666665" y="258.46666666666664" type="line"/>
      <point x="266.26666666666665" y="147.33333333333334" type="line" smooth="yes"/>
      <point x="266.26666666666665" y="94.13333333333334"/>
      <point x="234.33333333333334" y="57.666666666666664"/>
    </contour>
    <contour>
      <point x="339.0" y="321.8" type="line"/>
      <point x="339.0" y="402.6666666666667" type="line" smooth="yes"/>
      <point x="339.0" y="455.3333333333333"/>
      <point x="367.46666666666664" y="491.8"/>
      <point x="412.6666666666667" y="491.8" type="curve" smooth="yes"/>
      <point x="459.3333333333333" y="491.8"/>
      <point x="488.0" y="455.3333333333333"/>
      <point x="488.0" y="402.6666666666667" type="curve" smooth="yes"/>
      <point x="488.0" y="321.8" type="line"/>
    </contour>
  </outline>
</glyph>
<glyph name="ccedilla" format="2">
  <advance width="600.0"/>
  <unicode hex="00E7"/>
  <anchor x="303.46666666666664" y="0.0" name="_bottom"/>
  <anchor x="303.46666666666664" y="0.0" name="bottom"/>
  <anchor x="303.46666666666664" y="550.0" name="top"/>
  <outline>
    <contour>
      <point x="209.8" y="-200.86666666666667" type="line"/>
      <point x="293.46666666666664" y="-200.86666666666667" type="line" smooth="yes"/>
      <point x="362.26666666666665" y="-200.86666666666667"/>
      <point x="408.1333333333333" y="-164.66666666666666"/>
      <point x="408.1333333333333" y="-119.46666666666667" type="curve" smooth="yes"/>
      <point x="408.1333333333333" y="-66.13333333333334"/>
      <point x="341.46666666666664" y="-39.93333333333333"/>
      <point x="290.8" y="-34.733333333333334" type="curve"/>
      <point x="312.3333333333333" y="26.0" type="line"/>
      <point x="259.3333333333333" y="26.0" type="line"/>
      <point x="224.33333333333334" y="-67.66666666666667" type="line"/>
      <point x="292.4" y="-67.66666666666667"/>
      <point x="332.8" y="-88.2"/>
      <point x="332.8" y="-113.6" type="curve" smooth="yes"/>
      <point x="332.8" y="-132.66666666666666"/>
      <point x="312.26666666666665" y="-151.2"/>
      <point x="282.46666666666664" y="-151.2" type="curve" smooth="yes"/>
      <point x="209.8" y="-151.2" type="line"/>
    </contour>
    <component base="c"/>
  </outline>
</glyph>
